<?xml version="1.0" standalone="no"?>
<!DOCTYPE svg PUBLIC "-//W3C//DTD SVG 1.1//EN" "http://www.w3.org/Graphics/SVG/1.1/DTD/svg11.dtd" >
<svg xmlns="http://www.w3.org/2000/svg">
<metadata></metadata>
<defs>
<font id="carringtonregular" horiz-adv-x="2048" >
<font-face units-per-em="2048" ascent="1638" descent="-410" />
<missing-glyph horiz-adv-x="614" />
<glyph />
<glyph />
<glyph unicode="&#xd;" horiz-adv-x="614" />
<glyph unicode=" "  horiz-adv-x="614" />
<glyph unicode="&#x09;" horiz-adv-x="614" />
<glyph unicode="&#xa0;" horiz-adv-x="614" />
<glyph unicode="!" horiz-adv-x="739" d="M84 72q0 70 38 125t89 55q80 0 80 -92q0 -72 -31 -125q-35 -59 -94 -60q-35 0 -58.5 30t-23.5 67zM248 367q0 12 6 26q51 137 124 445.5t111 412.5q70 182 154 183q98 0 98 -119q0 -104 -114 -326q-195 -379 -299 -629q-12 -31 -45 -30q-35 0 -35 37z" />
<glyph unicode="&#x22;" horiz-adv-x="505" d="M188 1245q0 190 95 182q53 -4 53 -88q0 -61 -33 -137q-12 -27 -76 -143q-4 -8 -12 -6q-6 2 -8 12q-18 133 -19 180zM350 1245q0 190 94 182q54 -4 54 -88q0 -61 -33 -137q-12 -27 -76 -143q-4 -8 -12 -6q-6 2 -8 12q-18 133 -19 180z" />
<glyph unicode="#" horiz-adv-x="720" d="M51 813l33 102h145l25 95h-172l33 102h166l86 320h104l-84 -320h119l86 320h104l-84 -320h162l-33 -102h-157l-25 -95h184l-32 -102h-179l-88 -336l-104 2l88 334h-121l-88 -336l-104 2l88 334h-152zM334 915h121l24 95h-119z" />
<glyph unicode="$" horiz-adv-x="964" d="M33 168q0 39 24.5 68.5t61.5 29.5q27 0 44 -20.5t30 -20.5q127 0 239 316l-98 192q-55 115 -55 221q0 152 133 256q127 98 290 97q92 176 203 176q31 0 58.5 -16.5t27.5 -45.5q0 -61 -53 -61q-10 0 -23.5 14.5t-21.5 14.5q-61 0 -125 -86q109 -18 168 -91q49 -61 49 -147 q0 -61 -29 -109q-33 -55 -92 -55q-55 0 -95 37t-40 90q0 27 19.5 48.5t46.5 21.5q12 0 28.5 -12.5t28.5 -12.5q20 0 20 37q0 45 -47 69.5t-104 24.5h-8q-43 -94 -166 -489q84 -209 84 -326q0 -158 -108.5 -273.5t-264.5 -115.5q-84 0 -152 45q-74 47 -73 123zM152 133 q8 -16 39.5 -31.5t58.5 -15.5q98 0 162 88q59 82 59 191q0 43 -10 88q-121 -326 -252 -326q-29 0 -47 12q-8 4 -10 2q-4 -2 0 -8zM483 999q0 -92 33 -200q43 139 133 395q-72 -23 -119 -76t-47 -119z" />
<glyph unicode="%" horiz-adv-x="1359" d="M49 823q0 184 142.5 350t287.5 166q70 0 115 -73.5t45 -159.5q0 -18 -4 -59q68 -27 96 -27q66 0 162 98.5t88 184.5q-2 33 -18.5 50t-16.5 38q0 59 98 59q148 0 148 -229q0 -201 -262 -433q-242 -195 -484 -389q-262 -231 -262 -430q0 -33 19.5 -59.5t48.5 -26.5 t51.5 58.5t52.5 58.5q35 0 57.5 -29.5t22.5 -68.5q0 -53 -41 -91t-94 -38q-88 0 -148.5 70.5t-60.5 162.5q0 258 256 490q238 184 475 366q256 211 256 418q0 14 -6 12q-4 -4 -6 -12q-18 -154 -157.5 -270.5t-309.5 -114.5q-47 -133 -133 -217q-98 -94 -221 -94 q-82 0 -139.5 73.5t-57.5 165.5zM197 817q0 -43 18 -80t49 -37q39 0 97.5 69t101.5 163q-39 33 -39 76q0 66 90 69q8 53 8 78q0 92 -55 92q-86 0 -178 -151.5t-92 -278.5zM762 301q0 184 142.5 350t287.5 166q70 0 115 -73.5t45 -159.5q0 -184 -103 -342 q-117 -180 -291 -181q-82 0 -139 74t-57 166zM909 295q0 -43 18.5 -80t49.5 -37q63 0 160.5 160t97.5 295q0 92 -55 92q-86 0 -178.5 -151.5t-92.5 -278.5z" />
<glyph unicode="&#x26;" horiz-adv-x="1597" d="M20 422q-10 190 150 313q125 96 381 164q-14 70 -2 141q35 207 242 322q182 100 434 100q147 0 245 -53q119 -63 119 -188q0 -209 -252 -303q-135 -51 -540 -105q37 -27 84 -27q25 0 62.5 16.5t60.5 16.5q25 0 47 -21.5t22 -43.5q0 -51 -135 -109q-205 -88 -250 -119 q-135 -88 -135 -211q0 -82 72 -137q66 -53 157 -59q94 -6 190.5 49t96.5 129q0 25 -12 47q-47 90 -103 86q-80 -6 -86 -70q78 -6 78 -90q0 -41 -36 -65.5t-83 -24.5q-53 0 -85.5 45t-32.5 107q0 125 104 209q100 78 236 77q63 0 167.5 -20t184.5 -20q123 0 123 49 q-25 2 -47.5 29.5t-18.5 56.5q12 96 103 90q55 -4 82.5 -52.5t27.5 -111.5q0 -203 -311 -205q-59 0 -160 21q23 -115 21 -148q-10 -154 -148 -241q-125 -82 -299 -82q-180 0 -311 88q-147 96 -148 252q0 139 160 254q129 90 246 106q-76 53 -115 102q-236 -41 -348 -108 q-145 -86 -145 -242q0 -18 10 -39q43 45 102 29q66 -18 58 -100q-8 -84 -107 -84q-66 0 -110 57q-41 51 -46 123zM733 940q449 94 504 111q229 71 229 194q0 55 -75 88q-63 27 -146 27q-197 0 -350 -117q-162 -125 -162 -297v-6z" />
<glyph unicode="'" horiz-adv-x="329" d="M188 1245q0 190 95 182q53 -4 53 -88q0 -61 -33 -137q-12 -27 -76 -143q-4 -8 -12 -6q-6 2 -8 12q-18 133 -19 180z" />
<glyph unicode="(" horiz-adv-x="673" d="M25 557q0 285 161 528q143 213 373 347q213 123 404 122q22 0 22 -18l-199 -106q-236 -125 -372 -314q-199 -272 -199 -680q0 -178 45 -323q31 -96 84 -191q45 -76 45 -86q0 -16 -14 -16q-41 0 -121 84q-92 100 -154 248q-76 186 -75 405z" />
<glyph unicode=")" horiz-adv-x="757" d="M-244 -150l199 107q236 125 373 313q199 272 198 680q0 178 -45 324q-31 96 -84 190q-45 76 -45 86q0 16 15 17q41 0 120 -84q92 -100 154 -248q76 -187 76 -406q0 -285 -162 -528q-143 -213 -373 -346q-213 -123 -403 -123q-23 0 -23 18z" />
<glyph unicode="*" horiz-adv-x="548" d="M135 1186q0 16 8 35q27 59 95 63l14 -18q47 -45 108 -68q6 92 -4 152q41 63 95 61q51 -2 57 -57q-68 -98 -86 -162q98 45 160 92q65 9 67 -57q2 -63 -65 -92q-8 0 -16 2l-9 2q-12 2 -72 2q-35 0 -59 -4q8 -27 37 -58l39 -41q2 0 14 -10q-8 -20 -16 -37q-20 -39 -41 -51 q-33 -18 -55 -18q-29 0 -37 24q-2 18 0 25v127q-43 -47 -97 -152q-25 -18 -53 -18q-20 0 -39 12q-27 18 -26 47q0 25 18 51q86 43 156 103h-68q-63 0 -98 -4q-27 18 -27 49z" />
<glyph unicode="+" horiz-adv-x="442" d="M35 580l33 102h137l53 211h107l-54 -211h146l-33 -102h-139l-60 -232h-106l59 232h-143z" />
<glyph unicode="," horiz-adv-x="462" d="M123 -139q0 16 14 28q35 29 72 88q-35 -2 -55.5 27t-20.5 68q0 70 38 125t89 55q80 0 80 -92q0 -61 -29 -135q-43 -111 -137 -185q-10 -8 -22 -8q-29 0 -29 29z" />
<glyph unicode="-" horiz-adv-x="466" d="M35 580l33 102h389l-33 -102h-389z" />
<glyph unicode="." horiz-adv-x="462" d="M133 72q0 70 38 125t89 55q80 0 80 -92q0 -72 -31 -125q-35 -59 -94 -60q-35 0 -58.5 30t-23.5 67z" />
<glyph unicode="/" horiz-adv-x="1157" d="M27 12l1071 1424l82 -60l-1071 -1421z" />
<glyph unicode="0" horiz-adv-x="1255" d="M66 451q0 242 157 487q143 223 361.5 371.5t398.5 148.5q145 0 246.5 -136t101.5 -306q0 -252 -151 -502q-139 -227 -353.5 -374.5t-400.5 -147.5q-158 0 -262 145q-98 135 -98 314zM299 373q0 -266 119 -267q117 0 279.5 148.5t271.5 368.5q125 247 125 491 q0 102 -17 148q-23 66 -86 65q-233 0 -469 -344q-223 -328 -223 -610z" />
<glyph unicode="1" horiz-adv-x="712" d="M-41 -29q299 373 457 758q209 510 399 608q12 6 6 11q-6 4 -18 0q-78 -31 -191 -154q-98 -109 -149 -109q-94 0 -94 113q0 6 41 14q63 10 143 78q90 76 139 103q74 41 156 41q106 0 106 -70q0 -10 -53 -59q-70 -63 -125 -166q-82 -158 -141 -418q-49 -221 -172 -488 q-117 -256 -160 -256q-41 0 -44 41t-58 41q-41 0 -119 -62.5t-96 -62.5t-27 37z" />
<glyph unicode="2" horiz-adv-x="1056" d="M6 141q0 291 240 449q221 104 442 209q240 119 240 315q0 84 -51 154q-61 80 -156 80q-109 0 -189 -60q-90 -68 -90 -184q0 -47 39 -47q12 0 34 16.5t36 16.5q49 0 49 -99q0 -94 -127 -94q-160 0 -160 205q0 160 146 260q137 96 321 88q170 -8 279.5 -112.5t109.5 -247.5 q0 -279 -256 -420q-41 -23 -489 -174q-272 -92 -297 -246q-10 -68 -4 -90q2 -8 10 -6q6 2 6 10q2 109 58 170q66 74 188 74q80 0 145 -68q53 -63 107 -127q66 -68 147 -68q16 0 58 23q-59 20 -49 80q10 61 88 61q31 0 51 -22.5t20 -53.5q0 -100 -82 -168.5t-188 -68.5 q-94 0 -216 106.5t-206 106.5q-39 0 -39 -55q0 -16 10.5 -44t10.5 -63q0 -61 -88 -61q-147 0 -148 155z" />
<glyph unicode="3" horiz-adv-x="1071" d="M0 203q0 45 27.5 80.5t72.5 42.5q41 6 76 -19.5t35 -62.5q0 -57 -37 -86q33 -53 123 -54q195 0 347.5 151t152.5 329q0 57 -37 111.5t-84 43.5q-61 -12 -77.5 -93t-80.5 -81q-47 0 -85 46t-38 106q0 92 82 164q49 43 182.5 98t182.5 94q86 66 86 170q0 41 -52.5 72 t-111.5 31q-272 0 -324 -201q29 33 74 16q43 -16 37 -84q-2 -33 -35 -56.5t-72 -23.5q-59 0 -100 52.5t-31 111.5q20 125 160 207q131 76 295 76q156 0 272 -72q129 -78 129 -207q0 -125 -168 -186q-160 -43 -317 -86q-176 -57 -184 -170q-2 -23 1 -32t7 -7q6 2 6 10 q6 100 94 148q72 39 162 28q111 -12 185.5 -104t74.5 -207q0 -254 -231 -416q-213 -145 -498 -145q-115 0 -197 45q-104 55 -104 160z" />
<glyph unicode="4" horiz-adv-x="1093" d="M33 524q0 223 182 449q164 205 410.5 341t443.5 136q107 0 107 -70q0 -10 -43 -63q-59 -68 -107 -174q-74 -162 -133 -422q-18 -78 -64 -219q49 -23 84 -23q57 0 58 29q0 20 -19.5 33.5t-19.5 44.5q0 27 22.5 43t53.5 12q72 -10 65 -98q-8 -143 -192 -144q-45 0 -86 7 q-68 -172 -137.5 -300.5t-96.5 -128.5q-41 0 -44 41t-58 41q-41 0 -119 -62.5t-96 -62.5q-16 0 -27 37q172 213 336 508q-92 29 -172 29q-78 0 -141 -45q-41 -31 -109 -107q-98 0 -98 168zM131 477q143 180 365 162q57 -4 122 -33q27 53 56 123q119 289 174 395 q96 183 188 230q20 10 -12 10q-119 0 -324 -115q-231 -129 -383 -311q-186 -223 -186 -461z" />
<glyph unicode="5" horiz-adv-x="1155" d="M-29 203q0 45 28 80.5t73 42.5q41 6 75.5 -19.5t34.5 -62.5q0 -57 -37 -86q33 -53 123 -54q186 0 342 197q143 180 158 373q6 66 6 92q0 129 -90 129q-88 0 -170 -82q-68 -66 -111 -162q-23 -49 -81 -49q-43 0 -82 27.5t-39 62.5q0 12 6 25l242 500q23 49 26 106 q-2 -33 -2 111q0 33 49 32q16 0 29.5 -30.5t13.5 -57.5q0 -12 -2 -18q76 82 168 82q59 0 144.5 -47t142.5 -47q123 0 123 32q0 8 -20.5 23.5t-18.5 44.5q4 57 67 57q66 0 70 -104q4 -111 -59 -174q-70 -72 -207 -68q-59 2 -147.5 48t-147.5 46q-96 0 -135 -82l-197 -409 q-4 -10 2 -14q8 -4 14 6q143 289 416 288q106 0 180 -92t74 -250q0 -27 -2 -55q-25 -283 -260 -471q-221 -176 -498 -176q-115 0 -196 45q-104 55 -105 160z" />
<glyph unicode="6" horiz-adv-x="1196" d="M45 418q0 377 295 700.5t639 323.5q90 0 154 -31q79 -39 79 -113q0 -55 -34.5 -95t-87.5 -40q-37 0 -66 24.5t-29 61.5q0 16 20.5 37t20.5 37q0 29 -65 29q-193 0 -375 -193q-172 -182 -260 -446q72 143 192 233q129 98 271 98q104 0 176 -92q66 -86 65 -194 q0 -276 -200.5 -513t-425.5 -237q-170 0 -273 121q-96 115 -96 289zM279 371q0 -219 122 -236q158 -20 285 201q117 208 117 446q0 115 -74 115q-143 0 -258 -143q-100 -127 -100 -246q0 -47 18 -47q16 0 29.5 10t23.5 10q57 -4 58 -78q0 -45 -33 -75.5t-78 -30.5 q-88 0 -110 117v-43z" />
<glyph unicode="7" horiz-adv-x="782" d="M53 270q18 233 238 486q111 129 391 366q203 172 197 224q0 8 -5 8q-2 0 -4 -6q-20 -57 -76.5 -92t-113.5 -35t-157.5 14t-166.5 14q-96 0 -149 -47q-29 -27 -57 -90q-23 -47 -44 -47q-31 0 -30 41q0 43 35.5 113.5t35.5 115.5q0 20 -10 51t-10 48q0 37 33 36 q29 0 49 -86q111 82 209 82q68 0 168 -51t159 -51q49 0 60.5 49t34.5 49q51 0 87 -34t36 -85q0 -102 -123 -235q-117 -123 -236 -246q-305 -367 -305 -624q0 -59 29.5 -88t60.5 -56q-51 -106 -143 -106q-94 0 -150 92q-51 84 -43 190z" />
<glyph unicode="8" horiz-adv-x="1155" d="M20 365q0 164 144 286q129 109 305 140q-109 141 -109 299q0 162 156 272q147 104 328 92q307 -20 307 -262q0 -117 -154 -209q-109 -63 -260 -98q123 -106 172 -180q82 -123 82 -275q0 -190 -166 -315q-158 -121 -362 -107q-180 12 -305 103q-137 98 -138 254zM184 373 q0 -102 75 -174t183 -84q127 -14 227.5 66.5t100.5 203.5q0 80 -74 166q-76 80 -153 158q-145 -27 -244 -111q-115 -94 -115 -225zM561 1151q0 -94 105 -199q119 27 200 80q113 72 113 172q0 55 -47 90t-125 33q-92 -2 -166 -53q-80 -53 -80 -123z" />
<glyph unicode="9" horiz-adv-x="1140" d="M12 201q0 57 37 100t94 51q49 8 80 -22.5t31 -71.5q0 -27 -26.5 -52.5t-26.5 -47.5q0 -55 114 -56q188 0 353 166q137 139 227 359q80 197 84 342q-43 -231 -152 -371q-127 -160 -319 -160q-133 0 -219 86q-92 88 -92 238q0 272 221 482t504 210q121 0 204 -61 q95 -68 95 -181q0 -41 -21 -59q12 -37 12 -76q0 -387 -239 -715q-264 -362 -649 -362q-123 0 -209 45q-102 55 -103 156zM397 729q0 -82 45 -135t107 -53q158 0 278 215q113 203 115 450q-4 20 -4 33q0 27 31 39q6 2 59 12q60 12 109 -33q-35 78 -158 78q-238 0 -414 -192 q-168 -186 -168 -414z" />
<glyph unicode=":" horiz-adv-x="462" d="M133 72q0 70 38 125t89 55q80 0 80 -92q0 -72 -31 -125q-35 -59 -94 -60q-35 0 -58.5 30t-23.5 67zM256 686q0 70 38 125t89 55q80 0 80 -92q0 -72 -31 -125q-35 -59 -94 -59q-35 0 -58.5 29.5t-23.5 66.5z" />
<glyph unicode=";" horiz-adv-x="462" d="M123 -139q0 16 14 28q35 29 72 88q-35 -2 -55.5 27t-20.5 68q0 70 38 125t89 55q80 0 80 -92q0 -61 -29 -135q-43 -111 -137 -185q-10 -8 -22 -8q-29 0 -29 29zM256 686q0 70 38 125t89 55q80 0 80 -92q0 -72 -31 -125q-35 -59 -94 -59q-35 0 -58.5 29.5t-23.5 66.5z" />
<glyph unicode="&#x3c;" horiz-adv-x="663" d="M76 483v99l641 401l53 -86l-577 -365l364 -243l-57 -86z" />
<glyph unicode="=" horiz-adv-x="466" d="M43 512l33 102h389l-33 -102h-389zM117 682l33 102h389l-33 -102h-389z" />
<glyph unicode="&#x3e;" horiz-adv-x="663" d="M53 279l578 364l-365 244l58 86l424 -281v-98l-642 -401z" />
<glyph unicode="?" horiz-adv-x="696" d="M74 90q0 53 35.5 102.5t89.5 49.5q80 0 80 -99q0 -53 -36 -102t-89 -49q-80 0 -80 98zM125 528q0 121 119 232q111 86 221 174q119 104 119 217q0 72 -67.5 132t-141.5 52q25 -29 24 -86q0 -37 -32.5 -65.5t-71.5 -28.5q-53 0 -87 36t-34 91q0 72 66 115q57 41 139 41 q154 0 258 -131q98 -125 98 -295q0 -143 -127 -250q-12 -10 -237 -154q-127 -80 -127 -157q0 -39 39 -72t39 -39q0 -45 -54 -45q-53 0 -98 77t-45 156z" />
<glyph unicode="@" horiz-adv-x="1423" d="M68 528q0 344 266 629q274 293 633 293q33 0 67 -4q365 -33 365 -402q0 -242 -162 -469t-332 -227q-51 0 -95 33t-44 80q0 31 22 90l97 256q6 14 -8 16q-12 2 -19 -14l-90 -256q-29 -80 -87 -141.5t-114 -61.5q-82 0 -127 58q-41 51 -41 131q0 197 147.5 352.5 t348.5 155.5q68 0 123 -34t59 -85q4 -57 -45 -72l-133 -321q-8 -20 -8 -46q0 -37 14 -38q141 0 266 196q125 190 125 397q0 281 -262 299q-336 25 -604 -237q-260 -254 -260 -578q0 -182 68 -301q80 -141 237 -141q233 0 430 197q20 20 45 20q51 0 51 -49q0 -23 -22 -45 q-225 -225 -504 -225q-203 0 -313 172q-94 147 -94 372zM547 492q0 -18 11 -37t26 -19q29 0 66.5 38t56.5 87l122 311h134q-10 14 -11 29q0 33 37 47q-23 31 -86 31q-166 0 -268 -164q-88 -143 -88 -323z" />
<glyph unicode="A" horiz-adv-x="1757" d="M23 272q0 29 6 58q80 446 850 446q59 0 125 -2q221 371 352 481q123 104 203 146q109 53 237 53q139 0 232 -86q15 -14 15 -26q0 -3 -1 -5q-2 -10 -33 -18q-160 -43 -248 -201q-66 -119 -114 -358q120 23 120 101q0 11 -17 26.5t-17 40.5q0 67 55 67h2q90 0 90 -118 q0 -78 -66.5 -134.5t-187.5 -72.5q-88 -442 -225 -666q-4 -29 -33 -20q-23 6 -17.5 31.5t-9 45t-43.5 19.5q-63 0 -108 -17q-61 -25 -152 -98q-11 -9 -20 -9q-12 0 -21 15q-16 25 13 35q213 182 395 635q-53 -4 -311 -14q-178 -324 -293 -445q-180 -190 -436 -215 q-19 -2 -37 -2q-118 0 -204 79q-100 91 -101 228zM145 279q0 -102 56 -156q47 -45 118 -45q254 0 590 543q-352 -12 -528 -76q-236 -82 -236 -266zM1169 764q244 -14 279 -14q115 301 164 387q96 176 223 215q-25 4 -39 4q-313 0 -627 -592z" />
<glyph unicode="B" horiz-adv-x="1503" d="M20 684q0 317 259 541q252 221 593 221q266 0 439 -127q90 57 182 57q39 0 74 -27.5t35 -66.5q0 -35 -21.5 -62.5t-52.5 -27.5q-59 0 -60 45q0 6 5 25q2 12 0 18q-4 6 -23 6q-37 0 -70 -29q135 -143 136 -299q0 -94 -54.5 -162.5t-142.5 -95.5q156 -92 156 -301 q0 -174 -121 -290.5t-299 -116.5q-61 0 -125 9t-115 9q-100 0 -242 -47q-12 -10 -23 -10q-14 0 -26 16q-18 23 6 49q145 156 353 617q211 469 331 606q-125 98 -325 98q-279 0 -486.5 -201.5t-207.5 -471.5q0 -94 49 -168q55 -80 135 -80q123 0 209 125q80 115 80 252 q0 155 -87 155h-1q-80 0 -133.5 -51t-53.5 -137q0 -10 51.5 -33t51.5 -84q0 -31 -27 -53.5t-59 -22.5q-57 0 -88 62q-27 51 -27 123q0 145 104.5 262t218.5 117q213 0 213 -310q0 -182 -135 -340q-143 -168 -336 -168q-141 0 -240.5 111t-99.5 258zM918 152q80 -12 114 -13 q111 0 185 107q65 96 65 217q0 80 -35 135q-39 66 -114 76q-106 -354 -215 -522zM1161 770h4q59 0 122 60q65 62 65 133q0 98 -49 178q-94 -207 -142 -371z" />
<glyph unicode="C" horiz-adv-x="1568" d="M45 262q0 164 115 283q96 100 282 174q94 287 373 498q293 219 619 219q127 0 217 -68q104 -78 104 -215q0 -268 -295 -399q-231 -102 -590 -103q-111 0 -198 -10q-20 -74 -21 -145q0 -158 56 -265q68 -129 196 -129q270 0 486 312q23 31 51 6q25 -23 6 -49 q-84 -156 -209 -258q-158 -127 -334 -127q-223 0 -362 155q-135 150 -135 367q0 20 4 70q-233 -90 -234 -263q0 -120 56 -120h1q10 0 20.5 36.5t53.5 36.5q70 0 70 -86q0 -59 -50.5 -94t-109.5 -35q-82 0 -131 72q-41 61 -41 137zM735 799q209 35 416 69q227 41 330 99 q133 74 133 211q0 74 -68 116q-59 37 -137 37q-182 0 -381 -164q-184 -154 -293 -368z" />
<glyph unicode="D" horiz-adv-x="1658" d="M-6 676q0 326 268 555q262 225 617 225q274 0 450 -131q92 59 189 59q41 0 75.5 -28.5t34.5 -67.5q0 -37 -21.5 -65.5t-54.5 -28.5q-59 0 -59 47q0 6 4 27q2 12 -2 18t-22 6q-37 0 -72 -30q88 -92 149 -244q72 -176 72 -363q0 -283 -152 -481q-164 -215 -423 -215 q-63 0 -119 9t-109 9q-104 0 -250 -49q-10 -8 -20 -8q-15 0 -29 17q-18 23 6 49q150 160 363 635q217 483 342 624q-129 102 -336 103q-287 0 -501 -208t-214 -487q0 -98 51 -174q55 -82 140 -82q125 0 215 129q82 119 82 260q0 160 -93 160q-82 0 -138 -51t-56 -139 q0 -12 54 -37t54 -88q0 -31 -26.5 -54.5t-61.5 -23.5q-57 0 -90 63q-29 53 -28 127q0 150 112 271q105 114 224 114h2q219 0 219 -317q0 -188 -142 -348q-150 -170 -348 -170q-147 0 -251.5 114.5t-104.5 268.5zM901 90q98 -12 133 -12q162 0 266 227q93 199 93 445 q0 106 -23 231q-23 119 -49 162q-229 -774 -420 -1053z" />
<glyph unicode="E" horiz-adv-x="1372" d="M-27 279q0 389 549 501q-4 14 -4 43q0 248 299 441q264 170 514 170q127 0 203 -60q82 -65 82 -188q0 -236 -193 -363q-184 -123 -508 -123q-78 0 -118 -2q46 -71 154 -71h3q16 0 67.5 18.5t94.5 18.5q86 0 86 -80q0 -59 -69 -88q-70 -18 -140 -37q-186 -53 -309 -170 q-137 -129 -147 -297q-1 -9 -1 -18q0 -86 52 -148q57 -68 166 -68q147 0 259.5 106.5t112.5 252.5q0 70 -28 119q-35 59 -101 61h-5q-69 -1 -132 -57q-65 -58 -65 -136q0 -29 21.5 -55t45.5 -24q45 3 45 33q0 6 -2 14q6 2 15 2q59 0 59 -76q0 -59 -45 -96q-37 -31 -88 -31 q-78 0 -123 68q-37 57 -37 135q0 154 119 256q105 94 241 94h17q117 -4 182 -92q56 -71 56 -166q0 -12 -1 -25q-14 -211 -167 -350q-145 -135 -355 -149q-29 -2 -57 -2q-164 0 -277 71q-139 88 -139 248q0 182 141 315q104 96 304 179q139 55 278 108q8 2 6 6t-8 2 q-99 -28 -186 -28h-6q-197 0 -277 137q-467 -70 -467 -391q0 -53 43 -54q8 0 18.5 3.5t22.5 30t43 32.5q7 2 14 2q49 0 50 -96q0 -68 -40 -101.5t-94 -33.5q-76 0 -125 60t-49 149zM760 817q33 4 129 14q236 25 393 105q197 102 197 262q0 131 -160 131q-31 0 -68 -6 q-154 -27 -311 -168q-180 -160 -180 -332v-6z" />
<glyph unicode="F" horiz-adv-x="1337" d="M4 748q0 303 217 523t522 220q135 0 291 -57q12 -6 254 -115q141 125 307 125q78 0 125 -44t47 -120q0 -68 -54 -109t-130 -41q-82 0 -225 44q-86 -117 -166 -302h240l-48 -90h-229q-25 -68 -43 -139q-119 -440 -278 -676q-8 -23 -26 -23q-4 0 -9 1q-27 6 -19 32 q2 10 2 21q0 49 -51 49t-69 -4q-63 -18 -154 -90q-14 -11 -24 -11q-12 0 -19 17q-14 20 8 39q133 106 264 334q86 150 209 428q2 4 5 12t3 10h-98l47 90h92q104 225 207 353q-313 100 -497 100q-238 0 -422.5 -185.5t-184.5 -426.5q0 -119 60 -207q66 -98 170 -98 q137 0 229 131q86 121 86 274q0 180 -119 180q-86 0 -141 -68.5t-55 -160.5q0 -82 43 -82q12 0 23.5 19.5t25.5 19.5q23 0 33 -24.5t6 -53.5q-6 -43 -39 -70.5t-76 -27.5q-61 0 -98 61q-31 55 -31 129q0 145 109.5 266t250.5 121q106 0 166 -67.5t64 -184.5v-18 q0 -210 -133 -371q-143 -174 -350 -174q-147 0 -238 142q-80 125 -80 299zM1430 1264q94 -27 157 -27q29 0 56.5 16t27.5 41q0 63 -82 64q-72 0 -159 -94z" />
<glyph unicode="G" horiz-adv-x="1533" d="M45 328q0 154 115 268q92 92 282 164q94 272 373 473q293 209 619 209q127 0 217 -64q104 -73 104 -204q0 -256 -295 -379q-231 -98 -590 -99q-111 0 -198 -10q-20 -68 -21 -137q0 -129 58.5 -207t148.5 -78t201 107q8 8 170 198q92 106 143 107q2 0 27.5 3t42.5 3 q63 0 63 -37q0 -14 -22 -33q-31 -29 -53 -80q-14 -33 -76 -331q-53 -258 -152 -385q-139 -184 -403 -185q-123 0 -209 45q-102 53 -103 152q0 51 36 89t87 38q35 0 60.5 -23.5t25.5 -58.5q0 -18 -28.5 -38.5t-28.5 -39.5q2 -57 127 -57q158 0 264 147q68 92 143.5 307.5 t116.5 270.5q-35 -27 -107.5 -122t-129.5 -134q-88 -61 -203 -62q-195 0 -318 107q-126 114 -126 306q0 19 4 69q-215 -80 -234 -250q-2 -17 -2 -32q0 -83 59 -83q12 0 24.5 38t51.5 40h6q62 0 62 -88q0 -57 -46 -93t-104 -36q-82 0 -135 72q-47 61 -47 133zM735 836 q209 33 416 65q227 39 330 94q133 72 133 201q0 72 -68 111q-55 34 -133 34h-4q-182 0 -381 -155q-184 -145 -293 -350z" />
<glyph unicode="H" horiz-adv-x="1746" d="M61 752q0 334 207 536q195 188 477 189q113 0 318 -56.5t297 -56.5q41 0 101.5 18.5t99.5 18.5q69 0 69 -32q0 -28 -33 -46q-51 -33 -57 -37q-94 -88 -188 -252q-51 -92 -162 -319h268q131 330 225 448q132 166 289 166q16 0 31 -2q45 -4 75 -38q27 -30 27 -67v-10 q-6 -96 -92 -96q-55 0 -55 51q0 23 14 47l15 23q-2 4 -9 4q-82 0 -144 -79t-122.5 -277.5t-118.5 -395.5q-59 -186 -120 -325q-72 -164 -109 -164q-39 0 -42 39t-56 39q-39 0 -114 -59.5t-91 -59.5q-20 0 -21 37q0 2 109 129q125 150 192 303q43 96 76 184h-276 q-156 -311 -293 -452q-195 -201 -455 -201q-123 0 -215 55q-104 63 -104 166q0 49 23.5 88t66.5 39q33 0 59.5 -21.5t26.5 -52.5q0 -43 -33 -61t-33 -29q0 -86 172 -86q223 0 406 254q29 39 297 525q184 332 362 446q-18 0 -45.5 -4t-54.5 -4q-76 0 -272.5 27.5t-286.5 27.5 q-238 0 -422 -185.5t-184 -426.5q0 -119 59 -207q66 -98 170 -98q137 0 229 131q86 121 86 274q0 180 -118 180q-86 0 -147.5 -75.5t-61.5 -167.5q0 -68 55 -68q12 0 23.5 19.5t25.5 19.5q23 0 33 -24.5t6 -53.5q-6 -43 -39 -70.5t-76 -27.5q-61 0 -98 61q-31 55 -31 129 q0 143 113 268.5t254 125.5q106 0 165.5 -68t63.5 -184v-18q0 -210 -135 -376q-147 -176 -354 -176q-147 0 -238 142q-80 125 -80 299z" />
<glyph unicode="I" horiz-adv-x="1306" d="M61 752q0 301 217.5 512t522.5 211q111 0 297 -55.5t262 -55.5q41 0 101.5 18.5t99.5 18.5q69 0 69 -34q0 -21 -31 -40q-57 -39 -59 -41q-150 -139 -375 -768q-106 -297 -297 -430q-182 -129 -475 -129q-123 0 -215 55q-104 63 -104 166q0 49 23.5 88t66.5 39 q33 0 59.5 -21.5t26.5 -52.5q0 -43 -33 -61t-33 -29q0 -82 164 -82q201 0 354 168q88 96 240 365q86 176 170 354q123 219 330 342q-16 0 -55 -8t-66 -8q-76 0 -272.5 27.5t-286.5 27.5q-238 0 -422 -185.5t-184 -426.5q0 -119 59 -207q66 -98 170 -98q137 0 229 131 q86 121 86 274q0 180 -118 180q-86 0 -141.5 -68.5t-55.5 -160.5q0 -82 43 -82q12 0 23.5 19.5t25.5 19.5q23 0 33 -24.5t6 -53.5q-6 -43 -39 -70.5t-76 -27.5q-61 0 -98 61q-31 55 -31 129q0 145 110 266t251 121q106 0 165.5 -67.5t63.5 -184.5v-18q0 -210 -133 -371 q-143 -174 -350 -174q-147 0 -238 142q-80 125 -80 299z" />
<glyph unicode="J" horiz-adv-x="1548" d="M37 -72q0 211 176 351q170 137 410 137q37 0 71 -4q121 -18 367 -45q45 88 90 202q92 240 203 389q143 197 370 332q-16 0 -55 -8t-65 -8q-80 0 -263.5 21.5t-261.5 21.5q-217 0 -382 -138.5t-165 -332.5q0 -96 54 -168q59 -78 153 -78q123 0 207 105q78 98 78 223 q0 145 -109 145q-78 0 -127 -56t-49 -130q0 -66 39 -66q10 0 20.5 15.5t24.5 15.5q35 0 35 -53v-11q-14 -77 -102 -77h-2q-55 0 -85 47t-30 106q0 121 92 217q100 102 240 103q96 0 150.5 -55.5t56.5 -149.5v-16q0 -168 -125 -304q-133 -147 -320 -147q-135 0 -223 106 q-82 98 -82 236q0 250 180 434q188 193 457 193q98 0 299 -58.5t278 -58.5q41 0 101.5 18.5t99.5 18.5q70 0 70 -34q0 -20 -31 -40q-57 -39 -59 -41q-338 -315 -480 -811q-8 -33 -28 -98q92 27 92 90q0 10 -14.5 26.5t-8.5 45.5q8 41 52 41h4q72 -4 71 -119 q0 -154 -243 -209q-272 -668 -862 -668q-141 0 -240 70q-129 90 -129 274zM154 -84q0 -119 82 -174q57 -37 137 -37q154 0 323 154q152 135 287 366h-43q-109 0 -233 8q-30 2 -59 2q-176 0 -323 -82q-171 -96 -171 -237z" />
<glyph unicode="K" horiz-adv-x="1593" d="M47 752q0 301 217 512t522 211q111 0 232 -55.5t196 -55.5q41 0 101.5 18.5t99.5 18.5q66 0 70 -29q4 -23 -31 -45q-57 -39 -59 -41q-125 -117 -248 -549q80 61 147 209q80 180 119 230q104 131 258 131q61 0 105 -27q47 -31 47 -84v-8q-6 -96 -92 -96q-43 0 -56 51 q-2 10 10.5 38.5t12.5 37.5q0 12 -15 12q-70 0 -131 -92q-55 -111 -110 -219q-72 -131 -185 -193q184 -41 185 -221q0 -63 -66.5 -171t-66.5 -167q0 -82 49 -82t73.5 59.5t36.5 61.5h5q36 0 37 -57q0 -57 -56 -119q-59 -70 -133 -70q-82 0 -140.5 47t-64.5 125q-1 15 -1 30 q1 107 63 233q72 144 71 186q0 63 -121 84q-4 -10 -10 -33q-84 -268 -129 -375q-59 -150 -155 -291q-8 -23 -26 -23q-4 0 -9 1q-23 6 -19 32q2 8 2 17q0 53 -51 53t-69 -4q-63 -18 -154 -90q-14 -11 -24 -11q-12 0 -19 17q-14 20 8 39q256 207 473 762q90 231 180 362 l136 164q-80 -12 -86 -12q-76 0 -207 27.5t-221 27.5q-238 0 -422.5 -185.5t-184.5 -426.5q0 -119 60 -207q66 -98 170 -98q137 0 229 131q86 121 86 274q0 180 -119 180q-86 0 -141 -68.5t-55 -160.5q0 -82 43 -82q12 0 23.5 19.5t25.5 19.5q23 0 33 -24.5t6 -53.5 q-6 -43 -39 -70.5t-76 -27.5q-61 0 -98 61q-31 55 -31 129q0 145 109.5 266t250.5 121q106 0 166 -67.5t64 -184.5v-18q0 -210 -133 -371q-143 -174 -350 -174q-147 0 -238 142q-80 125 -80 299z" />
<glyph unicode="L" horiz-adv-x="1464" d="M-8 78q6 31 119 76q133 53 200.5 140t137.5 304q-227 -12 -228 -123q0 -20 26.5 -38.5t26.5 -55.5q0 -31 -23.5 -50.5t-53.5 -19.5q-47 0 -79 38t-32 85q0 119 119 199q104 70 284 98q109 334 269 506q201 217 483 217q150 0 242 -104q86 -101 86 -248q0 -248 -213 -377 q-214 -130 -624 -130q-30 0 -60 1q-150 -371 -406 -481q100 -4 242 -101q125 -88 252 -176q152 -92 276 -92q125 0 202 90t77 238q0 61 -52.5 108t-115.5 47q-59 0 -98 -41q-31 -33 -31 -67q0 -23 14 -23q10 0 27.5 6.5t30.5 6.5q47 0 47 -72q0 -88 -88 -88q-63 0 -105.5 50 t-42.5 118q0 94 68.5 163.5t165.5 69.5q125 0 212 -91t87 -216q0 -205 -150 -336q-141 -123 -346 -123q-176 0 -326 119q-115 109 -231 217q-131 119 -258 119q-14 0 -34.5 -10.5t-35.5 -10.5q-27 0 -46 18q-16 14 -16 32q0 4 1 8zM725 745q256 10 471 121q236 121 236 283 q0 78 -50.5 136t-130.5 58q-225 0 -350 -184q-70 -100 -176 -414z" />
<glyph unicode="M" horiz-adv-x="2433" d="M-2 639q18 354 284.5 591.5t624.5 237.5q201 0 340 -152.5t139 -357.5q0 -80 -51 -227q-61 -174 -125 -348q-4 -14 7 -18q12 -4 18 10q68 174 135 348q104 258 201 393q133 186 274 187q152 0 152 -193q0 -88 -94 -317q-92 -221 -185 -443q-8 -18 8 -18q10 0 17 14 q72 168 143 334q92 205 174 307q106 135 219 135q88 0 144 -73q49 -70 49 -175q0 -28 -4 -59q-20 -125 -113 -254l-160 -192q-81 -101 -81 -168q0 -22 6 -43q12 -45 55 -45q55 0 92 43q16 20 47 82q20 43 39 43q37 0 37 -70q0 -80 -78 -154.5t-172 -74.5q-68 0 -118 60 t-50 132q0 137 80 283q76 115 152 229q80 129 80 227q0 49 -29 50q-182 0 -529 -883q-8 -20 -18 -35q-25 -35 -51 -35l-117 -4q-51 -2 -86 -26.5t-43 -26.5h-4q-15 0 -27 11q-14 13 -10 30q63 272 180 545q59 135 187 376q84 162 84 205t-25 43q-100 0 -275 -343t-290 -752 q-6 -18 -14 -33q-20 -33 -48 -33l-153 -4q-49 -2 -85 -21.5t-61 -19.5q-16 0 -25 14.5t-3 34.5q47 170 221 545q125 272 125 481q0 328 -277 328q-295 0 -515 -235.5t-220 -530.5q0 -129 54.5 -214t129.5 -85q123 0 209 125q80 115 80 252q0 143 -88 155q-12 2 -23 2 q-61 0 -107 -47q-54 -55 -54 -145q0 -10 50 -31.5t50 -83.5q-1 -32 -27 -56q-23 -20 -50 -21q-5 0 -9 1q-110 12 -110 182q0 148 102 259q96 106 211 106q139 0 199 -108q37 -71 37 -168q0 -16 -1 -33q-10 -184 -147 -336q-141 -155 -324 -155h-16q-150 5 -252 129 q-93 113 -93 283q0 17 1 34z" />
<glyph unicode="N" horiz-adv-x="1918" d="M-2 639q18 354 284.5 591.5t624.5 237.5q201 0 322 -133q115 -131 117 -336q0 -84 -52 -249q-16 -51 -127 -367q-6 -20 15 -21q12 0 14 15q82 227 164 452q94 248 178 367q106 152 227 152q84 0 144.5 -80t60.5 -209q0 -26 -2 -55q-14 -135 -102 -283l-156 -242 q-80 -139 -80 -268q0 -94 45 -94q41 0 72 69.5t68 69.5q40 0 40 -74q0 -80 -61 -138t-143 -58q-180 0 -181 274q0 147 82 322l152 278q82 152 82 250q0 59 -2 74q-8 41 -39 41q-137 0 -318 -447q-133 -352 -264 -704q-10 -20 -20 -35q-27 -37 -53 -37l-191 -4 q-29 0 -59.5 -20.5t-42.5 -20.5q-27 0 -27 26q0 10 4 23q53 190 234 563q137 285 137 463q0 328 -234 328q-295 0 -515 -235.5t-220 -530.5q0 -129 54.5 -214t129.5 -85q123 0 209 125q80 115 80 252q0 143 -88 155q-12 2 -23 2q-61 0 -107 -47q-54 -55 -54 -145 q0 -10 50 -31.5t50 -83.5q-1 -32 -27 -56q-23 -20 -50 -21q-5 0 -9 1q-110 12 -110 182q0 148 102 259q96 106 211 106q139 0 199 -108q37 -71 37 -168q0 -16 -1 -33q-10 -184 -147 -336q-141 -155 -324 -155h-16q-150 5 -252 129q-93 113 -93 283q0 17 1 34z" />
<glyph unicode="O" horiz-adv-x="1761" d="M16 262q0 164 115 283q96 100 283 174q94 287 372 498q293 219 619 219q127 0 217 -68q104 -78 104 -215q0 -82 -24 -145q18 -51 18 -109q0 -311 -161 -539q-133 -184 -351 -288q-180 -86 -334 -86q-223 0 -362 155q-135 150 -135 367q0 20 4 70q-238 -92 -238 -277 q0 -106 62 -106q10 0 20.5 36.5t53.5 36.5q69 0 69 -84q0 -61 -50 -96t-110 -35q-82 0 -131 72q-41 61 -41 137zM623 496q0 -158 55 -265q68 -129 196 -129q182 0 383 191q229 217 248 514v-16q-199 -119 -549 -138q-6 -23 -6 -55q0 -86 45 -86q16 0 37 18.5t33 18.5 q65 0 65 -87q0 -54 -46 -85q-39 -26 -83 -26q-9 0 -18 1q-82 10 -123 88q-37 66 -37 162v49q-100 0 -180 -10q-20 -74 -20 -145zM707 799l172 30q74 162 227.5 265.5t323.5 109.5h15q84 0 140 -41v15q0 74 -67 116q-59 37 -138 37q-182 0 -381 -164q-184 -154 -292 -368z M1030 852q332 53 449 131q-27 74 -95 74q-229 0 -354 -205z" />
<glyph unicode="P" horiz-adv-x="1572" d="M47 676q0 328 249 554t599 226q274 0 451 -131q92 59 188 59q41 0 76 -28.5t35 -67.5q0 -37 -21.5 -65.5t-54.5 -28.5q-59 0 -60 47q0 6 4 27q2 12 -2 18t-22 6q-37 0 -72 -30q215 -223 215 -533q0 -205 -149 -321q-113 -90 -230 -91q-115 0 -184 29q-66 -219 -172 -391 q-14 -24 -30 -24q-2 0 -5 1q-23 6 -18 33q2 8 2 17q0 53 -51 53t-70 -4q-63 -18 -154 -90q-14 -11 -24 -11q-12 0 -19 17q-14 20 9 39q147 162 366 640t344 619q-129 102 -336 103q-287 0 -500.5 -208t-213.5 -487q0 -98 51 -174q55 -82 139 -82q125 0 215 129 q82 119 82 260q0 160 -92 160q-78 0 -126 -55t-48 -148q0 -12 44 -30.5t44 -81.5q0 -31 -26.5 -54.5t-61.5 -23.5q-57 0 -90 63q-29 53 -29 127q0 150 104 263q98 106 218 106q219 0 219 -317q0 -188 -133 -340q-141 -162 -340 -162q-143 0 -234 117q-86 109 -86 266z M1104 434q33 -14 110 -14q66 0 123 57q88 91 88 277q0 102 -32 233q-31 119 -60 166q-80 -156 -137 -358q-47 -180 -92 -361z" />
<glyph unicode="Q" horiz-adv-x="1744" d="M23 262q0 164 114 283q96 100 283 174q94 287 373 498q293 219 618 219q127 0 217 -68q105 -78 105 -215q0 -82 -25 -145q18 -51 18 -109q0 -311 -161 -539q-133 -184 -351 -288q-180 -86 -333 -86q-223 0 -363 155q-135 150 -135 367q0 20 4 70q-237 -92 -237 -275 q0 -108 61 -108q10 0 20.5 36.5t53.5 36.5q69 0 69 -84q0 -61 -50 -96t-109 -35q-82 0 -132 72q-41 61 -40 137zM281 -33q0 41 61 64q49 18 115 18q150 0 297 -98q121 -92 241 -184q145 -98 285 -99q127 0 213 45q102 55 102 158q0 37 -24.5 71.5t-57.5 34.5q-81 0 -81 -54 q0 -11 10 -24.5t10 -21.5q0 -49 -57 -49q-41 0 -67 34q-20 28 -20 61q0 8 1 16q8 68 63 103.5t129 35.5q86 0 141.5 -65.5t55.5 -155.5q0 -162 -137 -271q-129 -102 -306 -102q-205 0 -348 121q-106 111 -213 221q-121 121 -274 121q-18 0 -44 -12.5t-42 -12.5q-53 0 -53 45 zM629 496q0 -158 55 -265q68 -129 197 -129q182 0 383 191q231 217 247 514q-190 -135 -548 -154q-6 -23 -7 -55q0 -86 45 -86q16 0 37 18.5t33 18.5q66 0 66 -90q0 -51 -47 -82q-38 -26 -83 -26q-9 0 -18 1q-80 8 -123 86q-37 68 -37 164v49q-100 0 -180 -10 q-20 -74 -20 -145zM713 799l172 30q74 162 227.5 265.5t323.5 109.5h15q84 0 140 -41v15q0 74 -67 116q-59 37 -138 37q-182 0 -380 -164q-184 -154 -293 -368zM1036 852q332 53 449 131q-27 74 -94 74q-229 0 -355 -205z" />
<glyph unicode="R" horiz-adv-x="1554" d="M12 692q0 315 262 537q254 217 598 217q266 0 439 -127q90 57 182 57q39 0 74 -27.5t35 -66.5q0 -35 -21.5 -62.5t-52.5 -27.5q-59 0 -60 45q0 6 5 25q2 12 0 18q-4 6 -23 6q-37 0 -70 -29q135 -143 136 -299q0 -96 -73 -172.5t-173 -78.5q82 -18 102 -33q62 -40 62 -142 v-18q-2 -63 -70 -184t-68 -183q0 -81 49 -81h1q57 0 83.5 70.5t55.5 70.5q41 0 41 -57t-56 -119q-59 -70 -133 -70q-82 0 -140 47t-64 125q-1 15 -1 30q0 107 62 233q72 144 72 186q0 74 -113 92q-45 -162 -166 -441q-98 -233 -127 -278q-14 -24 -30 -24q-2 0 -5 1 q-23 6 -18 33q2 8 2 17q0 53 -51 53t-70 -4q-63 -18 -153 -90q-14 -11 -24 -11q-12 0 -19 17q-12 18 8 39q184 199 319 467q25 47 193 438q102 238 202 350q-125 98 -325 98q-279 0 -486.5 -201.5t-207.5 -471.5q0 -94 49 -168q55 -80 135 -80q123 0 209 125q80 115 80 252 q0 135 -88 155q-16 4 -31 4q-66 0 -113 -53t-47 -131q0 -27 53.5 -46t53.5 -79q0 -31 -27 -53.5t-59 -22.5q-57 0 -88 62q-27 51 -27 123q-1 147 107 264q95 104 195 104q13 0 26 -2q213 -27 213 -309q0 -180 -138 -334q-145 -162 -338 -162q-141 0 -244.5 115t-103.5 262z M1182 770h4q56 0 110 58q56 60 56 135q0 98 -49 178q-39 -88 -121 -371z" />
<glyph unicode="S" horiz-adv-x="1429" d="M29 -12q-1 15 -1 30q0 180 156 318q129 113 346 162q129 29 371 43q-31 100 -61 200q-33 117 -33 217q0 217 176 368q156 134 342 134q23 0 47 -2q123 -10 195 -82q75 -72 75 -193v-12q-4 -137 -112 -241q-92 -89 -193 -88q-17 0 -34 2q-70 10 -113 61t-43 123 q0 82 42 142.5t118 74.5q12 2 23 2q30 -1 54 -15q34 -20 33 -56q0 -82 -53 -82q-10 0 -22.5 14t-22.5 14q-61 0 -62 -86q0 -29 19.5 -49t46.5 -20q80 0 138.5 62.5t58.5 162.5q0 57 -46.5 96t-101.5 39q-147 0 -251.5 -108.5t-104.5 -260.5q0 -100 33 -208q10 -29 69 -189 q123 20 123 82q0 16 -20.5 40t-20.5 42q0 61 74 61q41 0 65 -49q20 -41 21 -88q0 -131 -148 -190q-10 -4 -53 -19q29 -106 29 -202q0 -246 -208 -421t-472 -175q-180 0 -313 82q-154 94 -166 264zM269.5 -174q76.5 -66 176.5 -66q205 0 355 164q145 158 145 367q0 57 -8 98 q-369 -68 -496 -119q-249 -100 -249 -279q0 -99 76.5 -165z" />
<glyph unicode="T" horiz-adv-x="1230" d="M4 748q0 303 217 523t522 220q135 0 291 -57q12 -6 254 -115q141 125 307 125q78 0 125 -44t47 -120q0 -68 -54 -109t-130 -41q-82 0 -225 44q-94 -127 -246 -531q-59 -170 -117 -342q-78 -209 -161 -334q-8 -23 -26 -23q-4 0 -9 1q-23 6 -19 32q2 8 2 17q0 53 -51 53 t-69 -4q-63 -18 -154 -90q-14 -11 -24 -11q-12 0 -19 17q-14 20 8 39q131 104 260 334q59 104 213 428q170 356 256 465q-313 100 -497 100q-238 0 -422.5 -185.5t-184.5 -426.5q0 -119 60 -207q66 -98 170 -98q137 0 229 131q86 121 86 274q0 180 -119 180 q-86 0 -141 -68.5t-55 -160.5q0 -82 43 -82q12 0 23.5 19.5t25.5 19.5q23 0 33 -24.5t6 -53.5q-6 -43 -39 -70.5t-76 -27.5q-61 0 -98 61q-31 55 -31 129q0 145 109.5 266t250.5 121q106 0 166 -67.5t64 -184.5v-18q0 -210 -133 -371q-143 -174 -350 -174q-147 0 -238 142 q-80 125 -80 299zM1430 1264q94 -27 157 -27q29 0 56.5 16t27.5 41q0 63 -82 64q-72 0 -159 -94z" />
<glyph unicode="U" horiz-adv-x="1832" d="M10 565q0 352 271.5 627.5t625.5 275.5q211 0 350 -112q145 -121 146 -316q0 -156 -103 -340q-20 -39 -186 -290q-102 -152 -102 -230q0 -65 44 -65h1q150 0 373 428q123 233 307 690q23 57 57 57h94q18 0 45 12.5t41 12.5q34 0 34 -28q0 -4 -1 -9q-84 -264 -268 -694 q-154 -362 -154 -396q0 -41 4 -53q6 -23 37 -22q55 0 88 43q14 20 39 82q16 43 35 43q37 0 37 -70q0 -80 -78 -154.5t-172 -74.5q-158 0 -158 170q0 55 115 317q170 389 229 547q6 14 -6 16q-10 2 -16 -12q-94 -217 -187 -432q-127 -274 -239 -416q-150 -184 -305 -184 q-106 0 -176 54t-70 146q0 123 112 320q102 164 207 330q107 177 107 263q0 259 -277 259q-285 0 -514 -273q-221 -262 -221 -544q0 -94 49 -168q55 -80 135 -80q123 0 209 125q80 115 80 252q0 131 -88 155q-16 4 -35 4q-68 0 -114 -61q-40 -52 -40 -116q0 -11 1 -23 q2 -10 53 -28.5t51 -80.5q0 -76 -74 -76q-57 0 -94 62q-33 53 -33 123q0 145 98.5 251.5t213.5 106.5q213 0 213 -309q0 -182 -129 -330q-136 -157 -328 -157h-2q-141 0 -236.5 111.5t-95.5 260.5z" />
<glyph unicode="V" horiz-adv-x="1751" d="M29 735q0 299 225 511t532 212q111 0 281 -52t246 -52q41 0 101.5 18.5t98.5 18.5q66 0 70 -29q4 -23 -31 -45q-57 -39 -59 -41q-129 -121 -283 -397q-192 -344 -192 -591q0 -189 90 -190q166 0 395 361q225 352 230 598q-37 0 -74 22q-43 27 -43 64q0 47 32.5 82 t77.5 35q41 0 76 -33t35 -66q0 -217 -119 -495.5t-286 -466.5q-186 -205 -351 -205q-127 0 -207 57q-106 76 -106 242q0 336 254 653q90 115 338 330q-80 -12 -86 -12q-76 0 -256 24.5t-270 24.5q-240 0 -432.5 -186.5t-192.5 -426.5q0 -119 59 -206q66 -98 170 -99 q137 0 230 131q86 121 86 275q0 180 -119 180q-86 0 -141.5 -68.5t-55.5 -160.5q0 -82 43 -82q12 0 23.5 19.5t25.5 19.5q23 0 33 -25t6 -53q-6 -43 -38.5 -71t-75.5 -28q-61 0 -99 62q-31 55 -30 129q0 145 109.5 266t250.5 121q106 0 165.5 -67.5t63.5 -184.5v-18 q0 -210 -133 -371q-143 -174 -350 -174q-147 0 -237 141q-80 125 -80 299z" />
<glyph unicode="W" horiz-adv-x="2226" d="M-2 735q0 299 225.5 511t532.5 212q111 0 280.5 -52t245.5 -52q41 0 101.5 18.5t99.5 18.5q66 0 69 -29q4 -23 -30 -45q-57 -39 -60 -41q-129 -121 -282 -397q-193 -346 -193 -594q0 -78 8 -107q12 -55 58 -55q39 0 135 283q123 362 188 483q86 160 187 266 q127 135 235 135q106 0 107 -69q0 -10 -70 -95q-84 -106 -141 -229q-86 -188 -121 -434q-12 -82 -12 -150q0 -194 68 -194h1q133 0 337 349t208 589q-37 0 -74 22q-43 27 -43 64q0 47 33 82t78 35q41 0 75.5 -33t34.5 -66q0 -213 -114 -502q-113 -279 -269 -473 q-166 -211 -299 -211q-129 0 -198 97q-61 86 -62 215q0 256 138 534q125 258 268 359q16 10 4 16q-12 4 -31 -6q-133 -76 -264 -318q-80 -145 -162 -403q-84 -266 -119 -336q-72 -139 -178 -139q-92 0 -162 57q-94 78 -94 242q0 336 254 653q90 115 338 330q-80 -12 -86 -12 q-76 0 -256 24.5t-270 24.5q-240 0 -432.5 -186.5t-192.5 -426.5q0 -119 60 -206q66 -98 170 -99q137 0 229 131q86 121 86 275q0 180 -119 180q-86 0 -141 -68.5t-55 -160.5q0 -82 43 -82q12 0 23 19.5t26 19.5q23 0 33 -25t6 -53q-6 -43 -39 -71t-76 -28q-61 0 -98 62 q-31 55 -31 129q0 145 109.5 266t250.5 121q106 0 166 -67.5t64 -184.5v-18q0 -210 -133 -371q-143 -174 -351 -174q-147 0 -237 141q-80 125 -80 299z" />
<glyph unicode="X" horiz-adv-x="1767" d="M55.5 268q30.5 35 75.5 35q82 0 82 -61q0 -51 -39 -68.5t-39 -30.5q0 -82 176 -82q174 0 389 189q145 127 400 434q-2 31 -2 92q0 287 -54 438q-53 145 -147 146q-256 0 -463 -246q-198 -235 -198 -488v-3q0 -86 45 -150q47 -72 120 -72q111 0 189 111q72 104 72 227 q0 145 -111 146q-61 -1 -105 -57q-36 -47 -36 -102q0 -12 2 -24q0 -10 47 -26t47 -72q0 -67 -64 -67h-2q-51 0 -84 55q-31 47 -30 110q0 131 94 233.5t198 102.5q190 0 191 -278q0 -164 -121 -303q-129 -147 -303 -148q-127 0 -222 108.5t-95 241.5q0 315 251.5 556 t573.5 241q174 0 295 -117q131 -129 158 -356q201 231 333 338q176 137 328 137q115 0 115 -106q0 -41 -25.5 -72t-64.5 -31q-70 0 -70 62q0 10 14.5 21t14.5 20q0 20 -41 12q-131 -27 -283 -166q-117 -109 -315 -354q0 -727 159 -727q66 0 121.5 127t87.5 127q33 0 32 -62 q0 -92 -75 -200q-86 -123 -190 -123q-129 0 -219 100q-129 141 -160 455q-229 -272 -395 -402q-217 -170 -408 -170q-280 0 -280 217q0 47 30.5 82z" />
<glyph unicode="Y" horiz-adv-x="1912" d="M23 590q0 348 279.5 613t637.5 265q211 0 350 -112q145 -121 146 -316q0 -156 -103 -340q-20 -39 -186 -290q-102 -152 -103 -230q0 -65 45 -65h1q96 0 264 286q131 244 260 488q86 160 186 266q127 135 236 135h3q103 0 103 -69q0 -8 -65 -66q-80 -70 -133 -174 q-82 -158 -117 -403q-55 -395 -238 -652q-256 -360 -721 -360q-121 0 -215 57q-104 66 -104 168q0 49 23.5 88t66.5 39q33 0 59.5 -21.5t26.5 -52.5q0 -43 -33 -61.5t-33 -28.5q0 -82 164 -82q311 0 543 357q125 188 256 561q70 197 166 356q100 170 192 234q16 10 5 16 q-12 4 -31 -6q-133 -76 -264 -318q-45 -82 -187 -405q-106 -238 -188 -338q-119 -141 -275 -141q-100 0 -151 75q-45 66 -45 170q0 43 8 86q27 152 125 320q82 127 164 255q80 125 80 206q0 260 -277 260q-285 0 -514 -273q-221 -262 -221 -544q0 -94 49 -168 q55 -80 135 -80q123 0 209 125q80 115 80 252q0 131 -88 155q-16 4 -35 4q-68 0 -115 -61q-39 -51 -39 -114q0 -12 1 -25q2 -10 53 -28.5t51 -80.5q0 -76 -74 -76q-57 0 -94 62q-33 53 -33 123q0 145 98.5 251.5t213.5 106.5q213 0 213 -309q0 -182 -129 -330 q-136 -157 -328 -157h-2q-150 0 -248 106q-104 113 -104 291z" />
<glyph unicode="Z" horiz-adv-x="1347" d="M45 -66q0 205 176 316q123 78 395 135q336 72 408 98q-16 94 -66 103q-6 1 -12 1q-40 0 -43 -50q0 -8 2 -23.5t2 -24.5q0 -33 -47 -34h-3q-43 0 -80 59q-34 55 -34 111v12q14 172 142 272q70 53 262 131q170 68 225 131q-61 -16 -80 -16q-127 0 -277.5 59.5t-324.5 59.5 q-197 0 -344 -131t-147 -316q0 -92 47 -159q53 -74 139 -74q111 0 186 100q70 90 70 209q0 139 -98 139q-70 0 -114 -53t-44 -123q0 -63 35 -63q10 0 19.5 14t21.5 14q31 0 31 -48v-11q-14 -74 -95 -74q-49 0 -78 47q-25 41 -24 99q0 113 86 208t211 95q86 0 135 -52.5 t51 -142.5v-16q0 -158 -112 -289q-118 -137 -287 -137q-121 0 -201 100q-74 94 -74 224q0 229 214 422.5t462 193.5q139 0 299 -94t234 -94q10 0 43 4q-29 23 -29 69q0 29 22.5 49.5t51.5 20.5q39 0 70.5 -31.5t31.5 -66.5q0 -205 -176 -336q-37 -29 -326 -174 q-176 -88 -176 -189q0 -16 4 -33q14 90 78 134q43 29 89 29q7 0 14 -1q109 -8 186 -147q37 43 45 94q-70 6 -70 70q0 59 66 69q9 1 17 1q38 0 60 -30q22 -32 22 -85q0 -8 -1 -17q-8 -111 -100 -196q14 -51 14 -107q0 -299 -243 -539q-249 -243 -573 -243h-3 q-160 0 -272.5 92t-112.5 235zM201 -78q0 -88 68.5 -144.5t168.5 -56.5q225 0 400 228q147 191 184 418q-90 -39 -363 -123q-227 -70 -319 -125q-139 -82 -139 -197z" />
<glyph unicode="[" horiz-adv-x="585" d="M-10 -147l424 1732h180v-102h-102l-371 -1530h90v-100h-221z" />
<glyph unicode="\" horiz-adv-x="798" d="M10 1399l90 45l717 -1413l-90 -45z" />
<glyph unicode="]" horiz-adv-x="585" d="M-53 -49h102l371 1530h-90v100h221l-424 -1733h-180v103z" />
<glyph unicode="^" horiz-adv-x="483" d="M66 1499q0 16 12 27l211 157q25 18 37 15q12 -4 20 -23l66 -159q4 -10 4 -19q0 -25 -27 -24q-20 0 -35 18l-59 78l-180 -92q-12 -6 -21 -7q-29 0 -28 29z" />
<glyph unicode="_" horiz-adv-x="991" d="M-88 -260l33 102h1138l-32 -102h-1139z" />
<glyph unicode="`" horiz-adv-x="329" d="M47 1718q0 55 51 56q27 0 64 -37t63 -105q8 -24 43 -141q2 -8 -4 -10t-14 2q-90 70 -125 102q-78 76 -78 133z" />
<glyph unicode="a" horiz-adv-x="901" d="M59 246q0 274 199 485q207 219 487 219q94 0 170 -47t82 -119q1 -8 1 -15q0 -65 -64 -85l-180 -444q-20 -51 -21 -88q0 -45 39 -46q39 0 64.5 62.5t37.5 62.5q37 0 36 -61q0 -55 -51.5 -112.5t-119.5 -57.5q-70 0 -118 33q-55 39 -56 104q0 35 33 123l131 356 q8 25 -10 25q-14 0 -23 -23l-129 -354q-41 -113 -116 -194q-82 -86 -158 -86q-117 0 -178 79q-55 70 -56 183zM260 182q0 -27 17.5 -53.5t35.5 -26.5q39 0 91.5 53.5t78.5 118.5l172 435h183q-14 18 -15 39q1 44 54 67q-35 41 -119 41q-231 0 -375 -229q-123 -197 -123 -445 z" />
<glyph unicode="b" horiz-adv-x="899" d="M8 78q0 6 35 43q43 49 78 115q100 190 186 573q76 334 172 461q149 196 485 196h3h3q226 0 226 -155q0 -37 -29.5 -61.5t-68.5 -24.5q-41 1 -72 27q-27 23 -27 55v8q2 31 25 53q-51 20 -53 21q-217 0 -357 -252q-53 -96 -204 -533q-121 -350 -250 -481q-4 -4 -4 -8 q0 -6 8 -9q6 -2 10 3q104 94 205 323q143 324 156 346q94 164 215 164q90 0 139 -94q41 -80 41 -193q0 -252 -199 -475q-182 -205 -346 -205q-111 0 -190 54q-37 -20 -109 -21q-31 0 -54.5 19.5t-23.5 50.5zM258 104q59 -12 98 -12q109 0 263.5 252t154.5 430q0 74 -35 74 q-92 0 -159 -115q-14 -25 -125 -278q-90 -211 -197 -351z" />
<glyph unicode="c" horiz-adv-x="757" d="M51 350q6 217 187 410q190 203 417 203q76 0 127 -27q64 -35 68 -96q1 -6 1 -12q-1 -40 -25 -71q-28 -36 -70 -36q-33 0 -58.5 21.5t-25.5 52.5q0 45 39 63q-2 23 -47 23q-131 0 -272.5 -192.5t-141.5 -387.5q0 -84 35 -143q37 -68 106 -76q14 -2 27 -2q60 0 108 37 q33 25 78 84q35 45 50 45h1q29 -4 29 -33q0 -59 -74 -133q-86 -86 -196 -96q-19 -2 -38 -2q-127 0 -218 84q-107 99 -107 266v18z" />
<glyph unicode="d" horiz-adv-x="792" d="M41 346q0 250 156.5 433.5t388.5 183.5q49 0 63 -25q8 16 8 80q0 377 -235 377q-45 0 -66 -27q28 -33 28 -69q0 -8 -1 -17q-12 -70 -84 -70q-35 0 -60.5 25t-25.5 59q0 78 72.5 135.5t160.5 57.5q188 0 304 -160q106 -150 106 -379q0 -381 -186 -680q-179 -286 -386 -286 h-1q-113 0 -183 125q-59 106 -59 237zM221 274q0 -194 73 -194h1q111 0 235 285q107 244 107 340q0 72 -2 86q-12 53 -57 53q-141 0 -252 -187q-104 -178 -105 -383z" />
<glyph unicode="e" horiz-adv-x="665" d="M61 334q0 231 197 426q186 184 391 184q66 0 101.5 -43t35.5 -102q0 -160 -137 -246q-127 -55 -256 -111q-137 -61 -137 -168q0 -178 115 -178q88 0 172 76t102 76q35 0 35 -31q0 -59 -102 -137q-109 -84 -209 -84q-133 0 -220.5 99.5t-87.5 238.5zM285 492 q47 45 150.5 100t137.5 86q62 55 62 135q0 35 -21 35q-127 0 -229 -133q-86 -113 -100 -223z" />
<glyph unicode="f" horiz-adv-x="591" d="M-559 -184q0 43 29.5 74.5t72.5 31.5q35 0 60.5 -23.5t25.5 -58.5q0 -70 -57 -90q98 -33 127 -33q160 0 274 177q84 129 181 423q147 455 168 508h-185l41 103h184q229 534 626 534h1q68 0 121 -26q64 -34 64 -93q0 -47 -21 -79q-25 -39 -66 -39q-37 0 -65.5 18.5 t-28.5 50.5q0 41 33 62q-59 16 -57 16q-135 0 -236 -127q-84 -104 -162 -317h181l-41 -103h-174q-88 -270 -177 -540q-113 -313 -243 -467q-172 -199 -414 -199q-96 0 -174 51q-88 57 -88 146z" />
<glyph unicode="g" horiz-adv-x="786" d="M-164 -152q0 43 30 75t73 32q35 0 60.5 -23.5t25.5 -58.5q0 -70 -58 -90q53 -33 127 -33q246 0 424 498l158 442q20 55 78 160q-12 2 -25 2q-25 -25 -80 -158l-160 -430q-90 -244 -221 -244q-76 0 -147 70q-82 82 -82 201q0 231 170 434q190 225 459 225q23 0 63 -4 q61 61 127 62q92 -1 92 -58q0 -10 -24 -16q-37 -8 -60 -27q61 -33 62 -78q0 -39 -39 -38q-14 0 -33 16q-25 20 -45 29q-16 -31 -29 -66q-14 -41 -49 -254q-37 -229 -57 -309q-63 -248 -205 -385q-152 -150 -373 -150q-100 0 -174 41q-88 49 -88 135zM236 182q0 -59 36 -59 q74 0 134 151l172 435q14 36 77 147q-217 -12 -329 -238q-90 -182 -90 -436z" />
<glyph unicode="h" horiz-adv-x="827" d="M16 57q0 6 35 43q43 49 78 115q100 190 188 584q78 344 175 471q149 196 484 196h3h3q226 0 226 -155q0 -37 -29.5 -61.5t-68.5 -24.5q-42 1 -72 27q-27 23 -26 55v8q2 31 24 53q-51 20 -53 21q-217 0 -356 -256q-53 -100 -207 -545q-123 -354 -252 -486q-4 -4 -4 -8 q0 -6 8 -8q6 -2 10 2q106 96 201 324q139 334 145 348q90 164 211 164q135 0 135 -185q0 -57 -131 -315t-131 -313q0 -37 21 -37q41 0 94 71.5t68 71.5q35 0 34 -43q0 -45 -69 -119q-76 -78 -144 -78q-80 0 -116 39q-43 43 -43 148q0 102 131 357t131 270q0 35 -27 34 q-53 0 -106 -114q-57 -139 -117 -279q-90 -203 -203 -348q-74 -96 -172 -96q-31 0 -54.5 19.5t-23.5 49.5z" />
<glyph unicode="i" horiz-adv-x="425" d="M33 174q0 133 108.5 371.5t108.5 267.5q0 16 -41 23.5t-41 33.5q0 61 133 62q119 0 157 19.5t40 19.5q28 0 28 -31q0 -61 -169 -369.5t-169 -420.5q0 -59 37 -60q66 0 98.5 68.5t63.5 68.5q35 0 35 -61q0 -82 -70.5 -136.5t-161.5 -54.5q-74 0 -115.5 57.5t-41.5 141.5z M391 1184q0 74 41 132t94 58q35 0 59.5 -26.5t24.5 -71.5q0 -76 -32 -131q-37 -63 -101 -64q-37 0 -61.5 32t-24.5 71z" />
<glyph unicode="j" horiz-adv-x="577" d="M-465 -152q0 43 29.5 75t73.5 32q35 0 60.5 -23.5t25.5 -58.5q0 -70 -58 -90q53 -33 127 -33q117 0 264 256q113 195 219 490q90 256 91 317q0 16 -41 23.5t-41 33.5q0 61 133 62q119 0 156.5 19.5t39.5 19.5q29 0 29 -31q0 -63 -104 -352q-131 -367 -291 -598 q-219 -317 -451 -318q-100 0 -174 41q-88 49 -88 135zM510 1184q0 74 41 132t94 58q35 0 59.5 -26.5t24.5 -71.5q0 -76 -33 -131q-37 -63 -100 -64q-37 0 -61.5 32t-24.5 71z" />
<glyph unicode="k" horiz-adv-x="864" d="M-37 57q0 6 35 43q43 49 78 115q100 190 188 584q78 344 174 471q149 196 485 196h3h3q226 0 226 -155q0 -37 -29.5 -61.5t-68.5 -24.5q-41 1 -72 27q-27 23 -27 55v8q2 31 25 53q-51 20 -53 21q-217 0 -357 -256q-53 -100 -206 -545q-123 -354 -252 -486q-4 -4 -4 -8 q0 -6 8 -8q6 -2 10 2q117 104 297 543q131 317 391 317q37 0 67.5 -29.5t30.5 -70.5q0 -115 -94 -115q-47 0 -67 35q-12 21 -12 46q0 8 1 17q-53 -1 -117 -65q-58 -59 -58 -69q0 -1 1 -1q10 2 35 2q115 0 115 -172q0 -57 -59.5 -208.5t-59.5 -206.5q0 -37 21 -37 q41 0 94 71.5t67 71.5q35 0 35 -43q0 -45 -69 -119q-76 -78 -144 -78q-66 0 -110 39q-51 43 -51 123q0 12 1 25q8 76 31 143q14 39 29 80q10 25 18 49q18 47 19 68q0 16 -13 16q-39 0 -61 -35q-37 -66 -72 -133q-72 -125 -182 -268q-74 -96 -172 -96q-31 0 -54.5 19.5 t-23.5 49.5z" />
<glyph unicode="l" horiz-adv-x="532" d="M8 160q0 33 4 69q16 147 115 406q133 340 315 553q237 278 521 278h2h3q226 0 226 -155q0 -37 -29.5 -61.5t-68.5 -24.5q-41 1 -72 27q-27 23 -27 55v8q2 31 25 53q-51 20 -53 21q-197 0 -408 -308q-158 -233 -295 -589q-114 -296 -114 -380q0 -34 24 -34q41 0 92 69.5 t66 69.5q35 0 35 -43q0 -47 -68 -119q-74 -78 -142 -78h-3q-147 2 -148 183z" />
<glyph unicode="m" horiz-adv-x="1282" d="M12 -10q0 10 4 18q109 188 189 402q92 248 92 403q0 16 -41 23.5t-41 33.5q0 61 133 62q119 0 157 19.5t40 19.5q29 0 28 -31q0 -18 -133 -311q-154 -334 -202 -482q-4 -12 4 -14q10 0 14 10q205 494 326 656q92 125 206 125q137 0 138 -166q0 -25 -103 -260 q-119 -272 -149 -369q0 -6 12 -6q4 0 92 207q104 248 197 387q135 207 254 207q135 -1 135 -185q0 -57 -131 -315t-131 -313q0 -37 20 -37q41 0 94.5 71.5t67.5 71.5q35 0 35 -43q0 -45 -70 -119q-76 -78 -143 -78q-82 0 -115 33q-39 37 -39 142q0 109 128 363.5t128 275.5 q0 35 -26 34q-80 0 -228 -295q-43 -88 -204 -460q-18 -41 -21 -45q-12 -18 -41 -21l-106 -4q-41 -2 -70 -21.5t-53 -19.5q-25 0 -25 49q0 84 167 421t167 362q0 35 -27 34q-147 0 -432 -755q-6 -18 -14 -33q-18 -31 -45 -33l-86 -4q-41 -2 -71 -21.5t-54 -19.5q-27 0 -27 31 z" />
<glyph unicode="n" horiz-adv-x="856" d="M10 -10q0 10 6 18q82 127 174 371q106 281 107 434q0 16 -41 23.5t-41 33.5q0 61 133 62q119 0 157 19.5t40 19.5q29 0 28 -31q0 -20 -133 -313q-154 -332 -202 -480q-4 -12 4 -14q10 0 14 10q205 494 326 656q92 125 206 125q138 -1 138 -185q0 -57 -131 -315t-131 -313 q0 -37 20 -37q41 0 94 71.5t68 71.5q35 0 35 -43q0 -45 -70 -119q-76 -78 -143 -78q-82 0 -115 33q-39 37 -39 142q0 109 128 363.5t128 275.5q0 35 -29 34q-147 0 -432 -755q-6 -18 -14 -33q-18 -31 -45 -33l-86 -4q-41 -2 -71 -21.5t-54 -19.5q-29 0 -29 31z" />
<glyph unicode="o" horiz-adv-x="835" d="M-2 270q0 242 192 463q188 215 381 215q123 0 191 -82q61 -73 61 -194q0 -262 -171 -472t-392 -210q-262 0 -262 280zM168 184q0 -94 80 -94q158 0 278 223q111 211 111 453q0 80 -53 80q-121 0 -268.5 -234.5t-147.5 -427.5z" />
<glyph unicode="p" horiz-adv-x="966" d="M-127 -393q0 63 221 613t221 593q0 16 -41 23.5t-41 33.5q0 61 134 62q119 0 156.5 19.5t39.5 19.5q29 0 29 -31q0 -16 -62 -125q-78 -137 -129 -291q-4 -12 7 -12q8 -2 12 8q82 197 192.5 317.5t202.5 120.5h1q192 0 192 -278q0 -266 -184.5 -488.5t-389.5 -222.5 q-74 0 -116 78q-35 64 -35 145q0 17 2 35q-10 -25 -31 -77q-109 -289 -109 -369q0 -51 43 -72.5t43 -52.5q0 -45 -32 -45h-90q-55 2 -91 2q-23 0 -55.5 -14.5t-52.5 -14.5q-37 0 -37 23zM403 172q0 -94 39 -94q127 0 246 230t119 470q0 70 -21 70q-104 0 -243.5 -239.5 t-139.5 -436.5z" />
<glyph unicode="q" horiz-adv-x="968" d="M76 246q0 274 198 485q207 219 488 219q94 0 170 -47t82 -119q1 -8 1 -15q0 -65 -65 -85l-280 -809q-23 -66 -23 -100q0 -51 44 -69.5t44 -49.5q0 -45 -33 -45h-90q-55 2 -90 2q-23 0 -55.5 -14.5t-52.5 -14.5q-37 0 -37 23q0 35 20 86q57 137 82 203l266 720 q8 25 -10 25q-14 0 -22 -23l-129 -354q-41 -113 -117 -194q-82 -86 -158 -86q-117 0 -178 79q-55 70 -55 183zM276 182q0 -27 17.5 -53.5t36.5 -26.5q39 0 91 53.5t79 118.5l172 435h182q-14 18 -14 39q0 44 53 67q-35 41 -119 41q-231 0 -375 -229q-123 -197 -123 -445z " />
<glyph unicode="r" horiz-adv-x="698" d="M-18 -25q-3 7 -3 14q0 9 5 19q104 188 182 393q98 260 98 412q0 16 -41 23.5t-41 33.5q0 61 133 62q119 0 157 19.5t40 19.5q29 0 29 -31q0 -20 -133 -313q-154 -332 -203 -480q-4 -12 4 -14q10 0 14 10q207 500 322 662q92 131 205 133h6q44 0 82 -29q53 -40 53 -118 q0 -106 -76 -121q-8 -1 -15 -1q-26 1 -50 17q-30 22 -29 53q0 41 33 62q-4 29 -39 28q-82 0 -215 -254q-109 -201 -224 -505q-6 -18 -14 -33q-18 -31 -45 -33l-86 -4q-41 -2 -70.5 -21.5t-54.5 -19.5q-16 0 -24 16z" />
<glyph unicode="s" horiz-adv-x="626" d="M0 180q0 49 34 88t81 39q41 0 69.5 -29.5t28.5 -70.5q0 -72 -74 -86q-2 -20 22.5 -37.5t51.5 -17.5q74 0 128 53t54 125q0 90 -97 219t-97 223q0 116 101 194q94 73 216 72h19q78 -2 131 -34q61 -38 61 -101q0 -45 -23.5 -78.5t-62.5 -33.5q-35 0 -61.5 22.5t-26.5 54.5 q0 33 27 58q-25 16 -68 16q-49 0 -90 -29q-47 -31 -47 -77q0 -66 52 -136.5t103 -136.5q53 -88 54 -186q0 -131 -106.5 -221t-241.5 -90q-96 0 -164 55q-74 57 -74 145z" />
<glyph unicode="t" horiz-adv-x="569" d="M49 174q0 90 47 193l213 467h-168l41 102h174l72 158q20 43 53 83t53.5 41t67.5 9q10 2 30.5 12t35.5 10q20 0 24 -16q-2 6 -2 -35q0 -4 -63 -137q-29 -61 -60 -125h189l-41 -102h-195q-66 -141 -244 -523q-43 -92 -43 -153q0 -59 37 -60q41 0 81 59.5t77 59.5 q35 0 35 -49q0 -70 -80 -131.5t-176 -61.5q-74 0 -116 57.5t-42 141.5z" />
<glyph unicode="u" horiz-adv-x="937" d="M49 197q0 129 126 331.5t126 315.5q0 33 -27 33q-49 0 -95 -64.5t-62 -64.5q-33 0 -33 45q0 57 63 122q72 74 156 74q156 0 156 -239q0 -98 -70 -236q-18 -39 -127 -219q-70 -115 -69 -160q0 -65 44 -65h1q80 0 266 344q178 328 178 399q0 16 -41 23.5t-41 33.5 q0 61 133 62q119 0 179.5 19.5t62.5 19.5q29 0 29 -31q0 -68 -148.5 -382t-148.5 -392t38 -78q41 0 85 64.5t59 64.5q35 0 35 -43q0 -47 -68 -119q-74 -78 -142 -78h-3q-72 2 -112 44t-40 106q0 98 88 303q115 262 131 322q4 12 -6 14q-8 0 -12 -10q-199 -479 -340 -656 q-100 -123 -207 -123q-78 0 -123 70q-41 63 -41 150z" />
<glyph unicode="v" horiz-adv-x="882" d="M86 217q0 119 116.5 303.5t116.5 306.5q0 29 -22 25q-49 -8 -85 -70.5t-52 -62.5t-28.5 17.5t-12.5 35.5q2 59 74.5 126t152.5 67q59 0 101 -47.5t42 -108.5q0 -111 -65 -254q-14 -33 -121 -231q-65 -119 -65 -172q0 -31 19 -56.5t50 -25.5q133 0 262 149 q100 117 179 295q65 150 65 211q0 29 -10 51q-7 -1 -14 -1q-40 1 -71 21q-36 24 -36 64q0 47 35 81q28 28 63 27q8 0 17 -1q114 -23 114 -228q0 -129 -80 -311q-86 -201 -215 -324q-137 -132 -284 -132q-14 0 -29 1q-88 8 -152.5 81t-64.5 163z" />
<glyph unicode="w" horiz-adv-x="1257" d="M70 197q0 129 126 331.5t126 315.5q0 33 -27 33q-49 0 -95 -64.5t-63 -64.5q-33 0 -33 45q0 57 64 122q72 74 156 74q155 0 155 -236q0 -101 -69 -239q-18 -39 -127 -219q-70 -115 -70 -160q0 -65 44 -65h1q80 0 266 344q178 328 178 399q0 16 -40.5 23.5t-40.5 33.5 q0 61 133 62q119 0 191.5 19.5t74.5 19.5q29 0 29 -31q0 -61 -138.5 -367.5t-138.5 -418.5q0 -60 34 -60h3q190 23 324 293q104 209 104 340q0 27 -10 49q-7 -1 -14 -1q-40 1 -71 21q-36 24 -36 64q0 47 35 81q28 28 63 27q8 0 17 -1q114 -23 114 -228t-161 -471 q-182 -301 -392 -301q-29 0 -55 6q-152 33 -152 217q0 49 87 246q109 252 131 318q4 12 -5 14q-10 0 -14 -10q-197 -477 -340 -656q-100 -125 -201 -125q-78 0 -122 70q-41 63 -41 150z" />
<glyph unicode="x" horiz-adv-x="970" d="M-336 -86q24 29 58 29h8q38 -4 62 -37q17 -24 18 -50q0 -10 -3 -20q154 33 310 238q131 176 225 415q88 225 88 359q0 29 -37 20q-70 -16 -100.5 -87.5t-38.5 -71.5q-53 0 -53 57q0 82 76.5 145.5t173.5 63.5q68 0 113.5 -46t45.5 -110q0 -14 -4 -47q201 190 393 191 q51 1 83 -43q26 -35 26 -79q0 -11 -2 -22q-12 -90 -90 -90q-86 0 -86 64q0 49 33 67q-205 -29 -314 -242q-92 -176 -92 -409q0 -143 70 -143h4q53 4 88 69.5t76 65.5q29 0 28 -58q0 -72 -78 -139q-73 -63 -164 -63q-16 0 -32 2q-92 10 -143 100q-43 76 -50 188 q-356 -512 -587 -512q-57 0 -97 34q-38 32 -37 78q0 47 29 83z" />
<glyph unicode="y" horiz-adv-x="874" d="M-176 -176q0 43 29.5 74.5t72.5 31.5q35 0 60.5 -23.5t25.5 -58.5q0 -70 -57 -90q51 -32 123 -32h4q78 0 187.5 94t172.5 219q39 76 174 436q96 258 201 363q4 4 4 8q0 6 -8 8q-6 2 -10 -2q-106 -96 -205 -334q-147 -354 -156 -371q-94 -174 -215 -174q-78 0 -119.5 59.5 t-41.5 143.5q0 129 117.5 325.5t117.5 309.5q0 33 -27 33q-49 0 -95 -64.5t-62 -64.5q-33 0 -33 45q0 57 63 123q71 73 154 73h2q86 0 129 -75q37 -63 37 -156q0 -129 -121 -338t-121 -252q0 -65 36 -65h1q53 0 113 127q66 150 131 299q98 215 211 360q74 96 172 96 q31 0 54.5 -19t23.5 -50q0 -6 -35 -43q-43 -49 -78 -115q-51 -98 -96 -258q-59 -207 -86 -279q-205 -540 -587 -540h-1q-100 0 -174 41q-88 49 -88 135z" />
<glyph unicode="z" horiz-adv-x="821" d="M76 213q0 221 190 322q27 14 355 110q190 57 190 174q0 8 -4 8q-2 0 -4 -6q-20 -106 -176 -106q-33 0 -95.5 8t-93.5 8q-82 0 -127 -46t-53 -46q-35 0 -35 41q0 47 64 156q72 125 135 125q57 0 140 -45.5t138 -45.5q14 0 48 13q-8 14 -5 35q6 43 66 43q37 0 65.5 -32 t28.5 -69q0 -258 -190 -358q-31 -16 -351 -101q-190 -51 -190 -184q0 -41 12 -70q2 -8 9 -8q4 2 2 8q-4 25 -5 48q0 140 120 140q12 0 24 -1q76 -8 135 -106.5t115 -98.5q41 0 86 56.5t63 56.5q39 0 39 -68q0 -78 -69.5 -130t-157.5 -52q-70 0 -141.5 88t-114.5 88 q-16 0 -27 -29q57 -12 57 -78q0 -35 -28.5 -56t-67.5 -21q-76 0 -114 75q-33 61 -33 154z" />
<glyph unicode="{" horiz-adv-x="528" d="M66 700q14 55 71 56q92 0 146 92q39 66 55 176q6 55 12 111q98 375 428 417q49 6 49 -24q1 -29 -30 -35q-115 -20 -172 -92q-76 -98 -84 -322q-4 -119 -80 -225q-72 -98 -180 -154q100 -74 100 -208q0 -82 -43 -170q-92 -184 -92 -283q0 -106 127 -129q23 -4 22 -25 q0 -47 -73 -37q-231 33 -232 240q0 76 29 178q23 55 45 109q43 109 43 174q0 102 -98 102q-57 0 -43 49z" />
<glyph unicode="|" horiz-adv-x="583" d="M72 2l364 1454l99 -24l-365 -1457z" />
<glyph unicode="}" horiz-adv-x="589" d="M-102 -127q0 29 30 35q115 20 172 92q76 98 84 322q4 119 80 225q72 98 180 153q-100 74 -100 209q0 82 43 170q92 184 92 283q0 106 -127 129q-23 4 -22 25q0 47 73 36q231 -33 232 -239q0 -76 -29 -178q-23 -55 -45 -109q-43 -109 -43 -174q0 -102 98 -102 q57 -1 43 -50q-14 -55 -71 -55q-92 0 -146 -92q-39 -66 -55 -176q-6 -55 -12 -111q-98 -375 -428 -418q-49 -6 -49 25z" />
<glyph unicode="~" horiz-adv-x="483" d="M45 1497q55 117 150 125q35 4 81 -18.5t82 -20.5q25 2 70 37q20 20 39 20q14 0 14 -14q0 -6 -4 -14q-51 -127 -149 -137q-37 -4 -89.5 17t-86.5 19q-27 -2 -64 -28q-18 -12 -31 -13q-25 0 -12 27z" />
<glyph unicode="&#xa1;" horiz-adv-x="739" d="M61 76q0 104 115 325q195 379 299 629q12 31 45 31q35 0 35 -37q0 -13 -6 -27q-51 -137 -124 -445t-112 -413q-70 -182 -153 -182q-98 0 -99 119zM512 1231q0 72 33 128t92 56q35 0 58.5 -29.5t23.5 -66.5q0 -70 -38 -125t-89 -55q-80 0 -80 92z" />
<glyph unicode="&#xa2;" horiz-adv-x="866" d="M113 565q6 184 147 363.5t334 232.5l55 221l90 -22l-45 -182h23q76 0 127 -27q63 -35 67 -96q4 -47 -23.5 -83t-70.5 -36q-33 0 -58.5 21.5t-25.5 52.5q0 45 39 63q-2 23 -47 23q-23 0 -53 -11q-53 -213 -199 -790q68 -2 123 43q29 23 74 82q33 43 47 41q29 -4 28 -33 q0 -59 -73 -133q-86 -86 -197 -96h-12q-10 -2 -14 -2l-37 -148l-90 25l32 133q-111 29 -176 119q-70 98 -65 239zM311 516q0 -129 72 -192l174 694q-100 -86 -170 -221q-76 -147 -76 -281z" />
<glyph unicode="&#xa3;" horiz-adv-x="1325" d="M4 94q0 68 47 80q57 8 115 16q82 14 135 80q98 117 184 392h-147l37 102h143q98 324 209 459q172 209 485 209q82 0 144.5 -49.5t62.5 -129.5q0 -39 -29.5 -65.5t-74.5 -26.5q-39 0 -67.5 25.5t-24.5 60.5q4 29 24 49q-39 18 -80 19q-113 0 -223 -170q-66 -100 -192 -381 h262l-37 -102h-272q-104 -223 -187 -336q-111 -154 -229 -179q131 -35 268 -143q109 -88 219 -176q125 -86 256 -86q127 0 160 55q-55 16 -55 88q0 27 25.5 46.5t60.5 19.5q41 0 69.5 -35t28.5 -76q0 -78 -117 -158.5t-239 -80.5q-176 0 -334 114q-119 106 -236 213 q-131 115 -241 115q-20 0 -54 -8t-53 -8q-43 0 -43 67z" />
<glyph unicode="&#xa4;" horiz-adv-x="978" d="M37 74l131 112q-31 63 -31 138q0 145 119 286l-82 109l105 84l86 -109q98 63 217 64q115 0 196 -66l135 111l72 -88l-143 -113q29 -53 28 -123q0 -158 -112 -280l90 -123l-105 -90l-94 123q-106 -68 -221 -68q-113 0 -188 59l-134 -114zM262 350q0 -80 54.5 -133 t138.5 -53q109 0 198.5 86.5t89.5 195.5q0 80 -53 133.5t-135 53.5q-111 0 -202 -86t-91 -197z" />
<glyph unicode="&#xa5;" horiz-adv-x="1736" d="M68 659q0 315 251.5 556t573.5 241q174 0 295 -117q131 -129 158 -356q201 231 333 338q176 137 328 137q115 0 115 -106q0 -41 -25.5 -72t-64.5 -31q-70 0 -70 62q0 10 14.5 21t14.5 20q0 20 -41 12q-227 -45 -613 -537q-18 -57 -59 -182h186l-32 -102h-187 q-12 -45 -20 -68h166l-33 -102h-168q-98 -285 -180 -406q-10 -29 -35 -22q-23 6 -19 32q2 8 2 17q0 53 -51 53t-69 -4q-63 -18 -154 -90q-31 -25 -43 6q-14 20 8 39q168 133 305 375h-178l33 102h201l30 68h-190l33 102h202q2 6 7.5 19.5t7.5 19.5q-2 31 -2 92 q0 287 -54 438q-53 145 -147 146q-256 0 -463 -246q-199 -236 -198 -491q0 -86 45 -150q47 -72 120 -72q111 0 189 111q72 104 72 227q0 145 -111 146q-61 0 -104.5 -56.5t-34.5 -126.5q0 -10 47 -26.5t47 -71.5q0 -68 -66 -67q-51 0 -84 55q-31 47 -30 110q0 131 94 233.5 t198 102.5q190 0 191 -278q0 -164 -121 -303q-129 -147 -303 -148q-127 0 -222 108.5t-95 241.5z" />
<glyph unicode="&#xa6;" horiz-adv-x="583" d="M72 2l186 743l98 -32l-186 -738zM283 848l153 608l99 -24l-150 -613z" />
<glyph unicode="&#xa7;" horiz-adv-x="862" d="M0 180q0 49 34 88t81 39q41 0 69.5 -29.5t28.5 -70.5q0 -72 -74 -86q-2 -20 22.5 -37.5t51.5 -17.5q74 0 128 53t54 125q0 90 -97 219t-97 223q0 102 82 176t196 88q-84 117 -84 207q0 115 101.5 194t234.5 72q78 -2 131 -34q62 -38 62 -101q0 -45 -23.5 -78.5 t-62.5 -33.5q-35 0 -61.5 22.5t-26.5 54.5q0 33 26 58q-25 16 -67 16q-49 0 -91 -29q-47 -31 -47 -77q0 -66 52.5 -136.5t103.5 -136.5q53 -88 53 -186q0 -102 -69.5 -183t-173.5 -114q49 -80 49 -174q0 -131 -106.5 -221t-241.5 -90q-96 0 -164 55q-74 57 -74 145zM377 750 q0 -74 100 -199q113 49 113 164q0 72 -41 137q-10 4 -35 4q-49 0 -90 -29q-47 -31 -47 -77z" />
<glyph unicode="&#xa8;" horiz-adv-x="460" d="M80 1579q0 49 27.5 89t62.5 40q57 0 57 -66q0 -51 -22.5 -92t-65.5 -41q-59 0 -59 70zM285 1579q0 49 26.5 89t63.5 40q57 0 57 -66q0 -51 -23.5 -92t-66.5 -41q-25 0 -41 21.5t-16 48.5z" />
<glyph unicode="&#xa9;" horiz-adv-x="1449" d="M113 557q0 68 14 139q59 281 299 478.5t520 197.5q242 0 394.5 -151.5t152.5 -382.5q0 -70 -14 -142q-59 -279 -299 -477.5t-521 -198.5q-242 0 -394 153t-152 384zM217 580q0 -197 130 -327t335 -130q236 0 440.5 168.5t253.5 404.5q12 59 13 119q0 197 -129.5 326 t-333.5 129q-238 0 -442.5 -169t-254.5 -405q-12 -59 -12 -116zM451 561q6 195 167 369q170 182 375 182q168 0 176 -111q4 -41 -20.5 -73.5t-65.5 -32.5q-29 0 -51 19.5t-22 46.5q0 41 34 57q-2 20 -43 20q-119 0 -245.5 -172t-126.5 -348q0 -76 30 -129q35 -61 97 -70 q68 -8 123 31q31 23 69 76q33 43 45 41q27 -4 27 -29q0 -55 -68 -121q-76 -76 -176 -86q-135 -12 -229 74q-102 94 -96 256z" />
<glyph unicode="&#xaa;" horiz-adv-x="667" d="M63 967q0 178 132.5 318t314.5 140q59 0 108.5 -30.5t55.5 -77.5q6 -51 -43 -66l-117 -288q-12 -31 -12 -58q0 -29 24 -28q25 0 41.5 39.5t26.5 39.5q23 0 22 -38q0 -37 -33.5 -74t-76.5 -37q-47 0 -78 22q-37 25 -37 68q0 18 23 80l84 231q4 12 -4 15q-10 2 -17 -15 l-84 -229q-27 -74 -78 -128t-100 -54q-152 0 -152 170zM195 926q0 -18 10 -36t22 -18q27 0 61 35t50 78l113 283h118q-10 10 -10 24q0 29 35 45q-25 27 -78 27q-150 0 -242 -150q-80 -129 -79 -288z" />
<glyph unicode="&#xab;" horiz-adv-x="688" d="M137 500l295 243l62 -79l-201 -164l129 -164l-92 -78zM410 500l295 243l61 -79l-201 -164l129 -164l-92 -78z" />
<glyph unicode="&#xac;" horiz-adv-x="602" d="M35 580l33 102h512l-74 -252h-197l41 150h-315z" />
<glyph unicode="&#xad;" horiz-adv-x="466" d="M35 580l33 102h389l-33 -102h-389z" />
<glyph unicode="&#xae;" horiz-adv-x="1187" d="M98 786q0 53 13 109q45 213 228 364.5t396 151.5q186 0 303 -115.5t117 -294.5q0 -51 -12 -106q-45 -215 -228.5 -365.5t-398.5 -150.5q-184 0 -301 115.5t-117 291.5zM193 807q0 -145 96 -240.5t248 -95.5q176 0 326.5 124t187.5 300q10 45 10 90q0 143 -96.5 238.5 t-247.5 95.5q-174 0 -325.5 -124t-188.5 -300q-10 -45 -10 -88zM369 571q-4 6 4 19q104 115 187 310.5t128 246.5q-51 47 -143 47q-14 0 -15 12q0 12 19 15q162 8 233 -84q41 -53 41 -115q0 -43 -32.5 -77t-75.5 -34q41 -12 45 -16q31 -18 28 -70q0 -29 -31.5 -83t-31.5 -78 q0 -37 25 -37t36 30.5t23 30.5q18 1 18 -24q0 -27 -25.5 -55.5t-58.5 -28.5q-82 0 -90 75q-6 53 27 117t33 82q0 35 -51 41q-20 -72 -74 -197q-41 -98 -56 -123q-6 -10 -16 -10q-8 2 -8 17q10 29 -21 28q-47 0 -100 -41q-14 -8 -18 2zM676 938q27 0 51.5 26.5t24.5 59.5 q0 41 -23 80q-16 -37 -53 -166z" />
<glyph unicode="&#xaf;" horiz-adv-x="450" d="M63 1505l46 109h327l-45 -109h-328z" />
<glyph unicode="&#xb0;" horiz-adv-x="520" d="M195 1137q0 102 81.5 194t161.5 92q113 0 113 -123q0 -111 -72.5 -199.5t-167.5 -88.5q-117 0 -116 125zM281 1102q0 -33 26 -33q63 0 109 92q43 84 43 180q0 25 -15 25q-49 0 -106 -93t-57 -171z" />
<glyph unicode="&#xb1;" horiz-adv-x="546" d="M4 96l33 103h389l-33 -103h-389zM121 580l33 102h137l53 211h107l-54 -211h146l-33 -102h-139l-60 -232h-106l59 232h-143z" />
<glyph unicode="&#xb2;" horiz-adv-x="634" d="M49 643q0 174 144 270q133 61 266 125q143 70 143 189q0 51 -31 92q-37 49 -94 49q-66 0 -112 -37q-55 -41 -56 -110q0 -27 25 -27q8 0 20.5 9t20.5 9q31 0 31 -59q0 -55 -78 -55q-94 0 -95 123q0 94 84 153.5t195 55.5q102 -4 167.5 -68t65.5 -150q0 -168 -153 -251 q-23 -12 -293 -105q-164 -55 -178 -147q-6 -39 -2 -54q2 -6 6 -4t4 6q0 76 45 115q37 31 102 31q55 0 118 -78t122 -78q8 0 33 12q-35 14 -29 50q6 37 53 36q43 0 43 -47q0 -59 -50 -100t-111 -41q-55 0 -129 63.5t-125 63.5q-23 0 -23 -33q0 -10 6 -26.5t6 -36.5 q0 -37 -53 -37q-88 0 -88 92z" />
<glyph unicode="&#xb3;" horiz-adv-x="698" d="M43 674q-12 76 59 88q25 4 46.5 -11.5t21.5 -37.5q0 -31 -23 -51q20 -31 74 -31q117 0 208 90t91 197q0 35 -21.5 67.5t-49.5 26.5q-37 -8 -46.5 -56.5t-48.5 -48.5q-29 0 -51 28t-22 62q0 55 49 99q29 27 109.5 59.5t109.5 54.5q51 39 51 103q0 25 -31.5 43t-66.5 18 q-164 0 -195 -121q18 23 43 11q27 -8 23 -50q-4 -49 -64 -49q-35 0 -59.5 32t-18.5 67q12 76 97 125q78 45 176 45q94 0 166.5 -45t72.5 -123q0 -76 -100 -111q-96 -27 -190 -51q-104 -35 -111 -103q0 -18 1 -21t3 -3q4 2 4 6q4 61 58 90q43 23 96 17q68 -8 113 -63.5 t45 -123.5q0 -154 -140 -250q-129 -88 -299 -88q-162 0 -180 109z" />
<glyph unicode="&#xb4;" horiz-adv-x="399" d="M111 1495q-4 6 2 14q70 113 102 152q82 96 145 96q23 0 41.5 -16t18.5 -39q0 -25 -33 -66q-55 -66 -262 -143q-8 -4 -14 2z" />
<glyph unicode="&#xb6;" horiz-adv-x="903" d="M41 891q0 205 182 379q172 164 340 164q142 0 363 -2l-29 -99h-55l-355 -1376l-98 27l348 1349h-153l-353 -1376l-98 27l150 587q-209 96 -236 252q-6 33 -6 68z" />
<glyph unicode="&#xb7;" horiz-adv-x="462" d="M154 594q0 70 37.5 125t89.5 55q79 0 79 -92q0 -72 -30 -125q-35 -59 -94 -59q-35 0 -58.5 29.5t-23.5 66.5z" />
<glyph unicode="&#xb8;" horiz-adv-x="335" d="M25 -242q0 25 19 45.5t44 20.5q57 0 57 -57q0 -27 -20 -41h4q59 0 59 57q0 37 -39.5 91t-39.5 93q0 55 40.5 95t110.5 40l16 -82q-63 0 -63 -26q0 -31 44 -86.5t44 -106.5q0 -59 -50 -101t-112 -42q-47 0 -80.5 27.5t-33.5 72.5z" />
<glyph unicode="&#xb9;" horiz-adv-x="456" d="M55 543q178 223 275 454q127 307 239 365q0 6 -8 6q-47 -18 -115 -92q-59 -66 -90 -66q-55 0 -55 68q0 4 25 8q37 6 86 47q102 86 176 86q63 0 63 -41q0 -6 -30 -35q-41 -39 -74 -100q-51 -96 -86 -252q-31 -133 -101.5 -289.5t-97.5 -156.5q-25 0 -27 24.5t-34 24.5 q-25 0 -72 -37t-57 -37q-12 0 -17 23z" />
<glyph unicode="&#xba;" horiz-adv-x="626" d="M86 1006q0 156 125 301q123 139 248 139q78 0 120 -51t42 -129q0 -170 -110 -306.5t-255 -136.5q-170 0 -170 183zM195 948q0 -59 53 -59q102 0 180 145q72 135 72 293q0 51 -35 51q-78 0 -174 -152.5t-96 -277.5z" />
<glyph unicode="&#xbb;" horiz-adv-x="688" d="M139 336l199 164l-131 164l94 79l193 -243l-295 -242zM412 336l198 164l-131 164l94 79l193 -243l-295 -242z" />
<glyph unicode="&#xbc;" horiz-adv-x="1204" d="M-31 12l1071 1424l82 -60l-1071 -1421zM55 543q178 223 275 454q127 307 239 365q0 6 -8 6q-47 -18 -115 -92q-59 -66 -90 -66q-55 0 -55 68q0 4 25 8q37 6 86 47q102 86 176 86q63 0 63 -41q0 -6 -30 -35q-41 -39 -74 -100q-51 -96 -86 -252q-31 -133 -101.5 -289.5 t-97.5 -156.5q-25 0 -27 24.5t-34 24.5q-25 0 -72 -37t-57 -37q-12 0 -17 23zM481 291q0 201 224 383q209 172 397 172q65 0 65 -43q0 -6 -26 -37q-35 -43 -64 -104q-45 -98 -80 -254q-6 -31 -39 -132q33 -14 52 -14q35 0 34 19q0 10 -12 18t-12 29q0 41 45 32q43 -8 41 -59 q-4 -86 -117 -86q-18 0 -51 4q-102 -258 -139 -258q-25 0 -27 24.5t-35 24.5q-25 0 -72 -36.5t-57 -36.5q-12 0 -16 22q102 125 201 303q-55 18 -103 19q-72 0 -149 -93q-59 0 -60 103zM541 262q84 106 217 96q29 -2 73 -18q53 125 109 248q75 165 143 200q16 6 -8 7 q-70 0 -192 -70q-139 -78 -232 -186q-111 -133 -110 -277z" />
<glyph unicode="&#xbd;" horiz-adv-x="1290" d="M-31 12l1071 1424l82 -60l-1071 -1421zM55 543q178 223 275 454q127 307 239 365q0 6 -8 6q-47 -18 -115 -92q-59 -66 -90 -66q-55 0 -55 68q0 4 25 8q37 6 86 47q102 86 176 86q63 0 63 -41q0 -6 -30 -35q-41 -39 -74 -100q-51 -96 -86 -252q-31 -133 -101.5 -289.5 t-97.5 -156.5q-25 0 -27 24.5t-34 24.5q-25 0 -72 -37t-57 -37q-12 0 -17 23zM537 27q0 174 143 270q133 61 266 125q143 70 144 188q0 51 -31 92q-37 49 -94 50q-66 0 -113 -37q-55 -41 -55 -111q0 -27 24 -26q8 0 20.5 9t20.5 9q31 0 31 -59q0 -55 -78 -56q-94 0 -94 123 q0 94 84 153.5t194 55.5q102 -4 168 -67.5t66 -149.5q0 -168 -154 -252q-23 -12 -293 -104q-164 -55 -178 -148q-6 -39 -2 -53q2 -6 6 -4t4 6q0 76 46 115q37 31 102 30q55 0 117.5 -77.5t122.5 -77.5q8 0 32 12q-35 14 -28 49q6 37 53 37q43 0 43 -47q0 -59 -50 -100 t-112 -41q-55 0 -129 63.5t-125 63.5q-23 0 -22 -33q0 -10 6 -26.5t6 -37.5q0 -37 -53 -37q-88 0 -88 93z" />
<glyph unicode="&#xbe;" horiz-adv-x="1275" d="M92 674q-12 76 60 88q25 4 46 -11.5t21 -37.5q0 -31 -22 -51q20 -31 73 -31q117 0 208 90t91 197q0 35 -21.5 67.5t-49.5 26.5q-37 -8 -46.5 -56.5t-48.5 -48.5q-29 0 -51 28t-22 62q0 55 49 99q29 27 109.5 59.5t109.5 54.5q51 39 51 103q0 25 -31.5 43t-66.5 18 q-164 0 -195 -121q18 23 43 11q27 -8 23 -50q-4 -49 -64 -49q-35 0 -59.5 32t-17.5 67q12 76 96 125q78 45 176 45q94 0 167 -45t73 -123q0 -76 -101 -111q-96 -27 -190 -51q-104 -35 -111 -103q0 -18 1 -21t3 -3q4 2 4 6q4 61 58 90q43 23 96 17q68 -8 113 -63.5t45 -123.5 q0 -154 -140 -250q-129 -88 -299 -88q-162 0 -180 109zM205 12l1071 1424l82 -60l-1071 -1421zM717 291q0 201 223 383q209 172 397 172q66 0 66 -43q0 -6 -27 -37q-35 -43 -63 -104q-45 -98 -80 -254q-6 -31 -39 -132q33 -14 51 -14q35 0 35 19q0 10 -12.5 18t-12.5 29 q0 41 45 32q43 -8 41 -59q-4 -86 -116 -86q-18 0 -51 4q-102 -258 -140 -258q-25 0 -26.5 24.5t-34.5 24.5q-25 0 -72 -36.5t-57 -36.5q-12 0 -17 22q102 125 201 303q-55 18 -102 19q-72 0 -150 -93q-59 0 -59 103zM776 262q84 106 217 96q29 -2 74 -18q53 125 109 248 q75 165 143 200q16 6 -8 7q-70 0 -193 -70q-139 -78 -231 -186q-111 -133 -111 -277z" />
<glyph unicode="&#xbf;" horiz-adv-x="696" d="M39 385q0 143 127 250q12 10 237 153q127 80 127 158q0 39 -38.5 72t-38.5 39q0 45 53 45t98 -77t45 -157q0 -121 -119 -231q-111 -86 -221 -174q-119 -104 -119 -217q0 -72 68 -132.5t141 -52.5q-25 29 -24 86q0 37 32.5 66t71.5 29q53 0 87 -36t34 -91q0 -72 -65 -115 q-57 -41 -140 -41q-154 0 -258 131q-98 125 -98 295zM496 1253q0 53 35.5 102.5t89.5 49.5q80 0 79 -98q0 -53 -36 -102.5t-89 -49.5q-80 0 -79 98z" />
<glyph unicode="&#xc0;" horiz-adv-x="1986" d="M23 272q0 29 6 58q80 446 850 446q59 0 125 -2q221 371 352 481q123 104 203 146q109 53 237 53q139 0 232 -86q18 -17 14 -31q-2 -10 -33 -18q-160 -43 -248 -201q-66 -119 -114 -358q121 23 120 102q0 10 -17 25.5t-17 40.5q0 68 57 67q90 0 90 -118 q0 -78 -66.5 -134.5t-187.5 -72.5q-88 -442 -225 -666q-4 -29 -33 -20q-23 6 -17.5 31.5t-9 45t-43.5 19.5q-63 0 -108 -17q-61 -25 -152 -98q-25 -20 -41 6q-16 25 13 35q213 182 395 635q-53 -4 -311 -14q-178 -324 -293 -445q-180 -190 -436 -215q-141 -14 -241.5 77 t-100.5 228zM145 279q0 -102 56 -156q47 -45 118 -45q254 0 590 543q-352 -12 -528 -76q-236 -82 -236 -266zM1169 764q244 -14 279 -14q115 301 164 387q96 176 223 215q-25 4 -39 4q-313 0 -627 -592zM1466 1718q0 55 52 56q27 0 63.5 -37t63.5 -105q8 -24 43 -141 q2 -8 -5 -10q-6 -2 -14 2q-90 70 -125 102q-78 76 -78 133z" />
<glyph unicode="&#xc1;" horiz-adv-x="1986" d="M23 272q0 29 6 58q80 446 850 446q59 0 125 -2q221 371 352 481q123 104 203 146q109 53 237 53q139 0 232 -86q18 -17 14 -31q-2 -10 -33 -18q-160 -43 -248 -201q-66 -119 -114 -358q121 23 120 102q0 10 -17 25.5t-17 40.5q0 68 57 67q90 0 90 -118 q0 -78 -66.5 -134.5t-187.5 -72.5q-88 -442 -225 -666q-4 -29 -33 -20q-23 6 -17.5 31.5t-9 45t-43.5 19.5q-63 0 -108 -17q-61 -25 -152 -98q-25 -20 -41 6q-16 25 13 35q213 182 395 635q-53 -4 -311 -14q-178 -324 -293 -445q-180 -190 -436 -215q-141 -14 -241.5 77 t-100.5 228zM145 279q0 -102 56 -156q47 -45 118 -45q254 0 590 543q-352 -12 -528 -76q-236 -82 -236 -266zM1169 764q244 -14 279 -14q115 301 164 387q96 176 223 215q-25 4 -39 4q-313 0 -627 -592zM1759 1495q-4 6 2 14q70 113 103 152q82 96 145 96q23 0 41 -16 t18 -39q0 -25 -32 -66q-55 -66 -262 -143q-8 -4 -15 2z" />
<glyph unicode="&#xc2;" horiz-adv-x="1986" d="M23 272q0 29 6 58q80 446 850 446q59 0 125 -2q221 371 352 481q123 104 203 146q109 53 237 53q139 0 232 -86q18 -17 14 -31q-2 -10 -33 -18q-160 -43 -248 -201q-66 -119 -114 -358q121 23 120 102q0 10 -17 25.5t-17 40.5q0 68 57 67q90 0 90 -118 q0 -78 -66.5 -134.5t-187.5 -72.5q-88 -442 -225 -666q-4 -29 -33 -20q-23 6 -17.5 31.5t-9 45t-43.5 19.5q-63 0 -108 -17q-61 -25 -152 -98q-25 -20 -41 6q-16 25 13 35q213 182 395 635q-53 -4 -311 -14q-178 -324 -293 -445q-180 -190 -436 -215q-141 -14 -241.5 77 t-100.5 228zM145 279q0 -102 56 -156q47 -45 118 -45q254 0 590 543q-352 -12 -528 -76q-236 -82 -236 -266zM1169 764q244 -14 279 -14q115 301 164 387q96 176 223 215q-25 4 -39 4q-313 0 -627 -592zM1606 1520q0 16 12 26l211 158q25 18 37 14t20 -22l66 -160 q4 -10 4 -18q0 -25 -27 -25q-20 0 -35 18l-59 78l-180 -92q-12 -6 -21 -6q-29 0 -28 29z" />
<glyph unicode="&#xc3;" horiz-adv-x="1986" d="M23 272q0 29 6 58q80 446 850 446q59 0 125 -2q221 371 352 481q123 104 203 146q109 53 237 53q139 0 232 -86q18 -17 14 -31q-2 -10 -33 -18q-160 -43 -248 -201q-66 -119 -114 -358q121 23 120 102q0 10 -17 25.5t-17 40.5q0 68 57 67q90 0 90 -118 q0 -78 -66.5 -134.5t-187.5 -72.5q-88 -442 -225 -666q-4 -29 -33 -20q-23 6 -17.5 31.5t-9 45t-43.5 19.5q-63 0 -108 -17q-61 -25 -152 -98q-25 -20 -41 6q-16 25 13 35q213 182 395 635q-53 -4 -311 -14q-178 -324 -293 -445q-180 -190 -436 -215q-141 -14 -241.5 77 t-100.5 228zM145 279q0 -102 56 -156q47 -45 118 -45q254 0 590 543q-352 -12 -528 -76q-236 -82 -236 -266zM1169 764q244 -14 279 -14q115 301 164 387q96 176 223 215q-25 4 -39 4q-313 0 -627 -592zM1595 1516q55 117 150 124q35 4 81 -18.5t83 -19.5q25 2 69 36 q20 20 39 21q14 0 15 -14q0 -7 -4 -15q-51 -127 -150 -137q-37 -4 -89 17.5t-87 19.5q-27 -2 -64 -29q-18 -12 -30 -12q-25 0 -13 27z" />
<glyph unicode="&#xc4;" horiz-adv-x="1986" d="M23 272q0 29 6 58q80 446 850 446q59 0 125 -2q221 371 352 481q123 104 203 146q109 53 237 53q139 0 232 -86q18 -17 14 -31q-2 -10 -33 -18q-160 -43 -248 -201q-66 -119 -114 -358q121 23 120 102q0 10 -17 25.5t-17 40.5q0 68 57 67q90 0 90 -118 q0 -78 -66.5 -134.5t-187.5 -72.5q-88 -442 -225 -666q-4 -29 -33 -20q-23 6 -17.5 31.5t-9 45t-43.5 19.5q-63 0 -108 -17q-61 -25 -152 -98q-25 -20 -41 6q-16 25 13 35q213 182 395 635q-53 -4 -311 -14q-178 -324 -293 -445q-180 -190 -436 -215q-141 -14 -241.5 77 t-100.5 228zM145 279q0 -102 56 -156q47 -45 118 -45q254 0 590 543q-352 -12 -528 -76q-236 -82 -236 -266zM1169 764q244 -14 279 -14q115 301 164 387q96 176 223 215q-25 4 -39 4q-313 0 -627 -592zM1599 1579q0 49 28 89t63 40q57 0 57 -66q0 -51 -22.5 -92t-65.5 -41 q-59 0 -60 70zM1804 1579q0 49 27 89t63 40q58 0 58 -66q0 -51 -23.5 -92t-66.5 -41q-25 0 -41.5 21.5t-16.5 48.5z" />
<glyph unicode="&#xc5;" horiz-adv-x="1986" d="M23 272q0 29 6 58q80 446 850 446q59 0 125 -2q221 371 352 481q123 104 203 146q109 53 237 53q139 0 232 -86q18 -17 14 -31q-2 -10 -33 -18q-160 -43 -248 -201q-66 -119 -114 -358q121 23 120 102q0 10 -17 25.5t-17 40.5q0 68 57 67q90 0 90 -118 q0 -78 -66.5 -134.5t-187.5 -72.5q-88 -442 -225 -666q-4 -29 -33 -20q-23 6 -17.5 31.5t-9 45t-43.5 19.5q-63 0 -108 -17q-61 -25 -152 -98q-25 -20 -41 6q-16 25 13 35q213 182 395 635q-53 -4 -311 -14q-178 -324 -293 -445q-180 -190 -436 -215q-141 -14 -241.5 77 t-100.5 228zM145 279q0 -102 56 -156q47 -45 118 -45q254 0 590 543q-352 -12 -528 -76q-236 -82 -236 -266zM1169 764q244 -14 279 -14q115 301 164 387q96 176 223 215q-25 4 -39 4q-313 0 -627 -592zM1657 1559q0 66 52 125t106 59q71 0 71 -78q0 -72 -46 -129t-107 -57 q-76 0 -76 80zM1724 1550q0 -14 13 -14q33 0 55.5 45t22.5 92q0 14 -9 15q-25 0 -53.5 -48.5t-28.5 -89.5z" />
<glyph unicode="&#xc6;" horiz-adv-x="2285" d="M23 272q0 29 6 58q80 446 850 446q59 0 125 -2q119 197 174 277q94 133 178 204q123 104 203 146q109 53 237 53q129 0 199 -70q61 16 246 17q106 0 184 -62q88 -69 88 -190q0 -236 -193 -363q-184 -123 -508 -122q-78 0 -118 -2q47 -72 157 -72q16 0 67.5 18.5 t94.5 18.5q86 0 86 -80q0 -59 -69 -88q-70 -18 -140 -37q-186 -53 -309 -170q-137 -129 -147 -297q-6 -98 51 -166t166 -68q147 0 259.5 106.5t112.5 252.5q0 70 -28 119q-35 59 -101 61q-72 2 -137 -56.5t-65 -135.5q0 -29 21.5 -55.5t45.5 -24.5q55 4 43 47q6 2 15 2 q59 0 59 -76q0 -59 -45 -96q-37 -31 -88 -31q-78 0 -123 68q-37 57 -37 135q0 154 119 256q111 100 258 94q117 -4 182 -92q63 -80 56 -191q-14 -211 -168 -350q-145 -135 -355 -149q-201 -14 -334 69q-139 88 -139 248q0 197 168 342q121 104 328 182q115 39 227 78 q8 2 6 6t-8 2q-102 -29 -192 -28q-207 0 -277 137q-10 0 -360 -14q-178 -324 -293 -445q-180 -190 -436 -215q-141 -14 -241.5 77t-100.5 228zM145 279q0 -102 56 -156q47 -45 118 -45q254 0 590 543q-352 -12 -528 -76q-236 -82 -236 -266zM1169 760q59 -4 144 0 q104 6 131 6q0 295 391 586q-25 4 -39 4q-311 0 -627 -596zM1657 780q43 4 129 15q236 25 393 104q197 102 197 262q0 133 -146 133q-266 0 -436 -196q-137 -158 -137 -307v-11z" />
<glyph unicode="&#xc7;" horiz-adv-x="1769" d="M45 262q0 164 115 283q96 100 282 174q94 287 373 498q293 219 619 219q127 0 217 -68q104 -78 104 -215q0 -268 -295 -399q-231 -102 -590 -103q-111 0 -198 -10q-20 -74 -21 -145q0 -158 56 -265q68 -129 196 -129q270 0 486 312q23 31 51 6q25 -23 6 -49 q-84 -156 -209 -258q-158 -127 -334 -127q-68 0 -123 14q-31 -6 -30 -25q0 -31 44 -86t44 -106q0 -59 -50.5 -101t-111.5 -42q-47 0 -81 27.5t-34 72.5q0 25 19.5 45t44.5 20q57 0 57 -57q0 -27 -20 -41h4q59 0 59 57q0 37 -40 91.5t-40 93.5q0 49 33 88q-127 61 -199.5 188 t-72.5 283q0 20 4 70q-233 -90 -234 -263q0 -121 57 -120q10 0 20.5 36.5t53.5 36.5q70 0 70 -86q0 -59 -50.5 -94t-109.5 -35q-82 0 -131 72q-41 61 -41 137zM735 799q209 35 416 69q227 41 330 99q133 74 133 211q0 74 -68 116q-59 37 -137 37q-182 0 -381 -164 q-184 -154 -293 -368z" />
<glyph unicode="&#xc8;" horiz-adv-x="1558" d="M-27 279q0 389 549 501q-4 14 -4 43q0 248 299 441q264 170 514 170q127 0 203 -60q82 -65 82 -188q0 -236 -193 -363q-184 -123 -508 -123q-78 0 -118 -2q47 -72 157 -71q16 0 67.5 18.5t94.5 18.5q86 0 86 -80q0 -59 -69 -88q-70 -18 -140 -37q-186 -53 -309 -170 q-137 -129 -147 -297q-6 -98 51 -166t166 -68q147 0 259.5 106.5t112.5 252.5q0 70 -28 119q-35 59 -101 61q-72 2 -137 -56.5t-65 -136.5q0 -29 21.5 -55t45.5 -24q55 4 43 47q6 2 15 2q59 0 59 -76q0 -59 -45 -96q-37 -31 -88 -31q-78 0 -123 68q-37 57 -37 135 q0 154 119 256q111 100 258 94q117 -4 182 -92q63 -80 55 -191q-14 -211 -167 -350q-145 -135 -355 -149q-201 -14 -334 69q-139 88 -139 248q0 182 141 315q104 96 304 179q139 55 278 108q8 2 6 6t-8 2q-102 -29 -192 -28q-197 0 -277 137q-467 -70 -467 -391 q0 -53 43 -54q8 0 18.5 3.5t22.5 30t43 32.5q63 14 64 -94q0 -68 -40 -101.5t-94 -33.5q-76 0 -125 60t-49 149zM760 817q33 4 129 14q236 25 393 105q197 102 197 262q0 131 -160 131q-31 0 -68 -6q-154 -27 -311 -168q-180 -160 -180 -332v-6zM993 1718q0 55 51 56 q27 0 64 -37t63 -105q8 -24 43 -141q2 -8 -4 -10t-14 2q-90 70 -125 102q-78 76 -78 133z" />
<glyph unicode="&#xc9;" horiz-adv-x="1558" d="M-27 279q0 389 549 501q-4 14 -4 43q0 248 299 441q264 170 514 170q127 0 203 -60q82 -65 82 -188q0 -236 -193 -363q-184 -123 -508 -123q-78 0 -118 -2q47 -72 157 -71q16 0 67.5 18.5t94.5 18.5q86 0 86 -80q0 -59 -69 -88q-70 -18 -140 -37q-186 -53 -309 -170 q-137 -129 -147 -297q-6 -98 51 -166t166 -68q147 0 259.5 106.5t112.5 252.5q0 70 -28 119q-35 59 -101 61q-72 2 -137 -56.5t-65 -136.5q0 -29 21.5 -55t45.5 -24q55 4 43 47q6 2 15 2q59 0 59 -76q0 -59 -45 -96q-37 -31 -88 -31q-78 0 -123 68q-37 57 -37 135 q0 154 119 256q111 100 258 94q117 -4 182 -92q63 -80 55 -191q-14 -211 -167 -350q-145 -135 -355 -149q-201 -14 -334 69q-139 88 -139 248q0 182 141 315q104 96 304 179q139 55 278 108q8 2 6 6t-8 2q-102 -29 -192 -28q-197 0 -277 137q-467 -70 -467 -391 q0 -53 43 -54q8 0 18.5 3.5t22.5 30t43 32.5q63 14 64 -94q0 -68 -40 -101.5t-94 -33.5q-76 0 -125 60t-49 149zM760 817q33 4 129 14q236 25 393 105q197 102 197 262q0 131 -160 131q-31 0 -68 -6q-154 -27 -311 -168q-180 -160 -180 -332v-6zM1186 1495q-4 6 2 14 q70 113 102 152q82 96 146 96q23 0 41 -16t18 -39q0 -25 -33 -66q-55 -66 -262 -143q-8 -4 -14 2z" />
<glyph unicode="&#xca;" horiz-adv-x="1558" d="M-27 279q0 389 549 501q-4 14 -4 43q0 248 299 441q264 170 514 170q127 0 203 -60q82 -65 82 -188q0 -236 -193 -363q-184 -123 -508 -123q-78 0 -118 -2q47 -72 157 -71q16 0 67.5 18.5t94.5 18.5q86 0 86 -80q0 -59 -69 -88q-70 -18 -140 -37q-186 -53 -309 -170 q-137 -129 -147 -297q-6 -98 51 -166t166 -68q147 0 259.5 106.5t112.5 252.5q0 70 -28 119q-35 59 -101 61q-72 2 -137 -56.5t-65 -136.5q0 -29 21.5 -55t45.5 -24q55 4 43 47q6 2 15 2q59 0 59 -76q0 -59 -45 -96q-37 -31 -88 -31q-78 0 -123 68q-37 57 -37 135 q0 154 119 256q111 100 258 94q117 -4 182 -92q63 -80 55 -191q-14 -211 -167 -350q-145 -135 -355 -149q-201 -14 -334 69q-139 88 -139 248q0 182 141 315q104 96 304 179q139 55 278 108q8 2 6 6t-8 2q-102 -29 -192 -28q-197 0 -277 137q-467 -70 -467 -391 q0 -53 43 -54q8 0 18.5 3.5t22.5 30t43 32.5q63 14 64 -94q0 -68 -40 -101.5t-94 -33.5q-76 0 -125 60t-49 149zM760 817q33 4 129 14q236 25 393 105q197 102 197 262q0 131 -160 131q-31 0 -68 -6q-154 -27 -311 -168q-180 -160 -180 -332v-6zM1161 1520q0 16 13 26 l210 158q25 18 37 14t21 -22l65 -160q4 -10 4 -18q0 -25 -26 -25q-20 0 -35 18l-59 78l-181 -92q-12 -6 -20 -6q-29 0 -29 29z" />
<glyph unicode="&#xcb;" horiz-adv-x="1558" d="M-27 279q0 389 549 501q-4 14 -4 43q0 248 299 441q264 170 514 170q127 0 203 -60q82 -65 82 -188q0 -236 -193 -363q-184 -123 -508 -123q-78 0 -118 -2q47 -72 157 -71q16 0 67.5 18.5t94.5 18.5q86 0 86 -80q0 -59 -69 -88q-70 -18 -140 -37q-186 -53 -309 -170 q-137 -129 -147 -297q-6 -98 51 -166t166 -68q147 0 259.5 106.5t112.5 252.5q0 70 -28 119q-35 59 -101 61q-72 2 -137 -56.5t-65 -136.5q0 -29 21.5 -55t45.5 -24q55 4 43 47q6 2 15 2q59 0 59 -76q0 -59 -45 -96q-37 -31 -88 -31q-78 0 -123 68q-37 57 -37 135 q0 154 119 256q111 100 258 94q117 -4 182 -92q63 -80 55 -191q-14 -211 -167 -350q-145 -135 -355 -149q-201 -14 -334 69q-139 88 -139 248q0 182 141 315q104 96 304 179q139 55 278 108q8 2 6 6t-8 2q-102 -29 -192 -28q-197 0 -277 137q-467 -70 -467 -391 q0 -53 43 -54q8 0 18.5 3.5t22.5 30t43 32.5q63 14 64 -94q0 -68 -40 -101.5t-94 -33.5q-76 0 -125 60t-49 149zM760 817q33 4 129 14q236 25 393 105q197 102 197 262q0 131 -160 131q-31 0 -68 -6q-154 -27 -311 -168q-180 -160 -180 -332v-6zM1112 1579q0 49 27.5 89 t62.5 40q58 0 58 -66q0 -51 -23 -92t-66 -41q-59 0 -59 70zM1317 1579q0 49 26.5 89t63.5 40q57 0 57 -66q0 -51 -23.5 -92t-66.5 -41q-25 0 -41 21.5t-16 48.5z" />
<glyph unicode="&#xcc;" horiz-adv-x="1492" d="M61 752q0 301 217.5 512t522.5 211q111 0 297 -55.5t262 -55.5q41 0 101.5 18.5t99.5 18.5q65 0 69 -29q4 -23 -31 -45q-57 -39 -59 -41q-150 -139 -375 -768q-106 -297 -297 -430q-182 -129 -475 -129q-123 0 -215 55q-104 63 -104 166q0 49 23.5 88t66.5 39 q33 0 59.5 -21.5t26.5 -52.5q0 -43 -33 -61t-33 -29q0 -82 164 -82q201 0 354 168q88 96 240 365q86 176 170 354q123 219 330 342q-16 0 -55 -8t-66 -8q-76 0 -272.5 27.5t-286.5 27.5q-238 0 -422 -185.5t-184 -426.5q0 -119 59 -207q66 -98 170 -98q137 0 229 131 q86 121 86 274q0 180 -118 180q-86 0 -141.5 -68.5t-55.5 -160.5q0 -82 43 -82q12 0 23.5 19.5t25.5 19.5q23 0 33 -24.5t6 -53.5q-6 -43 -39 -70.5t-76 -27.5q-61 0 -98 61q-31 55 -31 129q0 145 110 266t251 121q106 0 165.5 -67.5t63.5 -184.5q6 -221 -133 -389 q-143 -174 -350 -174q-147 0 -238 142q-80 125 -80 299zM1094 1718q0 55 51 56q27 0 63.5 -37t63.5 -105q8 -24 43 -141q2 -8 -4 -10t-15 2q-90 70 -125 102q-78 76 -77 133z" />
<glyph unicode="&#xcd;" horiz-adv-x="1492" d="M61 752q0 301 217.5 512t522.5 211q111 0 297 -55.5t262 -55.5q41 0 101.5 18.5t99.5 18.5q65 0 69 -29q4 -23 -31 -45q-57 -39 -59 -41q-150 -139 -375 -768q-106 -297 -297 -430q-182 -129 -475 -129q-123 0 -215 55q-104 63 -104 166q0 49 23.5 88t66.5 39 q33 0 59.5 -21.5t26.5 -52.5q0 -43 -33 -61t-33 -29q0 -82 164 -82q201 0 354 168q88 96 240 365q86 176 170 354q123 219 330 342q-16 0 -55 -8t-66 -8q-76 0 -272.5 27.5t-286.5 27.5q-238 0 -422 -185.5t-184 -426.5q0 -119 59 -207q66 -98 170 -98q137 0 229 131 q86 121 86 274q0 180 -118 180q-86 0 -141.5 -68.5t-55.5 -160.5q0 -82 43 -82q12 0 23.5 19.5t25.5 19.5q23 0 33 -24.5t6 -53.5q-6 -43 -39 -70.5t-76 -27.5q-61 0 -98 61q-31 55 -31 129q0 145 110 266t251 121q106 0 165.5 -67.5t63.5 -184.5q6 -221 -133 -389 q-143 -174 -350 -174q-147 0 -238 142q-80 125 -80 299zM1272 1495q-4 6 2 14q70 113 102 152q82 96 146 96q23 0 41 -16t18 -39q0 -25 -33 -66q-55 -66 -262 -143q-8 -4 -14 2z" />
<glyph unicode="&#xce;" horiz-adv-x="1492" d="M61 752q0 301 217.5 512t522.5 211q111 0 297 -55.5t262 -55.5q41 0 101.5 18.5t99.5 18.5q65 0 69 -29q4 -23 -31 -45q-57 -39 -59 -41q-150 -139 -375 -768q-106 -297 -297 -430q-182 -129 -475 -129q-123 0 -215 55q-104 63 -104 166q0 49 23.5 88t66.5 39 q33 0 59.5 -21.5t26.5 -52.5q0 -43 -33 -61t-33 -29q0 -82 164 -82q201 0 354 168q88 96 240 365q86 176 170 354q123 219 330 342q-16 0 -55 -8t-66 -8q-76 0 -272.5 27.5t-286.5 27.5q-238 0 -422 -185.5t-184 -426.5q0 -119 59 -207q66 -98 170 -98q137 0 229 131 q86 121 86 274q0 180 -118 180q-86 0 -141.5 -68.5t-55.5 -160.5q0 -82 43 -82q12 0 23.5 19.5t25.5 19.5q23 0 33 -24.5t6 -53.5q-6 -43 -39 -70.5t-76 -27.5q-61 0 -98 61q-31 55 -31 129q0 145 110 266t251 121q106 0 165.5 -67.5t63.5 -184.5q6 -221 -133 -389 q-143 -174 -350 -174q-147 0 -238 142q-80 125 -80 299zM1219 1520q0 16 12 26l211 158q25 18 37 14t20 -22l66 -160q4 -10 4 -18q0 -25 -27 -25q-20 0 -35 18l-59 78l-180 -92q-12 -6 -21 -6q-29 0 -28 29z" />
<glyph unicode="&#xcf;" horiz-adv-x="1492" d="M61 752q0 301 217.5 512t522.5 211q111 0 297 -55.5t262 -55.5q41 0 101.5 18.5t99.5 18.5q65 0 69 -29q4 -23 -31 -45q-57 -39 -59 -41q-150 -139 -375 -768q-106 -297 -297 -430q-182 -129 -475 -129q-123 0 -215 55q-104 63 -104 166q0 49 23.5 88t66.5 39 q33 0 59.5 -21.5t26.5 -52.5q0 -43 -33 -61t-33 -29q0 -82 164 -82q201 0 354 168q88 96 240 365q86 176 170 354q123 219 330 342q-16 0 -55 -8t-66 -8q-76 0 -272.5 27.5t-286.5 27.5q-238 0 -422 -185.5t-184 -426.5q0 -119 59 -207q66 -98 170 -98q137 0 229 131 q86 121 86 274q0 180 -118 180q-86 0 -141.5 -68.5t-55.5 -160.5q0 -82 43 -82q12 0 23.5 19.5t25.5 19.5q23 0 33 -24.5t6 -53.5q-6 -43 -39 -70.5t-76 -27.5q-61 0 -98 61q-31 55 -31 129q0 145 110 266t251 121q106 0 165.5 -67.5t63.5 -184.5q6 -221 -133 -389 q-143 -174 -350 -174q-147 0 -238 142q-80 125 -80 299zM1141 1579q0 49 27.5 89t62.5 40q57 0 57 -66q0 -51 -22.5 -92t-65.5 -41q-59 0 -59 70zM1346 1579q0 49 26.5 89t63.5 40q57 0 57 -66q0 -51 -23.5 -92t-66.5 -41q-25 0 -41 21.5t-16 48.5z" />
<glyph unicode="&#xd0;" horiz-adv-x="1658" d="M-6 676q0 326 268 555q262 225 617 225q274 0 450 -131q92 59 189 59q41 0 75.5 -28.5t34.5 -67.5q0 -37 -21.5 -65.5t-54.5 -28.5q-59 0 -59 47q0 6 4 27q2 12 -2 18t-22 6q-37 0 -72 -30q88 -92 149 -244q72 -176 72 -363q0 -283 -152 -481q-164 -215 -423 -215 q-63 0 -119 9t-109 9q-104 0 -250 -49q-25 -20 -49 9q-18 23 6 49q141 152 324 551h-96q-68 -109 -170 -175q-111 -70 -234 -69q-147 0 -251.5 114.5t-104.5 268.5zM180 653q0 -98 51 -174q55 -82 140 -82q125 0 215 129q82 119 82 260q0 160 -93 160q-82 0 -138 -51 t-56 -139q0 -12 54 -37t54 -88q0 -31 -26.5 -54.5t-61.5 -23.5q-57 0 -90 63q-29 53 -28 127q0 150 112 271q106 115 226 114q219 0 219 -317q0 -88 -35 -176h90q113 246 160 338q92 176 176 272q-129 102 -336 103q-287 0 -501 -208t-214 -487zM901 90q98 -12 133 -12 q162 0 266 227q93 199 93 445q0 106 -23 231q-23 119 -49 162q-82 -283 -162 -508h168l-20 -98h-185q-115 -289 -221 -447z" />
<glyph unicode="&#xd1;" d="M-2 639q18 354 284.5 591.5t624.5 237.5q201 0 322 -133q115 -131 117 -336q0 -84 -52 -249q-16 -51 -127 -367q-6 -20 15 -21q12 0 14 15q82 227 164 452q94 248 178 367q106 152 227 152q84 0 144.5 -80t60.5 -209q0 -26 -2 -55q-14 -135 -102 -283l-156 -242 q-80 -139 -80 -268q0 -94 45 -94q41 0 72 69.5t68 69.5q41 0 40 -78q0 -76 -61 -134t-143 -58q-180 0 -181 274q0 147 82 322l152 278q82 152 82 250q0 59 -2 74q-8 41 -39 41q-137 0 -318 -447q-133 -352 -264 -704q-10 -20 -20 -35q-27 -37 -53 -37l-191 -4 q-29 0 -59.5 -20.5t-42.5 -20.5q-37 0 -23 49q53 190 234 563q137 285 137 463q0 328 -234 328q-295 0 -515 -235.5t-220 -530.5q0 -129 54.5 -214t129.5 -85q123 0 209 125q80 115 80 252q0 143 -88 155q-76 10 -130 -45t-54 -145q0 -10 50 -31.5t50 -83.5 q0 -33 -26.5 -56.5t-59.5 -19.5q-111 12 -110 185q0 145 102 256q96 106 211 106q139 0 199 -108q43 -82 36 -201q-10 -184 -147 -336q-147 -162 -340 -155q-150 4 -252 128.5t-92 317.5zM1409 1516q55 117 150 124q35 4 81 -18.5t82 -19.5q25 2 70 36q20 20 39 21 q14 0 14 -14q0 -7 -4 -15q-51 -127 -149 -137q-37 -4 -89.5 17.5t-86.5 19.5q-27 -2 -64 -29q-18 -12 -31 -12q-25 0 -12 27z" />
<glyph unicode="&#xd2;" horiz-adv-x="1761" d="M16 262q0 164 115 283q96 100 283 174q94 287 372 498q293 219 619 219q127 0 217 -68q104 -78 104 -215q0 -82 -24 -145q18 -51 18 -109q0 -311 -161 -539q-133 -184 -351 -288q-180 -86 -334 -86q-223 0 -362 155q-135 150 -135 367q0 20 4 70q-238 -92 -238 -277 q0 -106 62 -106q10 0 20.5 36.5t53.5 36.5q70 0 69 -86q0 -59 -50 -94t-110 -35q-82 0 -131 72q-41 61 -41 137zM623 496q0 -158 55 -265q68 -129 196 -129q182 0 383 191q232 217 248 514q-190 -135 -549 -154q-6 -23 -6 -55q0 -86 45 -86q16 0 37 18.5t33 18.5 q66 0 65 -90q0 -51 -46 -82t-101 -25q-82 10 -123 88q-37 66 -37 162v49q-100 0 -180 -10q-20 -74 -20 -145zM707 799l172 30q74 162 227.5 265.5t323.5 109.5q94 4 155 -41v15q0 74 -67 116q-59 37 -138 37q-182 0 -381 -164q-184 -154 -292 -368zM1030 852q332 53 449 131 q-27 74 -95 74q-229 0 -354 -205zM1108 1718q0 55 51 56q27 0 64 -37t63 -105q8 -24 43 -141q2 -8 -4 -10t-14 2q-90 70 -125 102q-78 76 -78 133z" />
<glyph unicode="&#xd3;" horiz-adv-x="1761" d="M16 262q0 164 115 283q96 100 283 174q94 287 372 498q293 219 619 219q127 0 217 -68q104 -78 104 -215q0 -82 -24 -145q18 -51 18 -109q0 -311 -161 -539q-133 -184 -351 -288q-180 -86 -334 -86q-223 0 -362 155q-135 150 -135 367q0 20 4 70q-238 -92 -238 -277 q0 -106 62 -106q10 0 20.5 36.5t53.5 36.5q70 0 69 -86q0 -59 -50 -94t-110 -35q-82 0 -131 72q-41 61 -41 137zM623 496q0 -158 55 -265q68 -129 196 -129q182 0 383 191q232 217 248 514q-190 -135 -549 -154q-6 -23 -6 -55q0 -86 45 -86q16 0 37 18.5t33 18.5 q66 0 65 -90q0 -51 -46 -82t-101 -25q-82 10 -123 88q-37 66 -37 162v49q-100 0 -180 -10q-20 -74 -20 -145zM707 799l172 30q74 162 227.5 265.5t323.5 109.5q94 4 155 -41v15q0 74 -67 116q-59 37 -138 37q-182 0 -381 -164q-184 -154 -292 -368zM1030 852q332 53 449 131 q-27 74 -95 74q-229 0 -354 -205zM1286 1495q-4 6 2 14q70 113 103 152q82 96 145 96q23 0 41 -16t18 -39q0 -25 -32 -66q-55 -66 -263 -143q-8 -4 -14 2z" />
<glyph unicode="&#xd4;" horiz-adv-x="1761" d="M16 262q0 164 115 283q96 100 283 174q94 287 372 498q293 219 619 219q127 0 217 -68q104 -78 104 -215q0 -82 -24 -145q18 -51 18 -109q0 -311 -161 -539q-133 -184 -351 -288q-180 -86 -334 -86q-223 0 -362 155q-135 150 -135 367q0 20 4 70q-238 -92 -238 -277 q0 -106 62 -106q10 0 20.5 36.5t53.5 36.5q70 0 69 -86q0 -59 -50 -94t-110 -35q-82 0 -131 72q-41 61 -41 137zM623 496q0 -158 55 -265q68 -129 196 -129q182 0 383 191q232 217 248 514q-190 -135 -549 -154q-6 -23 -6 -55q0 -86 45 -86q16 0 37 18.5t33 18.5 q66 0 65 -90q0 -51 -46 -82t-101 -25q-82 10 -123 88q-37 66 -37 162v49q-100 0 -180 -10q-20 -74 -20 -145zM707 799l172 30q74 162 227.5 265.5t323.5 109.5q94 4 155 -41v15q0 74 -67 116q-59 37 -138 37q-182 0 -381 -164q-184 -154 -292 -368zM1030 852q332 53 449 131 q-27 74 -95 74q-229 0 -354 -205zM1219 1520q0 16 12 26l211 158q25 18 37 14t20 -22l66 -160q4 -10 4 -18q0 -25 -27 -25q-20 0 -35 18l-59 78l-180 -92q-12 -6 -21 -6q-29 0 -28 29z" />
<glyph unicode="&#xd5;" horiz-adv-x="1761" d="M16 262q0 164 115 283q96 100 283 174q94 287 372 498q293 219 619 219q127 0 217 -68q104 -78 104 -215q0 -82 -24 -145q18 -51 18 -109q0 -311 -161 -539q-133 -184 -351 -288q-180 -86 -334 -86q-223 0 -362 155q-135 150 -135 367q0 20 4 70q-238 -92 -238 -277 q0 -106 62 -106q10 0 20.5 36.5t53.5 36.5q70 0 69 -86q0 -59 -50 -94t-110 -35q-82 0 -131 72q-41 61 -41 137zM623 496q0 -158 55 -265q68 -129 196 -129q182 0 383 191q232 217 248 514q-190 -135 -549 -154q-6 -23 -6 -55q0 -86 45 -86q16 0 37 18.5t33 18.5 q66 0 65 -90q0 -51 -46 -82t-101 -25q-82 10 -123 88q-37 66 -37 162v49q-100 0 -180 -10q-20 -74 -20 -145zM707 799l172 30q74 162 227.5 265.5t323.5 109.5q94 4 155 -41v15q0 74 -67 116q-59 37 -138 37q-182 0 -381 -164q-184 -154 -292 -368zM1030 852q332 53 449 131 q-27 74 -95 74q-229 0 -354 -205zM1194 1516q55 117 149 124q35 4 81 -18.5t83 -19.5q25 2 70 36q20 20 39 21q14 0 14 -14q0 -7 -4 -15q-51 -127 -149 -137q-37 -4 -89.5 17.5t-87.5 19.5q-27 -2 -63 -29q-18 -12 -31 -12q-25 0 -12 27z" />
<glyph unicode="&#xd6;" horiz-adv-x="1761" d="M16 262q0 164 115 283q96 100 283 174q94 287 372 498q293 219 619 219q127 0 217 -68q104 -78 104 -215q0 -82 -24 -145q18 -51 18 -109q0 -311 -161 -539q-133 -184 -351 -288q-180 -86 -334 -86q-223 0 -362 155q-135 150 -135 367q0 20 4 70q-238 -92 -238 -277 q0 -106 62 -106q10 0 20.5 36.5t53.5 36.5q70 0 69 -86q0 -59 -50 -94t-110 -35q-82 0 -131 72q-41 61 -41 137zM623 496q0 -158 55 -265q68 -129 196 -129q182 0 383 191q232 217 248 514q-190 -135 -549 -154q-6 -23 -6 -55q0 -86 45 -86q16 0 37 18.5t33 18.5 q66 0 65 -90q0 -51 -46 -82t-101 -25q-82 10 -123 88q-37 66 -37 162v49q-100 0 -180 -10q-20 -74 -20 -145zM707 799l172 30q74 162 227.5 265.5t323.5 109.5q94 4 155 -41v15q0 74 -67 116q-59 37 -138 37q-182 0 -381 -164q-184 -154 -292 -368zM1030 852q332 53 449 131 q-27 74 -95 74q-229 0 -354 -205zM1227 1579q0 49 27.5 89t62.5 40q57 0 57 -66q0 -51 -22.5 -92t-65.5 -41q-59 0 -59 70zM1432 1579q0 49 26.5 89t63.5 40q57 0 57 -66q0 -51 -23.5 -92t-66.5 -41q-25 0 -41 21.5t-16 48.5z" />
<glyph unicode="&#xd7;" horiz-adv-x="442" d="M41 481l162 135l-107 134l86 73l107 -135l164 135l57 -73l-164 -134l105 -135l-86 -71l-107 133l-160 -133z" />
<glyph unicode="&#xd8;" horiz-adv-x="1538" d="M49 43q0 129 148 281q-2 16 -2 77q0 231 135 469q127 221 325.5 372t382.5 161q197 12 320 -199q70 119 69 197q0 10 -14 31.5t-27 25.5q-18 -4 -35.5 6.5t-17.5 26.5q0 61 70 61q53 0 80 -55q22 -45 22 -106q0 -139 -119 -289q6 -57 7 -96q0 -387 -250 -696.5 t-580 -309.5q-258 0 -354 244q-84 -111 -84 -172q0 -49 29 -88q70 6 69 -60q0 -51 -55 -51q-53 0 -86 52t-33 118zM410 270q0 -63 36.5 -112t98.5 -49q158 0 317.5 209.5t257.5 537.5q-162 -117 -379 -252q-303 -184 -319 -196q-12 -70 -12 -138zM457 535q250 156 684 452 q12 115 12 160q0 53 -27.5 98t-70.5 45q-119 0 -300.5 -225t-297.5 -530z" />
<glyph unicode="&#xd9;" d="M10 565q0 352 271.5 627.5t625.5 275.5q211 0 350 -112q145 -121 146 -316q0 -156 -103 -340q-20 -39 -186 -290q-102 -152 -102 -230q0 -66 45 -65q150 0 373 428q123 233 307 690q23 57 57 57h94q18 0 45 12.5t41 12.5q39 0 33 -37q-84 -264 -268 -694 q-154 -362 -154 -396q0 -41 4 -53q6 -23 37 -22q55 0 88 43q14 20 39 82q16 43 35 43q37 0 37 -70q0 -80 -78 -154.5t-172 -74.5q-158 0 -158 170q0 55 115 317q170 389 229 547q6 14 -6 16q-10 2 -16 -12q-94 -217 -187 -432q-127 -274 -239 -416q-150 -184 -305 -184 q-106 0 -176 54t-70 146q0 123 112 320q102 164 207 330q109 180 107 266q-8 256 -277 256q-285 0 -514 -273q-221 -262 -221 -544q0 -94 49 -168q55 -80 135 -80q123 0 209 125q80 115 80 252q0 131 -88 155q-16 4 -35 4q-68 0 -114.5 -61t-38.5 -139q2 -10 53 -28.5 t51 -80.5q0 -76 -74 -76q-57 0 -94 62q-33 53 -33 123q0 145 98.5 251.5t213.5 106.5q213 0 213 -309q0 -182 -129 -330q-137 -158 -330 -157q-141 0 -236.5 111.5t-95.5 260.5zM1323 1718q0 55 51 56q27 0 64 -37t63 -105q8 -24 43 -141q2 -8 -4 -10t-14 2q-90 70 -125 102 q-78 76 -78 133z" />
<glyph unicode="&#xda;" d="M10 565q0 352 271.5 627.5t625.5 275.5q211 0 350 -112q145 -121 146 -316q0 -156 -103 -340q-20 -39 -186 -290q-102 -152 -102 -230q0 -66 45 -65q150 0 373 428q123 233 307 690q23 57 57 57h94q18 0 45 12.5t41 12.5q39 0 33 -37q-84 -264 -268 -694 q-154 -362 -154 -396q0 -41 4 -53q6 -23 37 -22q55 0 88 43q14 20 39 82q16 43 35 43q37 0 37 -70q0 -80 -78 -154.5t-172 -74.5q-158 0 -158 170q0 55 115 317q170 389 229 547q6 14 -6 16q-10 2 -16 -12q-94 -217 -187 -432q-127 -274 -239 -416q-150 -184 -305 -184 q-106 0 -176 54t-70 146q0 123 112 320q102 164 207 330q109 180 107 266q-8 256 -277 256q-285 0 -514 -273q-221 -262 -221 -544q0 -94 49 -168q55 -80 135 -80q123 0 209 125q80 115 80 252q0 131 -88 155q-16 4 -35 4q-68 0 -114.5 -61t-38.5 -139q2 -10 53 -28.5 t51 -80.5q0 -76 -74 -76q-57 0 -94 62q-33 53 -33 123q0 145 98.5 251.5t213.5 106.5q213 0 213 -309q0 -182 -129 -330q-137 -158 -330 -157q-141 0 -236.5 111.5t-95.5 260.5zM1544 1495q-4 6 2 14q70 113 103 152q82 96 145 96q23 0 41 -16t18 -39q0 -25 -32 -66 q-55 -66 -262 -143q-8 -4 -15 2z" />
<glyph unicode="&#xdb;" d="M10 565q0 352 271.5 627.5t625.5 275.5q211 0 350 -112q145 -121 146 -316q0 -156 -103 -340q-20 -39 -186 -290q-102 -152 -102 -230q0 -66 45 -65q150 0 373 428q123 233 307 690q23 57 57 57h94q18 0 45 12.5t41 12.5q39 0 33 -37q-84 -264 -268 -694 q-154 -362 -154 -396q0 -41 4 -53q6 -23 37 -22q55 0 88 43q14 20 39 82q16 43 35 43q37 0 37 -70q0 -80 -78 -154.5t-172 -74.5q-158 0 -158 170q0 55 115 317q170 389 229 547q6 14 -6 16q-10 2 -16 -12q-94 -217 -187 -432q-127 -274 -239 -416q-150 -184 -305 -184 q-106 0 -176 54t-70 146q0 123 112 320q102 164 207 330q109 180 107 266q-8 256 -277 256q-285 0 -514 -273q-221 -262 -221 -544q0 -94 49 -168q55 -80 135 -80q123 0 209 125q80 115 80 252q0 131 -88 155q-16 4 -35 4q-68 0 -114.5 -61t-38.5 -139q2 -10 53 -28.5 t51 -80.5q0 -76 -74 -76q-57 0 -94 62q-33 53 -33 123q0 145 98.5 251.5t213.5 106.5q213 0 213 -309q0 -182 -129 -330q-137 -158 -330 -157q-141 0 -236.5 111.5t-95.5 260.5zM1434 1520q0 16 12 26l211 158q25 18 37 14t20 -22l66 -160q4 -10 4 -18q0 -25 -27 -25 q-20 0 -35 18l-59 78l-180 -92q-12 -6 -21 -6q-29 0 -28 29z" />
<glyph unicode="&#xdc;" d="M10 565q0 352 271.5 627.5t625.5 275.5q211 0 350 -112q145 -121 146 -316q0 -156 -103 -340q-20 -39 -186 -290q-102 -152 -102 -230q0 -66 45 -65q150 0 373 428q123 233 307 690q23 57 57 57h94q18 0 45 12.5t41 12.5q39 0 33 -37q-84 -264 -268 -694 q-154 -362 -154 -396q0 -41 4 -53q6 -23 37 -22q55 0 88 43q14 20 39 82q16 43 35 43q37 0 37 -70q0 -80 -78 -154.5t-172 -74.5q-158 0 -158 170q0 55 115 317q170 389 229 547q6 14 -6 16q-10 2 -16 -12q-94 -217 -187 -432q-127 -274 -239 -416q-150 -184 -305 -184 q-106 0 -176 54t-70 146q0 123 112 320q102 164 207 330q109 180 107 266q-8 256 -277 256q-285 0 -514 -273q-221 -262 -221 -544q0 -94 49 -168q55 -80 135 -80q123 0 209 125q80 115 80 252q0 131 -88 155q-16 4 -35 4q-68 0 -114.5 -61t-38.5 -139q2 -10 53 -28.5 t51 -80.5q0 -76 -74 -76q-57 0 -94 62q-33 53 -33 123q0 145 98.5 251.5t213.5 106.5q213 0 213 -309q0 -182 -129 -330q-137 -158 -330 -157q-141 0 -236.5 111.5t-95.5 260.5zM1442 1550q0 49 27.5 89t62.5 40q57 1 57 -65q0 -51 -22.5 -92t-65.5 -41q-59 0 -59 69z M1647 1550q0 49 26.5 89t63.5 40q57 1 57 -65q0 -51 -23.5 -92t-66.5 -41q-25 0 -41 21.5t-16 47.5z" />
<glyph unicode="&#xdd;" d="M23 590q0 348 279.5 613t637.5 265q211 0 350 -112q145 -121 146 -316q0 -156 -103 -340q-20 -39 -186 -290q-102 -152 -103 -230q0 -66 46 -65q96 0 264 286q131 244 260 488q86 160 186 266q127 135 236 135q106 1 106 -69q0 -8 -65 -66q-80 -70 -133 -174 q-82 -158 -117 -403q-55 -395 -238 -652q-256 -360 -721 -360q-121 0 -215 57q-104 66 -104 168q0 49 23.5 88t66.5 39q33 0 59.5 -21.5t26.5 -52.5q0 -43 -33 -61.5t-33 -28.5q0 -82 164 -82q311 0 543 357q125 188 256 561q70 197 166 356q100 170 192 234q16 10 5 16 q-12 4 -31 -6q-133 -76 -264 -318q-45 -82 -187 -405q-106 -238 -188 -338q-119 -141 -275 -141q-100 0 -151 75q-45 66 -45 170q0 43 8 86q27 152 125 320q82 127 164 255t80 210q-8 256 -277 256q-285 0 -514 -273q-221 -262 -221 -544q0 -94 49 -168q55 -80 135 -80 q123 0 209 125q80 115 80 252q0 131 -88 155q-16 4 -35 4q-68 0 -115 -61t-38 -139q2 -10 53 -28.5t51 -80.5q0 -76 -74 -76q-57 0 -94 62q-33 53 -33 123q0 145 98.5 251.5t213.5 106.5q213 0 213 -309q0 -182 -129 -330q-137 -158 -330 -157q-150 0 -248 106 q-104 113 -104 291zM1602 1495q-4 6 2 14q70 113 102 152q82 96 145 96q23 0 41.5 -16t18.5 -39q0 -25 -33 -66q-55 -66 -262 -143q-8 -4 -14 2z" />
<glyph unicode="&#xde;" horiz-adv-x="1656" d="M47 541q0 262 249 443t599 181q248 0 408 -92q229 281 393 295q47 4 78.5 -19.5t31.5 -58.5q0 -29 -21.5 -52.5t-53.5 -23.5q-59 0 -60 39q0 6 4 21q2 10 -2 15t-22 5q-45 0 -131 -110q-57 -82 -117 -164q229 -193 229 -436q0 -164 -149 -258q-113 -72 -230 -72 q-109 0 -184 22q-66 -174 -172 -313q-16 -23 -35 -16q-23 2 -18 24q2 6 2 15q0 43 -51 43q-104 0 -224 -76q-31 -20 -43 4q-12 16 9 31q158 137 362 481q233 395 348 526q-127 82 -336 82q-287 0 -500.5 -166t-213.5 -389q0 -78 53 -141.5t137 -63.5q125 0 215 103 q82 94 82 209q0 129 -92 129q-78 0 -126 -45t-48 -119q0 -8 44 -22.5t44 -67.5q0 -25 -26.5 -43.5t-61.5 -18.5q-57 0 -90 52q-29 43 -29 100q0 121 104 209q98 86 218 86q219 0 219 -254q0 -150 -133 -270q-141 -131 -340 -132q-143 0 -234 95q-86 88 -86 213zM1104 348 q35 -12 110 -12q63 0 123 47q88 69 88 219q0 82 -32 189q-31 94 -60 131q-109 -205 -229 -574z" />
<glyph unicode="&#xdf;" horiz-adv-x="1247" d="M-510 -170q0 43 26.5 77t65.5 34q35 0 60.5 -23.5t25.5 -56.5q0 -70 -55 -92q74 -37 98 -37q160 0 273 162q86 119 174 389q78 236 155 473h-129l43 102h127q106 250 240 377q164 156 395 156q88 0 170 -74t82 -172q0 -123 -145 -215q-133 -68 -269 -135 q-145 -72 -145 -148q0 -47 92 -80q145 -55 172 -71q92 -59 92 -162q0 -143 -127 -236q-119 -84 -278 -84q-92 0 -166 57.5t-74 139.5q0 39 35 68.5t76 29.5q43 0 76.5 -21.5t33.5 -58.5q0 -59 -79 -92q43 -43 98 -43q88 0 166 45q92 55 92 144q0 51 -80 86q-139 57 -152 65 q-80 51 -79 148q0 23 4 47q20 125 151 215q113 70 228 139q119 84 118 205q0 41 -40 69.5t-83 28.5q-250 0 -428 -424q-150 -393 -301 -786q-205 -424 -524 -424q-82 0 -148.5 51t-66.5 127z" />
<glyph unicode="&#xe0;" horiz-adv-x="901" d="M59 246q0 274 199 485q207 219 487 219q94 0 170 -47t82 -119q8 -78 -63 -100l-180 -444q-20 -51 -21 -88q0 -45 39 -46q39 0 64.5 62.5t37.5 62.5q37 0 37 -61q0 -55 -52 -112.5t-120 -57.5q-70 0 -118 33q-55 39 -56 104q0 35 33 123l131 356q8 25 -10 25 q-14 0 -23 -23l-129 -354q-41 -113 -116 -194q-82 -86 -158 -86q-117 0 -178 79q-55 70 -56 183zM260 182q0 -27 17.5 -53.5t35.5 -26.5q39 0 91.5 53.5t78.5 118.5l172 435h183q-14 18 -15 39q1 44 54 67q-35 41 -119 41q-231 0 -375 -229q-123 -197 -123 -445zM477 1260 q0 55 51 55q27 0 64 -37t63 -104q8 -25 43 -142q2 -8 -4 -10t-14 2q-90 70 -125 102q-78 76 -78 134z" />
<glyph unicode="&#xe1;" horiz-adv-x="901" d="M59 246q0 274 199 485q207 219 487 219q94 0 170 -47t82 -119q8 -78 -63 -100l-180 -444q-20 -51 -21 -88q0 -45 39 -46q39 0 64.5 62.5t37.5 62.5q37 0 37 -61q0 -55 -52 -112.5t-120 -57.5q-70 0 -118 33q-55 39 -56 104q0 35 33 123l131 356q8 25 -10 25 q-14 0 -23 -23l-129 -354q-41 -113 -116 -194q-82 -86 -158 -86q-117 0 -178 79q-55 70 -56 183zM260 182q0 -27 17.5 -53.5t35.5 -26.5q39 0 91.5 53.5t78.5 118.5l172 435h183q-14 18 -15 39q1 44 54 67q-35 41 -119 41q-231 0 -375 -229q-123 -197 -123 -445zM741 1036 q-4 6 2 15q70 113 103 151q82 96 145 96q23 0 41.5 -16t18.5 -39q0 -25 -33 -65q-55 -66 -262 -144q-8 -4 -15 2z" />
<glyph unicode="&#xe2;" horiz-adv-x="901" d="M59 246q0 274 199 485q207 219 487 219q94 0 170 -47t82 -119q8 -78 -63 -100l-180 -444q-20 -51 -21 -88q0 -45 39 -46q39 0 64.5 62.5t37.5 62.5q37 0 37 -61q0 -55 -52 -112.5t-120 -57.5q-70 0 -118 33q-55 39 -56 104q0 35 33 123l131 356q8 25 -10 25 q-14 0 -23 -23l-129 -354q-41 -113 -116 -194q-82 -86 -158 -86q-117 0 -178 79q-55 70 -56 183zM260 182q0 -27 17.5 -53.5t35.5 -26.5q39 0 91.5 53.5t78.5 118.5l172 435h183q-14 18 -15 39q1 44 54 67q-35 41 -119 41q-231 0 -375 -229q-123 -197 -123 -445zM545 1061 q0 16 12 26l211 158q25 18 37 15q12 -4 20 -23l66 -160q4 -10 4 -18q0 -25 -27 -25q-20 0 -34 19l-60 77l-180 -92q-12 -6 -21 -6q-29 0 -28 29z" />
<glyph unicode="&#xe3;" horiz-adv-x="901" d="M59 246q0 274 199 485q207 219 487 219q94 0 170 -47t82 -119q8 -78 -63 -100l-180 -444q-20 -51 -21 -88q0 -45 39 -46q39 0 64.5 62.5t37.5 62.5q37 0 37 -61q0 -55 -52 -112.5t-120 -57.5q-70 0 -118 33q-55 39 -56 104q0 35 33 123l131 356q8 25 -10 25 q-14 0 -23 -23l-129 -354q-41 -113 -116 -194q-82 -86 -158 -86q-117 0 -178 79q-55 70 -56 183zM260 182q0 -27 17.5 -53.5t35.5 -26.5q39 0 91.5 53.5t78.5 118.5l172 435h183q-14 18 -15 39q1 44 54 67q-35 41 -119 41q-231 0 -375 -229q-123 -197 -123 -445zM596 1057 q55 117 149 125q35 4 81 -18.5t83 -20.5q25 2 70 37q20 20 39 20q14 0 14 -14q0 -7 -4 -15q-51 -127 -149 -137q-37 -4 -89.5 17.5t-87.5 19.5q-27 -2 -63 -29q-18 -12 -31 -12q-25 0 -12 27z" />
<glyph unicode="&#xe4;" horiz-adv-x="901" d="M59 246q0 274 199 485q207 219 487 219q94 0 170 -47t82 -119q8 -78 -63 -100l-180 -444q-20 -51 -21 -88q0 -45 39 -46q39 0 64.5 62.5t37.5 62.5q37 0 37 -61q0 -55 -52 -112.5t-120 -57.5q-70 0 -118 33q-55 39 -56 104q0 35 33 123l131 356q8 25 -10 25 q-14 0 -23 -23l-129 -354q-41 -113 -116 -194q-82 -86 -158 -86q-117 0 -178 79q-55 70 -56 183zM260 182q0 -27 17.5 -53.5t35.5 -26.5q39 0 91.5 53.5t78.5 118.5l172 435h183q-14 18 -15 39q1 44 54 67q-35 41 -119 41q-231 0 -375 -229q-123 -197 -123 -445zM524 1077 q0 49 28 89t62 40q58 1 58 -65q0 -51 -22.5 -92t-65.5 -41q-59 0 -60 69zM729 1077q0 49 26.5 89t63.5 40q58 1 58 -65q0 -51 -24 -92t-67 -41q-25 0 -41 21.5t-16 47.5z" />
<glyph unicode="&#xe5;" horiz-adv-x="901" d="M59 246q0 274 199 485q207 219 487 219q94 0 170 -47t82 -119q8 -78 -63 -100l-180 -444q-20 -51 -21 -88q0 -45 39 -46q39 0 64.5 62.5t37.5 62.5q37 0 37 -61q0 -55 -52 -112.5t-120 -57.5q-70 0 -118 33q-55 39 -56 104q0 35 33 123l131 356q8 25 -10 25 q-14 0 -23 -23l-129 -354q-41 -113 -116 -194q-82 -86 -158 -86q-117 0 -178 79q-55 70 -56 183zM260 182q0 -27 17.5 -53.5t35.5 -26.5q39 0 91.5 53.5t78.5 118.5l172 435h183q-14 18 -15 39q1 44 54 67q-35 41 -119 41q-231 0 -375 -229q-123 -197 -123 -445zM653 1100 q0 66 52.5 125t105.5 59q72 0 72 -78q0 -72 -46 -129t-108 -57q-76 0 -76 80zM721 1092q0 -14 12 -15q33 0 55.5 45t22.5 92q0 14 -8 15q-25 0 -53.5 -48t-28.5 -89z" />
<glyph unicode="&#xe6;" horiz-adv-x="1263" d="M27 184q0 162 139 246q41 25 256 94q139 47 139 119q0 111 -76 166q-57 43 -137 43q-45 0 -67 -29q18 -37 18 -71q0 -25 -22.5 -43.5t-47.5 -18.5q-68 0 -67 84q0 61 55 117q63 61 162 61q96 0 182 -60.5t133 -156.5q195 209 416 209q66 0 101.5 -43t35.5 -102 q0 -160 -137 -246q-127 -55 -256 -111q-137 -61 -137 -168q0 -178 114 -178q88 0 172 76t103 76q35 0 35 -31q0 -59 -103 -137q-109 -84 -209 -84q-98 0 -172.5 55t-109.5 146q-154 -211 -307 -211q-213 0 -213 198zM193 176q0 -74 59 -80q102 -10 192 125q84 125 80 246 q-106 -47 -215 -92q-117 -66 -116 -199zM745 492q47 45 150.5 100t138.5 86q62 55 62 135q0 35 -21 35q-127 0 -229 -133q-86 -113 -101 -223z" />
<glyph unicode="&#xe7;" horiz-adv-x="757" d="M51 350q6 217 187 410q188 203 417 203q76 0 127 -27q64 -35 68 -96q4 -47 -23.5 -83t-70.5 -36q-33 0 -58.5 21.5t-25.5 52.5q0 45 39 63q-2 23 -47 23q-131 0 -272.5 -192.5t-141.5 -387.5q0 -84 35 -143q37 -68 106 -76q76 -10 135 35q33 25 78 84q37 47 51 45 q29 -4 29 -33q0 -59 -74 -133q-86 -84 -196 -96q-51 -6 -103 4q-4 -4 -4 -13q0 -31 44 -86t44 -106q0 -59 -50 -101t-112 -42q-47 0 -80.5 27.5t-33.5 72.5q0 25 19.5 45t43.5 20q57 0 58 -57q0 -27 -21 -41h4q59 0 60 57q0 37 -40 91.5t-40 93.5q0 41 20 69 q-178 94 -172 332z" />
<glyph unicode="&#xe8;" horiz-adv-x="708" d="M61 334q0 231 197 426q186 184 391 184q66 0 101.5 -43t35.5 -102q0 -160 -137 -246q-127 -55 -256 -111q-137 -61 -137 -168q0 -178 115 -178q88 0 172 76t102 76q35 0 35 -31q0 -59 -102 -137q-109 -84 -209 -84q-133 0 -220.5 99.5t-87.5 238.5zM285 492 q47 45 150.5 100t137.5 86q62 55 62 135q0 35 -21 35q-127 0 -229 -133q-86 -113 -100 -223zM334 1260q0 55 51 55q27 0 63.5 -37t63.5 -104q8 -25 43 -142q2 -8 -4 -10t-14 2q-90 70 -125 102q-78 76 -78 134z" />
<glyph unicode="&#xe9;" horiz-adv-x="708" d="M61 334q0 231 197 426q186 184 391 184q66 0 101.5 -43t35.5 -102q0 -160 -137 -246q-127 -55 -256 -111q-137 -61 -137 -168q0 -178 115 -178q88 0 172 76t102 76q35 0 35 -31q0 -59 -102 -137q-109 -84 -209 -84q-133 0 -220.5 99.5t-87.5 238.5zM285 492 q47 45 150.5 100t137.5 86q62 55 62 135q0 35 -21 35q-127 0 -229 -133q-86 -113 -100 -223zM627 1036q-4 6 2 15q70 113 102 151q82 96 146 96q23 0 41 -16t18 -39q0 -25 -33 -65q-55 -66 -262 -144q-8 -4 -14 2z" />
<glyph unicode="&#xea;" horiz-adv-x="708" d="M61 334q0 231 197 426q186 184 391 184q66 0 101.5 -43t35.5 -102q0 -160 -137 -246q-127 -55 -256 -111q-137 -61 -137 -168q0 -178 115 -178q88 0 172 76t102 76q35 0 35 -31q0 -59 -102 -137q-109 -84 -209 -84q-133 0 -220.5 99.5t-87.5 238.5zM285 492 q47 45 150.5 100t137.5 86q62 55 62 135q0 35 -21 35q-127 0 -229 -133q-86 -113 -100 -223zM473 1061q0 16 12 26l211 158q25 18 37 15q12 -4 21 -23l65 -160q4 -10 4 -18q0 -25 -26 -25q-20 0 -35 19l-60 77l-180 -92q-12 -6 -20 -6q-29 0 -29 29z" />
<glyph unicode="&#xeb;" horiz-adv-x="708" d="M61 334q0 231 197 426q186 184 391 184q66 0 101.5 -43t35.5 -102q0 -160 -137 -246q-127 -55 -256 -111q-137 -61 -137 -168q0 -178 115 -178q88 0 172 76t102 76q35 0 35 -31q0 -59 -102 -137q-109 -84 -209 -84q-133 0 -220.5 99.5t-87.5 238.5zM285 492 q47 45 150.5 100t137.5 86q62 55 62 135q0 35 -21 35q-127 0 -229 -133q-86 -113 -100 -223zM453 1077q0 49 27.5 89t62.5 40q57 1 57 -65q0 -51 -22.5 -92t-65.5 -41q-59 0 -59 69zM657 1077q0 49 27 89t64 40q57 1 57 -65q0 -51 -23.5 -92t-66.5 -41q-25 0 -41.5 21.5 t-16.5 47.5z" />
<glyph unicode="&#xec;" horiz-adv-x="450" d="M33 174q0 133 108.5 371.5t108.5 267.5q0 16 -41 23.5t-41 33.5q0 61 133 62q119 0 157 19.5t40 19.5q28 0 28 -31q0 -61 -169 -369.5t-169 -420.5q0 -59 37 -60q66 0 98.5 68.5t63.5 68.5q35 0 35 -61q0 -82 -70.5 -136.5t-161.5 -54.5q-74 0 -115.5 57.5t-41.5 141.5z M162 1260q0 55 51 55q27 0 63.5 -37t63.5 -104q8 -25 43 -142q2 -8 -4 -10t-14 2q-90 70 -125 102q-78 76 -78 134z" />
<glyph unicode="&#xed;" horiz-adv-x="450" d="M33 174q0 133 108.5 371.5t108.5 267.5q0 16 -41 23.5t-41 33.5q0 61 133 62q119 0 157 19.5t40 19.5q28 0 28 -31q0 -61 -169 -369.5t-169 -420.5q0 -59 37 -60q66 0 98.5 68.5t63.5 68.5q35 0 35 -61q0 -82 -70.5 -136.5t-161.5 -54.5q-74 0 -115.5 57.5t-41.5 141.5z M354 1036q-4 6 2 15q70 113 103 151q82 96 145 96q23 0 41.5 -16t18.5 -39q0 -25 -33 -65q-55 -66 -262 -144q-8 -4 -15 2z" />
<glyph unicode="&#xee;" horiz-adv-x="450" d="M33 174q0 133 108.5 371.5t108.5 267.5q0 16 -41 23.5t-41 33.5q0 61 133 62q119 0 157 19.5t40 19.5q28 0 28 -31q0 -61 -169 -369.5t-169 -420.5q0 -59 37 -60q66 0 98.5 68.5t63.5 68.5q35 0 35 -61q0 -82 -70.5 -136.5t-161.5 -54.5q-74 0 -115.5 57.5t-41.5 141.5z M229 1061q0 16 13 26l211 158q25 18 36 15q12 -4 21 -23l65 -160q4 -10 5 -18q0 -25 -27 -25q-20 0 -35 19l-59 77l-180 -92q-12 -6 -21 -6q-29 0 -29 29z" />
<glyph unicode="&#xef;" horiz-adv-x="450" d="M33 174q0 133 108.5 371.5t108.5 267.5q0 16 -41 23.5t-41 33.5q0 61 133 62q119 0 157 19.5t40 19.5q28 0 28 -31q0 -61 -169 -369.5t-169 -420.5q0 -59 37 -60q66 0 98.5 68.5t63.5 68.5q35 0 35 -61q0 -82 -70.5 -136.5t-161.5 -54.5q-74 0 -115.5 57.5t-41.5 141.5z M260 1081q0 49 27.5 89t62.5 40q58 1 58 -65q0 -51 -23 -92t-66 -41q-59 0 -59 69zM465 1081q0 49 26.5 89t63.5 40q57 1 57 -65q0 -51 -23.5 -92t-66.5 -41q-25 0 -41 21.5t-16 47.5z" />
<glyph unicode="&#xf0;" horiz-adv-x="1015" d="M51 270q0 242 193 463q188 215 381 215q51 0 96 -16q10 18 10 86q0 113 -24 196q-51 -59 -191 -227l-61 78l207 246q-57 84 -166 84q-45 0 -66 -27q35 -41 27 -86q-12 -70 -84 -70q-35 0 -60.5 25t-25.5 59q0 78 72.5 135.5t160.5 57.5q125 0 221 -80l119 139l62 -78 l-113 -133q121 -161 121 -405q0 -410 -197 -686q-182 -256 -420 -256q-262 0 -262 280zM221 184q0 -94 80 -94q158 0 279 223q110 211 110 453q0 80 -53 80q-121 0 -268.5 -234.5t-147.5 -427.5z" />
<glyph unicode="&#xf1;" horiz-adv-x="888" d="M10 -10q0 10 6 18q82 127 174 371q106 281 107 434q0 16 -41 23.5t-41 33.5q0 61 133 62q119 0 157 19.5t40 19.5q29 0 28 -31q0 -20 -133 -313q-154 -332 -202 -480q-4 -12 4 -14q10 0 14 10q205 494 326 656q92 125 206 125q138 -1 138 -185q0 -57 -131 -315t-131 -313 q0 -37 20 -37q41 0 94 71.5t68 71.5q35 0 35 -43q0 -45 -70 -119q-76 -78 -143 -78q-82 0 -115 33q-39 37 -39 142q0 109 128 363.5t128 275.5q0 35 -29 34q-147 0 -432 -755q-6 -18 -14 -33q-18 -31 -45 -33l-86 -4q-41 -2 -71 -21.5t-54 -19.5q-29 0 -29 31zM510 1057 q55 117 149 125q35 4 81 -18.5t83 -20.5q25 2 70 37q20 20 39 20q14 0 14 -14q0 -7 -4 -15q-51 -127 -149 -137q-37 -4 -89.5 17.5t-87.5 19.5q-27 -2 -63 -29q-18 -12 -31 -12q-25 0 -12 27z" />
<glyph unicode="&#xf2;" horiz-adv-x="841" d="M55 270q0 242 193 463q188 215 381 215q123 0 190 -82q62 -73 62 -194q0 -262 -171 -472t-393 -210q-262 0 -262 280zM225 184q0 -94 80 -94q158 0 279 223q110 211 110 453q0 80 -53 80q-121 0 -268.5 -234.5t-147.5 -427.5zM391 1260q0 55 51 55q27 0 64 -37t63 -104 q8 -25 43 -142q2 -8 -4 -10t-14 2q-90 70 -125 102q-78 76 -78 134z" />
<glyph unicode="&#xf3;" horiz-adv-x="841" d="M55 270q0 242 193 463q188 215 381 215q123 0 190 -82q62 -73 62 -194q0 -262 -171 -472t-393 -210q-262 0 -262 280zM225 184q0 -94 80 -94q158 0 279 223q110 211 110 453q0 80 -53 80q-121 0 -268.5 -234.5t-147.5 -427.5zM719 1036q-4 6 2 15q70 113 102 151 q82 96 146 96q23 0 41 -16t18 -39q0 -25 -33 -65q-55 -66 -262 -144q-8 -4 -14 2z" />
<glyph unicode="&#xf4;" horiz-adv-x="841" d="M55 270q0 242 193 463q188 215 381 215q123 0 190 -82q62 -73 62 -194q0 -262 -171 -472t-393 -210q-262 0 -262 280zM225 184q0 -94 80 -94q158 0 279 223q110 211 110 453q0 80 -53 80q-121 0 -268.5 -234.5t-147.5 -427.5zM502 1061q0 16 12 26l211 158q25 18 37 15 q12 -4 20 -23l66 -160q4 -10 4 -18q0 -25 -27 -25q-20 0 -34 19l-60 77l-180 -92q-12 -6 -21 -6q-29 0 -28 29z" />
<glyph unicode="&#xf5;" horiz-adv-x="841" d="M55 270q0 242 193 463q188 215 381 215q123 0 190 -82q62 -73 62 -194q0 -262 -171 -472t-393 -210q-262 0 -262 280zM225 184q0 -94 80 -94q158 0 279 223q110 211 110 453q0 80 -53 80q-121 0 -268.5 -234.5t-147.5 -427.5zM481 1057q55 117 150 125q35 4 81 -18.5 t83 -20.5q25 2 69 37q20 20 39 20q14 0 15 -14q-1 -7 -5 -15q-51 -127 -149 -137q-37 -4 -89 17.5t-87 19.5q-27 -2 -64 -29q-18 -12 -30 -12q-25 0 -13 27z" />
<glyph unicode="&#xf6;" horiz-adv-x="841" d="M55 270q0 242 193 463q188 215 381 215q123 0 190 -82q62 -73 62 -194q0 -262 -171 -472t-393 -210q-262 0 -262 280zM225 184q0 -94 80 -94q158 0 279 223q110 211 110 453q0 80 -53 80q-121 0 -268.5 -234.5t-147.5 -427.5zM453 1077q0 49 27.5 89t62.5 40q57 1 57 -65 q0 -51 -22.5 -92t-65.5 -41q-59 0 -59 69zM657 1077q0 49 27 89t64 40q57 1 57 -65q0 -51 -23.5 -92t-66.5 -41q-25 0 -41.5 21.5t-16.5 47.5z" />
<glyph unicode="&#xf7;" horiz-adv-x="516" d="M35 580l33 102h487l-33 -102h-487zM168 342q0 59 31.5 106.5t74.5 47.5q68 0 68 -78q0 -61 -25 -107q-31 -51 -79 -51q-31 0 -50.5 25.5t-19.5 56.5zM268 829q0 59 32 106.5t75 47.5q67 0 67 -78q0 -61 -24 -106q-31 -51 -80 -51q-31 0 -50.5 25.5t-19.5 55.5z" />
<glyph unicode="&#xf8;" horiz-adv-x="1077" d="M23 14q0 94 100 201q-2 14 -2 47q0 250 203 477q195 219 399 232q152 8 223 -119q29 51 29 102q0 14 -12 23q-20 -6 -37 7t-17 32q0 61 68 61q43 0 65 -45q21 -37 21 -86q0 -102 -82 -205q4 -41 4 -61q0 -274 -177 -493.5t-413 -219.5q-190 0 -250 150q-35 -45 -34 -82 q0 -29 8 -45q57 6 57 -58q0 -51 -55 -51q-43 0 -70.5 41t-27.5 92zM305 172q0 -94 78 -94q102 0 209 137q103 131 156 317q-82 -59 -224 -145q-170 -104 -211 -131q-8 -41 -8 -84zM354 397q152 92 422 279q8 47 8 102q0 82 -49 82q-78 0 -195.5 -144.5t-185.5 -318.5z" />
<glyph unicode="&#xf9;" horiz-adv-x="937" d="M49 197q0 129 126 331.5t126 315.5q0 33 -27 33q-49 0 -95 -64.5t-62 -64.5q-33 0 -33 45q0 57 63 122q72 74 156 74q156 0 156 -239q0 -98 -70 -236q-18 -39 -127 -219q-70 -115 -69 -160q0 -66 45 -65q80 0 266 344q178 328 178 399q0 16 -41 23.5t-41 33.5 q0 61 133 62q119 0 179.5 19.5t62.5 19.5q29 0 29 -31q0 -68 -148.5 -382t-148.5 -392t38 -78q41 0 85 64.5t59 64.5q35 0 35 -43q0 -47 -68 -119q-76 -80 -145 -78q-72 2 -112 44t-40 106q0 113 88 315q129 301 131 310q4 12 -4 14q-10 0 -14 -10q-199 -479 -340 -656 q-100 -123 -207 -123q-78 0 -123 70q-41 63 -41 150zM377 1260q0 55 51 55q27 0 63.5 -37t63.5 -104q8 -25 43 -142q2 -8 -4 -10t-14 2q-90 70 -125 102q-78 76 -78 134z" />
<glyph unicode="&#xfa;" horiz-adv-x="937" d="M49 197q0 129 126 331.5t126 315.5q0 33 -27 33q-49 0 -95 -64.5t-62 -64.5q-33 0 -33 45q0 57 63 122q72 74 156 74q156 0 156 -239q0 -98 -70 -236q-18 -39 -127 -219q-70 -115 -69 -160q0 -66 45 -65q80 0 266 344q178 328 178 399q0 16 -41 23.5t-41 33.5 q0 61 133 62q119 0 179.5 19.5t62.5 19.5q29 0 29 -31q0 -68 -148.5 -382t-148.5 -392t38 -78q41 0 85 64.5t59 64.5q35 0 35 -43q0 -47 -68 -119q-76 -80 -145 -78q-72 2 -112 44t-40 106q0 113 88 315q129 301 131 310q4 12 -4 14q-10 0 -14 -10q-199 -479 -340 -656 q-100 -123 -207 -123q-78 0 -123 70q-41 63 -41 150zM655 1036q-4 6 2 15q70 113 103 151q82 96 145 96q23 0 41.5 -16t18.5 -39q0 -25 -33 -65q-55 -66 -262 -144q-8 -4 -15 2z" />
<glyph unicode="&#xfb;" horiz-adv-x="937" d="M49 197q0 129 126 331.5t126 315.5q0 33 -27 33q-49 0 -95 -64.5t-62 -64.5q-33 0 -33 45q0 57 63 122q72 74 156 74q156 0 156 -239q0 -98 -70 -236q-18 -39 -127 -219q-70 -115 -69 -160q0 -66 45 -65q80 0 266 344q178 328 178 399q0 16 -41 23.5t-41 33.5 q0 61 133 62q119 0 179.5 19.5t62.5 19.5q29 0 29 -31q0 -68 -148.5 -382t-148.5 -392t38 -78q41 0 85 64.5t59 64.5q35 0 35 -43q0 -47 -68 -119q-76 -80 -145 -78q-72 2 -112 44t-40 106q0 113 88 315q129 301 131 310q4 12 -4 14q-10 0 -14 -10q-199 -479 -340 -656 q-100 -123 -207 -123q-78 0 -123 70q-41 63 -41 150zM496 1061q0 16 12 26l211 158q25 18 37 15q12 -4 20 -23l66 -160q4 -10 4 -18q0 -25 -27 -25q-20 0 -35 19l-59 77l-180 -92q-12 -6 -21 -6q-29 0 -28 29z" />
<glyph unicode="&#xfc;" horiz-adv-x="937" d="M49 197q0 129 126 331.5t126 315.5q0 33 -27 33q-49 0 -95 -64.5t-62 -64.5q-33 0 -33 45q0 57 63 122q72 74 156 74q156 0 156 -239q0 -98 -70 -236q-18 -39 -127 -219q-70 -115 -69 -160q0 -66 45 -65q80 0 266 344q178 328 178 399q0 16 -41 23.5t-41 33.5 q0 61 133 62q119 0 179.5 19.5t62.5 19.5q29 0 29 -31q0 -68 -148.5 -382t-148.5 -392t38 -78q41 0 85 64.5t59 64.5q35 0 35 -43q0 -47 -68 -119q-76 -80 -145 -78q-72 2 -112 44t-40 106q0 113 88 315q129 301 131 310q4 12 -4 14q-10 0 -14 -10q-199 -479 -340 -656 q-100 -123 -207 -123q-78 0 -123 70q-41 63 -41 150zM453 1077q0 49 27.5 89t62.5 40q57 1 57 -65q0 -51 -22.5 -92t-65.5 -41q-59 0 -59 69zM657 1077q0 49 27 89t64 40q57 1 57 -65q0 -51 -23.5 -92t-66.5 -41q-25 0 -41.5 21.5t-16.5 47.5z" />
<glyph unicode="&#xfd;" horiz-adv-x="874" d="M-176 -176q0 43 29.5 74.5t72.5 31.5q35 0 60.5 -23.5t25.5 -58.5q0 -70 -57 -90q53 -33 127 -32q78 0 187.5 94t172.5 219q39 76 174 436q96 258 201 363q4 4 4 8q0 6 -8 8q-6 2 -10 -2q-106 -96 -205 -334q-147 -354 -156 -371q-94 -174 -215 -174q-78 0 -119.5 59.5 t-41.5 143.5q0 129 117.5 325.5t117.5 309.5q0 33 -27 33q-49 0 -95 -64.5t-62 -64.5q-33 0 -33 45q0 57 63 123q72 74 156 73q86 0 129 -75q37 -63 37 -156q0 -129 -121 -338t-121 -252q0 -66 37 -65q53 0 113 127q66 150 131 299q98 215 211 360q74 96 172 96 q31 0 54.5 -19t23.5 -50q0 -6 -35 -43q-43 -49 -78 -115q-51 -98 -96 -258q-59 -207 -86 -279q-205 -541 -588 -540q-100 0 -174 41q-88 49 -88 135zM569 1008q-4 6 2 14q70 113 103 152q82 96 145 96q23 0 41.5 -16.5t18.5 -39.5q0 -25 -33 -65q-55 -66 -262 -143 q-8 -4 -15 2z" />
<glyph unicode="&#xfe;" horiz-adv-x="966" d="M-127 -393q0 63 298 800.5t298 780.5q0 16 -41 23.5t-41 33.5q0 61 133 62q119 0 157 19.5t40 19.5q29 0 28 -31q0 -20 -137 -314q-158 -330 -207 -477q-4 -12 7 -12q8 -2 12 8q82 197 192.5 317.5t202.5 120.5q193 1 193 -278q0 -266 -184.5 -488.5t-389.5 -222.5 q-74 0 -116 78t-33 180q-10 -25 -31 -77q-109 -289 -109 -369q0 -51 43 -72.5t43 -52.5q0 -45 -32 -45h-90q-55 2 -91 2q-23 0 -55.5 -14.5t-52.5 -14.5q-37 0 -37 23zM403 172q0 -94 39 -94q127 0 246 230t119 470q0 70 -21 70q-104 0 -243.5 -239.5t-139.5 -436.5z" />
<glyph unicode="&#xff;" horiz-adv-x="874" d="M-176 -176q0 43 29.5 74.5t72.5 31.5q35 0 60.5 -23.5t25.5 -58.5q0 -70 -57 -90q53 -33 127 -32q78 0 187.5 94t172.5 219q39 76 174 436q96 258 201 363q4 4 4 8q0 6 -8 8q-6 2 -10 -2q-106 -96 -205 -334q-147 -354 -156 -371q-94 -174 -215 -174q-78 0 -119.5 59.5 t-41.5 143.5q0 129 117.5 325.5t117.5 309.5q0 33 -27 33q-49 0 -95 -64.5t-62 -64.5q-33 0 -33 45q0 57 63 123q72 74 156 73q86 0 129 -75q37 -63 37 -156q0 -129 -121 -338t-121 -252q0 -66 37 -65q53 0 113 127q66 150 131 299q98 215 211 360q74 96 172 96 q31 0 54.5 -19t23.5 -50q0 -6 -35 -43q-43 -49 -78 -115q-51 -98 -96 -258q-59 -207 -86 -279q-205 -541 -588 -540q-100 0 -174 41q-88 49 -88 135zM453 1077q0 49 27.5 89t62.5 40q57 1 57 -65q0 -51 -22.5 -92t-65.5 -41q-59 0 -59 69zM657 1077q0 49 27 89t64 40 q57 1 57 -65q0 -51 -23.5 -92t-66.5 -41q-25 0 -41.5 21.5t-16.5 47.5z" />
<glyph unicode="&#x152;" horiz-adv-x="2283" d="M16 262q0 164 115 283q96 100 283 174q94 287 372 498q293 219 619 219q78 0 176 -47q129 94 289 151q154 53 276 53q252 1 285 -247q2 -20 2 -41q0 -354 -821 -447q47 -72 157 -72q16 0 67.5 18.5t94.5 18.5q86 0 86 -80q0 -59 -69 -88q-70 -18 -140 -37 q-186 -53 -309 -169q-137 -129 -147 -297q-6 -98 51 -166t166 -68q147 0 260 106.5t113 251.5q0 70 -29 119q-35 59 -101 62q-72 2 -137 -56.5t-65 -136.5q0 -29 21.5 -55.5t45.5 -24.5q55 4 43 47q6 2 15 2q59 0 59 -75q0 -59 -45 -97q-37 -31 -88 -30q-78 0 -123 67 q-37 57 -37 135q0 154 119 256q111 100 258 95q117 -4 182 -92q63 -80 56 -191q-14 -211 -168 -350q-145 -135 -355 -150q-201 -14 -333 70q-139 88 -140 248q0 182 142 315q104 96 303 178q139 55 278 109q8 2 6 6t-8 2q-102 -29 -192 -29q-166 0 -252 97 q-154 -23 -457 -78q-76 -16 -155.5 -34.5t-141.5 -43.5q-20 -74 -20 -145q0 -158 55 -265q68 -129 196 -129q115 0 254 86q-10 -92 9 -149q-139 -53 -263 -53q-223 0 -362 155q-135 150 -135 367q0 20 4 70q-238 -92 -238 -277q0 -106 62 -106q10 0 20.5 36.5t53.5 36.5 q70 0 69 -86q0 -59 -50 -94t-110 -35q-82 0 -131 72q-41 61 -41 137zM707 799q90 25 239 61q147 23 391 66q-4 37 -4 57q1 165 146 315q-23 10 -45 21q-33 12 -54 12q-182 0 -381 -164q-184 -154 -292 -368zM1575 977q303 66 496 158q223 108 223 223q0 131 -160 131 q-31 0 -68 -6q-154 -27 -311 -168q-180 -160 -180 -332v-6z" />
<glyph unicode="&#x153;" horiz-adv-x="1372" d="M55 270q0 242 193 463q188 215 381 215q184 0 237 -172q182 168 373 168q66 0 101.5 -43t35.5 -102q0 -160 -137 -246q-127 -55 -256 -111q-137 -61 -137 -168q0 -178 115 -178q88 0 172 76t102 76q35 0 35 -31q0 -59 -103 -137q-109 -84 -209 -84q-186 0 -272 176 q-166 -182 -369 -182q-262 0 -262 280zM225 184q0 -94 80 -94q158 0 279 223q110 211 110 453q0 80 -53 80q-121 0 -268.5 -234.5t-147.5 -427.5zM874 492q47 45 150.5 100t138.5 86q62 55 62 135q0 35 -21 35q-127 0 -229 -133q-86 -113 -101 -223z" />
<glyph unicode="&#x178;" d="M23 590q0 348 279.5 613t637.5 265q211 0 350 -112q145 -121 146 -316q0 -156 -103 -340q-20 -39 -186 -290q-102 -152 -103 -230q0 -66 46 -65q96 0 264 286q131 244 260 488q86 160 186 266q127 135 236 135q106 1 106 -69q0 -8 -65 -66q-80 -70 -133 -174 q-82 -158 -117 -403q-55 -395 -238 -652q-256 -360 -721 -360q-121 0 -215 57q-104 66 -104 168q0 49 23.5 88t66.5 39q33 0 59.5 -21.5t26.5 -52.5q0 -43 -33 -61.5t-33 -28.5q0 -82 164 -82q311 0 543 357q125 188 256 561q70 197 166 356q100 170 192 234q16 10 5 16 q-12 4 -31 -6q-133 -76 -264 -318q-45 -82 -187 -405q-106 -238 -188 -338q-119 -141 -275 -141q-100 0 -151 75q-45 66 -45 170q0 43 8 86q27 152 125 320q82 127 164 255t80 210q-8 256 -277 256q-285 0 -514 -273q-221 -262 -221 -544q0 -94 49 -168q55 -80 135 -80 q123 0 209 125q80 115 80 252q0 131 -88 155q-16 4 -35 4q-68 0 -115 -61t-38 -139q2 -10 53 -28.5t51 -80.5q0 -76 -74 -76q-57 0 -94 62q-33 53 -33 123q0 145 98.5 251.5t213.5 106.5q213 0 213 -309q0 -182 -129 -330q-137 -158 -330 -157q-150 0 -248 106 q-104 113 -104 291zM1528 1579q0 49 27.5 89t62.5 40q57 0 57 -66q0 -51 -22.5 -92t-65.5 -41q-59 0 -59 70zM1733 1579q0 49 26.5 89t63.5 40q57 0 57 -66q0 -51 -23.5 -92t-66.5 -41q-25 0 -41 21.5t-16 48.5z" />
<glyph unicode="&#x2c6;" horiz-adv-x="483" d="M66 1499q0 16 12 27l211 157q25 18 37 15q12 -4 20 -23l66 -159q4 -10 4 -19q0 -25 -27 -24q-20 0 -35 18l-59 78l-180 -92q-12 -6 -21 -7q-29 0 -28 29z" />
<glyph unicode="&#x2dc;" horiz-adv-x="483" d="M45 1497q55 117 150 125q35 4 81 -18.5t82 -20.5q25 2 70 37q20 20 39 20q14 0 14 -14q0 -6 -4 -14q-51 -127 -149 -137q-37 -4 -89.5 17t-86.5 19q-27 -2 -64 -28q-18 -12 -31 -13q-25 0 -12 27z" />
<glyph unicode="&#x2000;" horiz-adv-x="887" />
<glyph unicode="&#x2001;" horiz-adv-x="1774" />
<glyph unicode="&#x2002;" horiz-adv-x="887" />
<glyph unicode="&#x2003;" horiz-adv-x="1774" />
<glyph unicode="&#x2004;" horiz-adv-x="591" />
<glyph unicode="&#x2005;" horiz-adv-x="443" />
<glyph unicode="&#x2006;" horiz-adv-x="295" />
<glyph unicode="&#x2007;" horiz-adv-x="295" />
<glyph unicode="&#x2008;" horiz-adv-x="221" />
<glyph unicode="&#x2009;" horiz-adv-x="354" />
<glyph unicode="&#x200a;" horiz-adv-x="98" />
<glyph unicode="&#x2010;" horiz-adv-x="466" d="M35 580l33 102h389l-33 -102h-389z" />
<glyph unicode="&#x2011;" horiz-adv-x="466" d="M35 580l33 102h389l-33 -102h-389z" />
<glyph unicode="&#x2012;" horiz-adv-x="466" d="M35 580l33 102h389l-33 -102h-389z" />
<glyph unicode="&#x2013;" horiz-adv-x="466" d="M-39 580l33 102h463l-33 -102h-463z" />
<glyph unicode="&#x2014;" horiz-adv-x="964" d="M-39 580l33 102h960l-32 -102h-961z" />
<glyph unicode="&#x2018;" horiz-adv-x="462" d="M174 1073q0 61 29 135q43 111 137 185q10 8 22 8q29 0 29 -29q0 -16 -14 -29q-35 -29 -72 -88q35 2 55.5 -26.5t20.5 -67.5q0 -70 -38 -125t-89 -55q-80 0 -80 92z" />
<glyph unicode="&#x2019;" horiz-adv-x="462" d="M195 1008q0 16 14 28q35 29 72 88q-35 -2 -55.5 27t-20.5 68q0 70 38 125t89 55q80 0 80 -92q0 -61 -29 -136q-43 -111 -137 -184q-10 -8 -23 -8q-29 0 -28 29z" />
<glyph unicode="&#x201a;" horiz-adv-x="462" d="M123 -139q0 16 14 28q35 29 72 88q-35 -2 -55.5 27t-20.5 68q0 70 38 125t89 55q80 0 80 -92q0 -61 -29 -135q-43 -111 -137 -185q-10 -8 -22 -8q-29 0 -29 29z" />
<glyph unicode="&#x201c;" horiz-adv-x="694" d="M174 1073q0 61 29 135q43 111 137 185q10 8 22 8q29 0 29 -29q0 -16 -14 -29q-35 -29 -72 -88q35 2 55.5 -26.5t20.5 -67.5q0 -70 -38 -125t-89 -55q-80 0 -80 92zM432 1073q0 61 29 135q43 111 137 185q10 8 23 8q29 0 28 -29q0 -16 -14 -29q-35 -29 -72 -88 q35 2 55.5 -26.5t20.5 -67.5q0 -70 -38 -125t-89 -55q-80 0 -80 92z" />
<glyph unicode="&#x201d;" horiz-adv-x="774" d="M195 1008q0 16 14 28q35 29 72 88q-35 -2 -55.5 27t-20.5 68q0 70 38 125t89 55q80 0 80 -92q0 -61 -29 -136q-43 -111 -137 -184q-10 -8 -23 -8q-29 0 -28 29zM496 1008q0 16 14 28q35 29 72 88q-35 -2 -55.5 27t-20.5 68q0 70 38 125t89 55q80 0 80 -92q0 -61 -29 -136 q-43 -111 -137 -184q-10 -8 -23 -8q-29 0 -28 29z" />
<glyph unicode="&#x201e;" horiz-adv-x="675" d="M123 -139q0 16 14 28q35 29 72 88q-35 -2 -55.5 27t-20.5 68q0 70 38 125t89 55q80 0 80 -92q0 -61 -29 -135q-43 -111 -137 -185q-10 -8 -22 -8q-29 0 -29 29zM389 -139q0 16 14 28q35 29 72 88q-35 -2 -55.5 27t-20.5 68q0 70 38 125t89 55q80 0 80 -92q0 -61 -28 -135 q-43 -111 -138 -185q-10 -8 -22 -8q-29 0 -29 29z" />
<glyph unicode="&#x2022;" horiz-adv-x="659" d="M96 496q0 154 121 295q119 135 240 135q78 0 118.5 -49t40.5 -125q0 -168 -107.5 -299t-248.5 -131q-164 0 -164 174z" />
<glyph unicode="&#x2026;" horiz-adv-x="1271" d="M133 72q0 70 38 125t89 55q80 0 80 -92q0 -72 -31 -125q-35 -59 -94 -60q-35 0 -58.5 30t-23.5 67zM549 72q0 70 38 125t89 55q80 0 80 -92q0 -72 -31 -125q-35 -59 -94 -60q-35 0 -58.5 30t-23.5 67zM961 72q0 70 37.5 125t88.5 55q80 0 80 -92q0 -72 -30 -125 q-35 -59 -95 -60q-35 0 -58 30t-23 67z" />
<glyph unicode="&#x202f;" horiz-adv-x="354" />
<glyph unicode="&#x2039;" horiz-adv-x="376" d="M137 500l295 243l62 -79l-201 -164l129 -164l-92 -78z" />
<glyph unicode="&#x203a;" horiz-adv-x="376" d="M123 336l199 164l-132 164l95 79l192 -243l-295 -242z" />
<glyph unicode="&#x205f;" horiz-adv-x="443" />
<glyph unicode="&#x2122;" horiz-adv-x="1112" d="M133 874q0 43 25 97l106 233h-84l21 51h86l37 76q31 61 51 62q12 2 35 8q8 0 17 4t15 4q12 0 13 -23q0 -4 -33 -71l-29 -60h94l-20 -51h-98q-31 -72 -121 -264q-23 -39 -23 -74q0 -33 19 -32q20 0 40.5 29.5t39.5 29.5q16 0 16 -25q0 -33 -40 -64.5t-87 -31.5 q-80 0 -80 102zM393 772q-4 8 0 16q141 246 142 406q0 4 -20.5 8t-20.5 21q0 31 65 30q59 0 79 9l19 8q14 0 15 -13q0 -10 -68 -157q-76 -168 -100 -242q4 -2 10 -2q102 248 162 330q47 63 104 63q68 0 68 -86q0 -10 -51 -127q-57 -133 -74 -184q0 -6 6 -6q2 0 45 104 q53 125 98 195q68 104 127 104q68 0 68 -92q0 -29 -65.5 -160t-65.5 -157q0 -18 10 -19q20 0 48 36t34 36q16 0 16 -19q0 -23 -35.5 -61.5t-70.5 -38.5q-76 0 -76 86q0 55 63.5 182t63.5 138q0 20 -12 20q-57 0 -217 -381q-8 -18 -10 -20q-6 -10 -21 -13l-53 -2 q-20 0 -33.5 -10t-28.5 -10q-12 0 -12 24q0 41 84 210t84 182q0 20 -14 20q-74 0 -215 -381q-4 -14 -31 -33l-43 -2q-20 0 -34.5 -10t-26.5 -10q-8 0 -13 8z" />
<glyph unicode="&#xe000;" horiz-adv-x="972" d="M0 0v973h973v-973h-973z" />
</font>
</defs>
</svg>
