<?xml version="1.0" standalone="no"?>
<!DOCTYPE svg PUBLIC "-//W3C//DTD SVG 1.1//EN" "http://www.w3.org/Graphics/SVG/1.1/DTD/svg11.dtd" >
<svg xmlns="http://www.w3.org/2000/svg">
<metadata></metadata>
<defs>
<font id="ld_musicregular" horiz-adv-x="1767" >
<font-face units-per-em="2048" ascent="1638" descent="-410" />
<missing-glyph horiz-adv-x="610" />
<glyph horiz-adv-x="2048" />
<glyph horiz-adv-x="2048" />
<glyph unicode="&#xd;" horiz-adv-x="610" />
<glyph unicode=" "  horiz-adv-x="610" />
<glyph unicode="&#x09;" horiz-adv-x="610" />
<glyph unicode="&#xa0;" horiz-adv-x="610" />
<glyph unicode="!" horiz-adv-x="822" d="M103 1135q-3 23 19 26q17 3 507 -14q23 0 23 -23q-2 -23 -25 -22l-88 3l-105 -680q31 3 58 7q23 3 26 -19q3 -23 -20 -24q-122 -19 -287 -9q-23 2 -21 24q2 23 24 21q10 -2 56 -3l-68 694q-70 2 -73 0q-23 -3 -26 19zM141 181q0 28 18 54q35 45 104 46q77 0 164 -54 q96 -61 96 -136q0 -26 -16 -49q-30 -45 -101 -45q-59 0 -125.5 30.5t-106.5 75.5q-33 40 -33 78z" />
<glyph unicode="&#x22;" horiz-adv-x="556" d="M51 1032q-5 23 15 28l164 47q23 5 28 -16q7 -23 -16 -28l-61 -17l-14 -246q-2 -23 -24 -21q-23 2 -21 25l14 228l-58 -16q-23 -5 -27 16zM317 1051q-3 23 19 24l154 21q23 3 26 -19q2 -23 -19 -26l-70 -9l-9 -235q-2 -23 -24 -23q-23 2 -21 25l9 228l-40 -5 q-23 -3 -25 19z" />
<glyph unicode="#" horiz-adv-x="787" d="M51 373l12 70q2 14 15 17l100 30l36 183l-97 -26q-10 -2 -19 6t-9 18l9 78q1 17 17 20l127 31l44 214q5 23 28 18q21 -3 17 -26l-42 -194l265 63l32 167q5 23 26 19q23 -5 19 -26l-28 -148l117 30q12 2 20.5 -6t7.5 -19l-7 -71q-2 -14 -18 -19l-143 -37l-31 -167l92 26 q12 3 22 -5.5t6 -20.5l-19 -91q-3 -12 -17 -15l-110 -30l-40 -214q-3 -21 -26 -18q-21 3 -18 26l37 194l-276 -72l-31 -150q-5 -23 -26 -17q-23 3 -18 26l27 129l-74 -19q-12 -3 -20.5 5.5t-6.5 20.5zM227 504l273 80l32 169l-269 -68z" />
<glyph unicode="$" horiz-adv-x="733" d="M71 254q-30 125 56 188t208 36l12 52q-148 105 -148 219q0 96 68 149q75 58 176 40v1q5 31 7 58q-26 -19 -60 -16q-38 5 -66 34t-28 66q-3 127 87 129q87 2 109 -112q5 -5 3 -17q7 -61 -9 -149v-6q72 -26 119 -89q14 -19 -4 -33q-17 -12 -31 5q-38 51 -94 73 q-23 -96 -70 -289q31 -28 75 -42q171 -54 209 -215q33 -145 -78 -238q-47 -40 -114 -56q-99 -24 -207 9l-12 -56q-19 -85 7 -147q3 14 10 27q26 45 74 71q49 26 90.5 -2t48.5 -82q7 -70 -56 -110q-47 -28 -99 -17q-5 -3 -19 0q-26 7 -42 28q-66 56 -66 166q0 37 8 74l13 63 q-145 61 -177 188zM213 289q-10 -94 50 -150l4 14l55 267q-99 -14 -109 -131zM303 113q23 -10 51 -12q119 -9 146 115q12 54 2 115q-19 112 -85 152q-16 10 -30 19l-9 -40q19 -2 16 -25t-26 -19zM350 716q2 -42 21 -76q21 82 61 249q-91 -49 -82 -173z" />
<glyph unicode="%" horiz-adv-x="953" d="M47 52q-7 14 4 25q270 293 563 707q-180 -125 -325 -125q-51 0 -90 17q-87 42 -86 136q2 61 43 108t102 47q28 0 56 -12q75 -30 92 -101q19 -77 -35 -139q87 23 185.5 84.5t152.5 127.5q12 14 25 9l164 -4q14 0 19 -13t-4 -23q-389 -427 -535 -687q197 186 366 171 q24 0 30 -5q112 -28 122 -134q5 -70 -42 -122q-42 -47 -101 -48q-21 0 -42 7q-59 16 -89.5 65t-21.5 108q5 37 24 64q-89 -33 -180.5 -108.5t-131.5 -154.5q-3 -7 -13 -14.5t-17 -7.5l-216 8q-14 2 -19 14z" />
<glyph unicode="&#x26;" horiz-adv-x="779" d="M54 -183q-19 78 31 117q23 17 53 17q63 0 120 -66q80 -94 45 -181q131 54 128 289q-56 2 -112 19q-7 -3 -17 5q-113 38 -178 117q-75 91 -65 215q12 124 190 359q-110 105 -118 244q-9 119 52 172q31 26 66 33q77 17 131 -45q31 -35 51 -96q3 -7 6 -26q10 -44 11 -85 q0 -129 -98 -312q14 -46 26 -84q14 5 30 9q110 30 199 -7q98 -40 125 -148q7 -28 7 -56q3 -112 -75 -206t-186 -106q3 -251 -140 -326q-42 -23 -85 -23q-68 0 -124 50.5t-73 120.5zM221 275q0 -125 103 -217q52 -17 105 -20q-6 73 -23 162q-61 7 -102 54.5t-39 109.5 q2 80 70 126q-7 23 -14 47q-58 -101 -68 -124q-31 -70 -32 -138zM253 1013q-21 -129 33 -257q115 159 106 225q-23 91 -68 121q-10 -2 -29 -11q-30 -16 -42 -78zM310 363q-3 -92 87 -115q-18 89 -48 195q-38 -30 -39 -80zM389 465q35 -120 54 -217q49 12 52 55q4 26 -17 54 q-14 17 5 32q17 14 31 -6q31 -40 26 -85q-9 -75 -89 -94q17 -91 23 -166q31 5 63 20q2 5 10 10q70 49 60 186q-10 134 -82 197q-42 35 -91 20q-16 -5 -23 1q-10 -3 -22 -7z" />
<glyph unicode="'" horiz-adv-x="331" d="M51 1041q-5 23 17 26l195 36q23 3 26 -19q3 -23 -17 -26l-75 -14l-11 -261q0 -23 -22 -23q-23 2 -23 23l11 252l-75 -12q-23 -5 -26 18z" />
<glyph unicode="(" horiz-adv-x="683" d="M51 448q5 192 135 403q146 241 326 240q115 0 129 -104q9 -52 -23 -89t-86 -42q-52 -5 -89 22t-39 77v12q-199 -199 -198 -491q0 -268 141 -432q-2 14 -2 27q3 59 47.5 98.5t105.5 37.5t103 -45t40 -103q-5 -102 -122 -125q-3 -3 -17 -4q-2 2 -5 2q-23 -3 -49 -2 q-209 16 -312 166q-91 134 -85 352z" />
<glyph unicode=")" horiz-adv-x="683" d="M51 68q-2 59 39.5 102.5t102.5 45.5t105.5 -37.5t48.5 -100.5q0 -12 -2 -26q141 164 141 433q0 293 -198 491v-12q-2 -51 -38.5 -78t-89.5 -21q-54 5 -86 41.5t-23 88.5q14 105 129 105q87 0 188 -84q78 -66 139 -157q129 -192 134 -404q5 -216 -85 -350 q-103 -150 -312 -166q-26 -2 -49 2q-3 -2 -5 -2q-14 0 -17 3q-117 23 -122 126z" />
<glyph unicode="*" horiz-adv-x="824" d="M51 821q-5 23 17 26l272 52l-143 124q-16 16 -2 33q16 16 32 2l170 -146l9 1l9 178q0 23 22 23q23 -2 23 -25l-9 -167l13 2l125 167q13 19 31 5q17 -14 6 -31l-94 -129l226 45q21 3 26 -19q3 -21 -17 -26l-80 -16l-21 -129q-2 -14 -18 -17l-82 -19l89 -75q17 -16 4 -33 q-16 -17 -33 -2l-114 98l-61 -16l-10 -246q-2 -23 -23 -23q-23 2 -22 25l10 233l-54 -12l-89 -120q-12 -19 -31 -5q-17 14 -5 31l59 78l-120 -26q-10 -3 -19 5t-8 18l9 132l-71 -13q-23 -4 -26 17z" />
<glyph unicode="+" horiz-adv-x="824" d="M51 617q-5 23 17 26l338 66l9 178q0 23 22 21q23 0 23 -23l-9 -167l307 58q21 5 26 -18q3 -23 -17 -26l-80 -16l-21 -129q-2 -16 -18 -19l-197 -45l-10 -246q-2 -23 -23 -23q-23 2 -22 25l10 233l-240 -55q-10 -2 -19 6t-8 18l9 133l-71 -14q-23 -5 -26 17z" />
<glyph unicode="," horiz-adv-x="554" d="M51 141q-3 45 27 82.5t74 48.5q103 24 186 -66q68 -71 65 -175q-2 -80 -62 -130.5t-141 -48.5q-61 3 -118 38q-12 9 -9 25q5 17 21 17q120 3 141 65q-64 5 -118 43q-61 42 -66 101z" />
<glyph unicode="-" horiz-adv-x="824" d="M51 493q-5 21 17 26l690 133q21 3 26 -18q3 -23 -17 -27l-80 -14l-21 -131q-2 -14 -18 -18l-482 -111q-10 -2 -19 5t-8 18l9 132l-71 -14q-23 -3 -26 19z" />
<glyph unicode="." horiz-adv-x="561" d="M58 173q0 47 37 81.5t86 34.5q68 0 129 -58t61 -126q0 -47 -34 -80.5t-83 -33.5q-54 0 -106 36t-75 85q-16 31 -15 61z" />
<glyph unicode="/" horiz-adv-x="787" d="M51 188q185 242 629 842q14 17 31 5q19 -12 7 -31l-47 -66l75 -108q9 -12 0 -25q-106 -173 -274 -390q-193 -249 -223 -293q-16 -24 -35 -2l-82 94l-45 -52q-14 -19 -31 -5q-19 14 -5 31z" />
<glyph unicode="0" horiz-adv-x="944" d="M45 425q0 146 61 293t157 237q156 145 337 145q153 0 244 -145q61 -96 61 -265q0 -129 -34 -263q-49 -190 -169 -300q-131 -115 -320 -115q-45 0 -75 7q-120 24 -195 148q-66 108 -67 258zM213 211q19 -129 99 -140q181 -24 354 375q89 209 89 406q0 149 -75 182 q-19 7 -40 7q-75 0 -167.5 -94.5t-165.5 -250.5t-93 -293q-14 -106 -1 -192z" />
<glyph unicode="1" horiz-adv-x="636" d="M51 877q-10 21 8 31l422 227q12 7 23.5 -1t9.5 -22q-42 -408 -90 -1068q84 -5 156 -25q23 -5 16 -28q-5 -21 -28 -15q-85 23 -192 22q-94 0 -242 -19q-23 -3 -24 19q-3 23 19 25q96 14 166 17q9 58 8 145q0 167 -29 324q-63 328 -121 399l-71 -40q-21 -10 -31 9z" />
<glyph unicode="2" horiz-adv-x="888" d="M51 -66q-10 12 1 28l244 258q153 167 229 296q99 173 90 324q-9 204 -232 215q-125 5 -209 -81q98 5 138 -92q26 -61 -9 -113q-26 -40 -78 -40q-96 0 -134 90q-23 53 -2 107q0 7 5 12q44 94 154 139q66 26 139 23q263 -12 274 -256q14 -275 -321 -644l479 156 q14 5 23.5 -6.5t4.5 -23.5l-117 -253q-3 -10 -15 -12l-638 -139q-21 -5 -26 12z" />
<glyph unicode="3" horiz-adv-x="874" d="M51 1128q-5 23 17 26q23 5 26 -18l19 -87l467 44q3 2 9 2l197 19q14 0 21 -12q7 -14 -2 -25l-331 -409q42 10 82 10q173 0 248 -166q37 -80 31 -172q-9 -166 -138 -287t-291 -121q-84 0 -150 33q-78 40 -99 113q-16 51 2 110q30 108 118 161q3 3 11 7q30 16 61 22 q117 30 183 -50q31 -37 31 -77t-30.5 -73t-70.5 -32q-49 3 -68 56q-7 23 14 30t29.5 -16t26.5 -24q30 -2 47 33q19 37 -14 75q-21 26 -56 35q-68 19 -138 -23q-40 -38 -38 -120q2 -127 92 -182q40 -24 93 -24q58 0 103 28q68 40 108 122q37 77 36 162q0 101 -60 179.5 t-149 97.5q-91 21 -153 -24q-7 -10 -16 -9q-9 -3 -18.5 5.5t-9.5 17.5q-2 9 7 15l253 466l-429 -42l35 -166q5 -21 -18 -26q-23 -3 -26 18z" />
<glyph unicode="4" horiz-adv-x="920" d="M51 399q0 7 3 12l587 781q10 12 27 7q16 -7 14 -21l-30 -451l146 21l-12 68q-3 23 19 26q21 3 26 -19l49 -284q3 -23 -17 -27q-23 -3 -26 18l-7 35l-192 -49l-33 -509l146 24q23 3 26 -19q3 -21 -19 -24l-371 -63q-23 -3 -26 19q-3 21 17 25l181 31l34 505l-515 -129 q-28 -7 -27 23zM309 675l298 45l26 385z" />
<glyph unicode="5" horiz-adv-x="906" d="M51 122q0 63 45 104.5t108 41.5q103 0 146 -82q17 -33 18 -69q-2 -63 -49 -105q289 23 289 321q0 120 -68.5 200.5t-183.5 80.5q-103 0 -224 -44q-21 -7 -27 14q-3 9 -4 16q2 3 2 8l117 518q3 16 19 17l558 46l26 87q7 21 28 16q23 -7 15 -30l-87 -289q-7 -21 -28 -14 q-21 5 -15 28l47 155l-349 -28l-129 -441q122 33 209 33q150 0 229 -96q38 -49 47 -124q14 -112 -37.5 -225t-142.5 -184q-110 -89 -260 -107q-37 -5 -69 -5q-89 0 -152 33q-78 44 -78 124z" />
<glyph unicode="6" horiz-adv-x="977" d="M51 474q9 174 106 359q80 146 190 256q143 139 275 140q56 -1 107 -25q10 -5 12 -8q70 -51 69 -143q0 -85 -55 -114q-37 -24 -75 -24q-63 0 -109 51.5t-46 112.5q0 59 43 98q-82 -21 -169 -100q-68 -138 -136 -275q-58 -141 -52 -305q5 -125 45 -239q49 -134 133 -199 q56 -44 116 -42q112 5 182 176q54 134 56 278q0 87 -20 151q-31 96 -99 94q-75 -3 -117.5 -55.5t-34.5 -123.5q12 -110 112 -110q16 0 35 4q26 24 49 57q12 17 31 5q19 -14 5 -31q-24 -35 -50 -59q-2 -10 -13 -13q-68 -61 -144 -61q-71 0 -114 51t-43 124q0 44 14 89 q30 91 117 139.5t183 37.5q138 -16 216 -139q68 -108 68 -255q0 -134 -76 -236.5t-205 -144.5q-115 -40 -233 -18q-186 35 -295 196q-85 129 -78 301z" />
<glyph unicode="7" horiz-adv-x="833" d="M51 859l3 286q0 23 23 21q23 0 22 -23v-66q469 91 661 82q7 2 17 0q7 -2 13.5 -7t0.5 -23l-286 -1131q45 2 79 -3q21 -3 17 -26q-3 -23 -26 -20q-19 5 -45 6q-91 0 -221 -42q-21 -7 -28 16q-7 21 14.5 27.5t101.5 26.5l108 1115q-185 -23 -407 -66l-2 -173q0 -23 -23 -22 q-23 0 -22 22z" />
<glyph unicode="8" horiz-adv-x="705" d="M51 244q0 108 58 216t149 171q-63 124 -63 270q0 199 134 249q70 26 169 6q13 -4 16 -7q71 -28 82 -121q5 -52 -12 -109q-44 -136 -98 -185q30 -42 61 -70q94 -82 119 -211q31 -157 -48 -293t-235 -167q-49 -9 -97 -5q-7 -2 -21 2q-112 16 -171 99q-44 64 -43 155z M96 244q0 -101 61 -157q51 -49 131 -54q157 0 176 108q16 85 -46 223q-49 110 -116 199q-11 14 -21 30q-80 -58 -132.5 -154.5t-52.5 -194.5zM380 1041q0 -58 30 -147q24 -82 50 -124q42 38 80 162q16 49 11 91q-7 68 -56 84q-54 17 -82 3q-33 -14 -33 -69z" />
<glyph unicode="9" horiz-adv-x="730" d="M51 685q-21 84 0 174q31 141 138 215.5t215 74.5q157 0 211 -131l30 131q5 23 28 17q23 -5 17 -28l-258 -1077q80 3 136 -17q21 -9 14 -30q-9 -21 -29 -14q-42 16 -102 16q-101 0 -224 -40q-21 -7 -28 14t14 29q40 14 172 39l145 608q-101 -166 -248 -169q-89 -3 -149 49 t-82 139zM188 795q23 -94 100 -120q47 -16 99 -9q87 10 132 73q44 85 68 190q0 87 -60 134.5t-145 38.5q-3 -2 -12 -4q-138 -35 -178 -162q-21 -70 -4 -141z" />
<glyph unicode=":" horiz-adv-x="651" d="M51 173q0 47 37 81.5t86 34.5q68 0 129 -58t61 -126q0 -47 -34 -80.5t-82 -33.5q-54 0 -106.5 36t-75.5 85q-16 31 -15 61zM134 573q0 47 37.5 82t86.5 35q68 0 129 -58.5t61 -126.5q0 -47 -35 -80t-84 -33q-52 0 -104.5 35.5t-76.5 84.5q-14 31 -14 61z" />
<glyph unicode=";" horiz-adv-x="625" d="M51 152q-3 45 27 82.5t74 47.5q103 23 186 -66q68 -73 65 -176q-2 -80 -72 -132q-63 -47 -146 -46q-64 2 -121 39q-14 7 -8 24q3 16 19 17q131 2 159 65q-63 5 -117 42q-61 44 -66 103zM134 573q0 47 37.5 82t86.5 35q68 0 129 -58.5t61 -126.5q0 -47 -35 -80t-84 -33 q-52 0 -104.5 35.5t-76.5 84.5q-14 31 -14 61z" />
<glyph unicode="&#x3c;" horiz-adv-x="693" d="M40 260q-2 14 11 21l502 348q19 14 31 -5q14 -17 -5 -31l-467 -325l528 -200q23 -9 14 -30t-30 -12l-570 215q-12 5 -14 19z" />
<glyph unicode="=" horiz-adv-x="857" d="M51 340q-3 21 17 26l80 12q3 2 5 2l584 101q23 5 26 -17q5 -23 -17 -27l-94 -15l-18 -131q-2 -17 -17 -21l-464 -82q-10 -2 -19 5t-7 18l7 120l-57 -10q-23 -3 -26 19zM77 610q-3 23 19 26l695 103q21 3 25 -19q3 -21 -19 -25l-79 -12l-26 -129q-3 -14 -19 -17l-487 -91 q-10 -2 -18.5 6t-7.5 19l16 130l-73 -10q-23 -3 -26 19z" />
<glyph unicode="&#x3e;" horiz-adv-x="712" d="M51 23q-9 21 12 29l547 236l-511 296q-19 12 -7 31q10 19 30 9l549 -319q12 -7 11 -21q0 -14 -13 -21l-589 -251q-21 -10 -29 11z" />
<glyph unicode="?" horiz-adv-x="739" d="M84 964q2 103 92 162q78 52 187 52q78 -2 141 -35q71 -38 97 -106q23 -58 6 -117q-19 -68 -89 -123q-85 -70 -112 -105q-49 -61 -49 -141q0 -52 18 -133q38 -3 69 -7q23 -3 20 -26t-27 -19l-90 10q-145 14 -211 0q-23 -3 -26 20q-5 21 17.5 25t52.5 6q9 87 53 173.5 t110 135.5q105 77 96 216q-3 68 -38 115q-38 54 -101 54q-35 0 -79 -19q-33 -17 -55 -44q52 10 98 -35t46 -99q0 -49 -40 -84q-26 -24 -59 -24q-47 0 -84 40t-42 89q-2 3 -1 19zM127 185q0 31 23 59q31 38 87 38q70 0 145.5 -59t75.5 -129q0 -31 -19 -56q-30 -38 -85 -38 q-119 0 -197 106q-30 40 -30 79z" />
<glyph unicode="@" horiz-adv-x="1134" d="M51 411q-7 89 13 176q44 186 206 304q154 110 350 109q274 0 408 -188q66 -92 67 -204q0 -180 -126 -308q-61 -63 -124 -63q-91 0 -113 110q-49 -63 -118 -73q-87 -16 -150 48q-58 59 -58 149q0 35 9 69q17 71 71 123.5t126 66.5q71 12 127 -19q7 -2 10 -7q16 -10 28 -24 q7 17 14 35.5t28 9.5t12 -30q-52 -129 -59 -254q-7 -131 49 -153q12 -5 26 -6q42 0 89 49q84 85 108 215q-2 3 -1 10t1 10q5 125 -152 215q-132 75 -270 80q-188 7 -326 -150q-131 -150 -130 -341q0 -202 158 -302q3 -3 9 -7q122 -54 294 -42q23 2 25 -21t-21 -24 q-335 -23 -488 178q-82 108 -92 259zM539 404q0 -59 29 -87q101 -14 159 105q2 92 33 205q-14 23 -35 39q-108 -5 -166 -155q-21 -56 -20 -107z" />
<glyph unicode="A" horiz-adv-x="1108" d="M51 -70q0 19 5 39q25 70 116 70q13 0 27 -1q132 -12 207 -101l86 492l-231 -2q-23 0 -22 23q0 23 22 22l239 2l49 284q-5 12 4 21l64 366q-2 21 21 25h5h14q131 0 261 -128q136 -136 149 -277v-10q1 -19 1 -38q0 -117 -36 -260q-26 -103 -106 -332l-39 -106 q-3 -12 -9 -16q-7 -9 -22 -1q-21 9 -14 29q98 259 98 484q0 19 -1 38q-7 181 -130 237q-34 15 -73 15h-9q-70 -2 -133 -50l-48 -281l299 2q23 0 23 -23t-23 -22l-308 -2l-98 -563q1 -7 1 -14q0 -31 -18 -61q-42 -72 -129 -72h-7q-80 3 -155 67q-80 66 -80 144z" />
<glyph unicode="B" horiz-adv-x="1098" d="M81.5 121q30.5 27 77.5 27q92 0 179 -82q80 242 119 527q24 175 24 318q0 120 -17 218l-136 -64q-19 -9 -30 10q-10 21 11 32l311 148q6 3 11 3q11 0 19 -14q10 -21 -10 -29l-135 -65q7 -33 11 -71q129 59 233 59q98 0 168 -52t85 -148q4 -24 3 -48q0 -80 -43 -154 q-57 -96 -158 -138q115 -26 183.5 -104.5t68.5 -191.5q0 -91 -19 -112q-30 -84 -97 -136t-154 -52q-166 0 -340 190q-14 17 2 31q17 16 31 0q21 -23 40 -42q77 -54 145 -54q99 1 154 93q35 59 35 118q0 34 -11 68q-45 132 -239 153q-17 2 -19 13q-2 2 -3.5 4.5t-1.5 5.5 q-7 19 7 26q3 2 8 4q181 66 197 212q1 13 1 26q0 72 -48 128q-57 66 -146 66q-35 0 -70 -10q-3 0 -9 -4q4 -62 4 -128q0 -177 -31 -381q-40 -263 -119 -493q37 -51 37 -101q0 -45 -33.5 -83.5t-83.5 -38.5q-80 0 -159 80q-83 83 -83 162q0 47 30.5 74z" />
<glyph unicode="C" horiz-adv-x="892" d="M51 561q0 152 76.5 276.5t212.5 187.5q85 37 171 38h10q72 0 134 -28l6 -1q12 -3 14 -9q162 -89 162 -319v-3v-1q0 -59 -32 -111q-40 -68 -104 -68q-45 0 -78.5 35t-33.5 89q0 61 44.5 121t102.5 60q23 0 43 -11q-33 122 -139 175q-38 12 -74 12q-139 0 -216 -153 q-61 -120 -61 -274v-9q0 -180 82 -308q96 -153 272 -154q54 0 112 14q33 15 66 32q21 10 31 -9q3 -6 3 -12q1 -13 -15 -21q-22 -12 -47 -23q-3 -3 -24 -9q-116 -49 -226 -49q-21 0 -41 2q-258 21 -385 262q-66 124 -66 268z" />
<glyph unicode="D" horiz-adv-x="1293" d="M51 282q0 78 55 112q24 14 51 14q94 0 169 -136q14 -26 23 -52q26 150 26 353q0 248 -35 508q-2 19 17 24q124 28 260 28q303 0 479 -162q146 -134 155 -295q0 -9 1 -19q0 -144 -103 -256q-99 -108 -447 -234q-51 -21 -149 -55q-45 -28 -58 -60q-7 -19 0 -38 q7 -15 21 -31q16 -16 -2 -32q-8 -8 -15 -8q-8 0 -16 10q-7 5 -30 45q-7 18 -7 35t7 35q24 66 120 103q448 173 473 373q2 15 2 30q0 108 -105 184q-94 70 -248 89q-51 6 -106 6q-85 0 -179 -15q10 -138 10 -265q0 -295 -52 -479q-26 -71 -101 -71q-51 0 -101.5 32t-73.5 79 q-42 89 -41 148z" />
<glyph unicode="E" horiz-adv-x="996" d="M51 293q7 234 238 298q-84 37 -111 110q-13 32 -13 68q0 29 9 61q35 122 152 207q106 78 244 79q75 0 138 -21q10 -3 14 -7q112 -40 173.5 -126.5t61.5 -203.5q0 -91 -42 -146q-40 -52 -109 -52q-11 0 -23 1q-64 7 -121 54q-62 50 -62 112q0 26 12 49q30 59 101 59 q52 0 108 -29.5t84 -73.5q5 26 5 51q0 110 -89 193q-84 78 -197 91q-13 1 -25 1q-98 0 -163 -85q-61 -78 -61 -180q0 -12 1 -24q11 -143 124 -175q21 2 21 -20q2 -21 -14 -23q-3 -2 -8.5 -2.5t-13.5 -0.5q-110 -2 -163 -110q-32 -64 -31 -133q0 -34 7 -69q40 -193 234 -194 q82 0 198 49q103 64 129 180q5 21 26 17q23 -5 18 -28q-37 -157 -187 -228q-102 -49 -226 -49q-37 0 -75 4q-139 16 -242 85q-122 82 -122 205v6z" />
<glyph unicode="F" horiz-adv-x="1044" d="M-173 -138q7 33 32 58q40 40 92 40q80 0 150 -85q51 -64 58 -131q19 33 48 111q9 24 13 33q110 284 137 602l-200 3q-23 0 -23 23t23 23l204 -4q5 79 5 157q0 52 -2 105q-5 9 -1 15q-9 166 -42 326q-2 3 -2 5q-7 23 14 30q122 37 164 37q35 0 78 -21q58 -31 115 -63 q143 -75 232 -75q131 0 204 139q10 17 24 13q16 -1 20 -7q3 -4 4 -12q0 -3 -1 -7q-42 -213 -125.5 -297.5t-188.5 -84.5q-71 0 -174 38t-136 38q-64 0 -139 -74q2 -47 1 -94q0 -85 -5 -170l188 -1q23 -2 21 -25q0 -23 -22 -21l-190 2q-30 -324 -142 -615q-5 -12 -12 -33 q-64 -178 -143 -211q-9 -5 -14 -5q-21 -6 -44.5 -6t-50.5 6q-75 19 -129 88q-45 60 -45 117q0 16 4 33z" />
<glyph unicode="G" horiz-adv-x="913" d="M51 -127q-1 11 -1 21q0 92 72 134q26 14 52 14q68 0 108 -82q22 -47 22 -96q0 -12 -1 -24q40 59 67 163q-190 58 -243 211q-16 48 -16 100q0 37 8 76q21 112 97 218q77 101 206 183q10 7 33 19q17 153 60.5 235.5t129.5 85.5q51 0 88 -32t37 -83q0 -28 -12 -57 q-28 -68 -111 -114l-150 -66l-2 -16q-5 -56 -12 -174l-2 -31q37 9 75 9q31 0 64 -6q120 -21 192 -120q56 -75 59 -162v-16q0 -82 -47 -149q-52 -74 -139 -109q-68 -26 -148 -26q-59 0 -124 14q-69 -269 -222 -269q-8 0 -17 1q-52 3 -87 50q-31 42 -36 98zM251 354 q-1 -12 -1 -23q0 -181 137 -256q12 63 21 138q-94 42 -94 144q0 75 40 124q31 37 82 59l1 51q7 113 13 164l-4 -4q-82 -58 -136 -173.5t-59 -223.5zM429 56q31 -12 66 -12q98 0 177 79t86 179q1 8 1 16q0 88 -71 154q-31 30 -66 39q-16 4 -32 4q-38 0 -75 -23 q-53 -34 -67 -88q-4 -17 -4 -37q0 -25 7 -53q15 -56 53 -56h3q17 0 40 12q16 16 16 37t23 21t22 -23q0 -28 -15 -51q2 -9 -20 -20q-38 -33 -95 -35q-14 0 -27 1q-10 -78 -22 -144zM502 833q21 9 52 21q31 21 61 44.5t30 70.5q-2 63 -45 84q-6 3 -10 3q-9 0 -15 -8 q-7 -5 -10 -7q-33 -47 -54 -157q-5 -24 -9 -51z" />
<glyph unicode="H" horiz-adv-x="1057" d="M63 9q34 66 118 66q14 0 30 -2q101 -12 152 -83q3 21 5 59q8 97 8 245v34q0 293 -20 667l-114 -15q-23 -2 -26 20q-3 21 19 25l274 35h5q18 0 21 -19q3 -21 -19 -25l-115 -16q10 -192 16 -390l353 -2q26 216 84 351l-92 29q-21 7 -14 28q7 23 28 16l273 -86q17 -6 17 -20 q0 -3 -1 -7q-7 -23 -30 -16l-137 43q-104 -240 -103 -649q0 -79 3 -165l143 7q23 2 25 -20q2 -23 -21 -25l-297 -14q-23 -2 -22 21q-2 23 21 24l106 6q-4 67 -3.5 134t3.5 134l-331 -9v-64q0 -171 -9 -279q-9 -119 -35 -174q-42 -86 -141 -86h-2q-68 -1 -127 51 q-57 50 -57 116q0 30 12 55z" />
<glyph unicode="I" horiz-adv-x="637" d="M51 919q-2 23 20 22l502 30q25 0 25 -26q0 -18 -21 -19l-89 -6q-103 -582 -134 -875h68q23 0 22 -22q0 -23 -22 -23l-338 -3q-23 0 -23 22q0 23 23 23h50q40 64 61 308q14 164 14 284v41q-5 200 -40 224h-2q-2 2 -7 2l-87 -5q-23 0 -22 23z" />
<glyph unicode="J" horiz-adv-x="922" d="M75 286q21 56 171 190q134 122 134 190q0 17 8.5 21.5t22.5 0.5q21 -5 16 -26q0 -5 -2 -8q-5 -68 -89.5 -192t-84.5 -181q0 -38 23 -70q56 -77 198 -77q63 0 112 16l115 819q-164 -23 -244 -49q-21 -7 -28 16q-7 21 14 28q152 49 528 80h3q18 0 20 -21v-4q0 -19 -21 -20 q-52 -3 -227 -23l-146 -1049q-3 -12 -7 -16q-3 -9 -19 -10q-71 -7 -133 -7q-136 0 -225 35q-163 64 -163 231q0 63 24 126z" />
<glyph unicode="K" horiz-adv-x="1047" d="M68 56q30 38 89 38q85 0 172 -64l124 983l-124 -25q-23 -3 -26 18q-5 23 18 28l299 57h5q18 0 22 -19q3 -21 -18 -26l-129 -25l-52 -416l429 406l-12 30q-7 21 13 29q21 9 28 -12l101 -251q3 -6 3 -11q0 -12 -15 -17q-21 -9 -29 12l-4 9l-453 -291l343 -408l93 120 q14 17 31 4q19 -14 5 -32l-212 -273q-14 -17 -32 -4q-17 14 -3 32l90 116l-353 421l-39 -23q-2 -2 -3 -4l-59 -463q43 -46 43 -91v-2q0 -30 -21 -55q-33 -38 -92 -39q-75 0 -159 58q-90 63 -90 135q0 30 17 55z" />
<glyph unicode="L" horiz-adv-x="1092" d="M51 1011v5q0 18 19 19l380 51h4q9 0 16 -7q8 -9 6 -19l-169 -968q145 33 296 42q38 2 73 2q163 0 279 -38l58 115q10 19 29 10q14 -7 14 -19q0 -6 -3 -12l-134 -269q-7 -14 -18 -14q-6 0 -14 4q-19 10 -9 29l56 116q-108 33 -259 33q-34 0 -70 -2q-254 -14 -403 -73 q-3 -3 -12 -6q-12 -5 -19 4q-10 3 -11 19q0 5 2 11q33 383 33 597q0 351 -91 351h-6h-14h-9q-23 -3 -24 19z" />
<glyph unicode="M" horiz-adv-x="1413" d="M51 319q0 45 24 84q33 54 96 54q64 0 138 -56q77 -61 113 -141q70 312 118 803q-7 16 14 25q6 3 11 3q11 0 17 -12q2 -2 4 -7q160 -376 333 -579q54 105 118 206q2 5 7 10q138 211 235 290q2 5 7 7q14 9 26 -6q7 -3 9 -12q3 -9 -3 -15q-44 -183 -67 -459 q-16 -177 -16 -312q0 -83 6 -150h20q46 0 93 -7q18 -3 18 -21v-5q-3 -21 -25 -17q-44 6 -86 6q-39 0 -76 -5q-59 -7 -151 -34q-5 -2 -9 -2q-13 0 -19 17q-5 21 15 28q96 28 168 37q-3 199 -25 312q-28 146 -104 289q-143 -232 -208 -423q0 -5 -3 -11q-3 -10 -11 -12 q-10 -9 -24 3q-59 51 -110 105q-122 125 -185 237l-7 -47q-47 -296 -71 -345q-17 -99 -134 -99q-119 0 -209 128q-47 66 -47 133z" />
<glyph unicode="N" horiz-adv-x="1228" d="M51 267q0 33 19 57q26 35 68 35q56 0 120 -52q58 -47 89 -105q21 155 35 417q17 310 28 416q-3 19 17 25q21 3 26 -12q2 -3 2 -11q44 -218 469 -638q23 364 136 546l-131 104q-17 16 -3 33q8 10 17 10q7 0 14 -6l274 -220q9 -8 9 -16q0 -7 -6 -15q-14 -17 -31 -4l-107 86 q-64 -106 -101 -302q-31 -167 -31 -326q0 -164 35 -284q9 -9 0 -26q-7 -12 -18 -12q-7 0 -14 5q-108 63 -289 248q-159 160 -258 291q-24 -342 -47 -406q-3 -7 -12 -16q-21 -42 -75 -42q-63 0 -134 56q-101 80 -101 164z" />
<glyph unicode="O" horiz-adv-x="944" d="M51 390q0 66 13 135q40 195 180 334q153 153 343 154q153 0 244 -145q71 -113 72 -275q0 -96 -26 -201q-47 -192 -169 -300q-128 -116 -318 -116h-3q-45 0 -73 7q-120 24 -197 149q-66 110 -66 258zM221 366q-10 -72 -10 -128q0 -165 87 -198q21 -7 44 -7q89 0 174 103 q77 91 155 274q75 176 75 329q0 39 -5 77q-14 105 -73 129q-18 8 -41 8q-101 0 -223 -160q-92 -124 -141 -251q-30 -78 -42 -176z" />
<glyph unicode="P" horiz-adv-x="1120" d="M51 51q10 78 134 216q35 40 92 116q3 9 7 11q26 52 26 99q0 21 23 21t23 -21q0 -61 -49 -151q-52 -98 -59 -154q-2 -18 -2 -34q0 -146 169 -180l183 1081q-58 -17 -110 -34q-21 -7 -28 14q-7 23 14 30q49 16 94 28q110 30 180 33h4q20 0 20 -21q2 -23 -21 -24 q-44 -2 -106 -16l-33 -200q106 160 253 160q54 0 99 -26q7 0 12 -9q105 -73 105 -235q0 -183 -126 -318q-95 -102 -205 -102h-2q-119 0 -180 115q-9 7 -7 14q-7 16 -12 31l-122 -725q0 -26 -23 -26h-3q-185 23 -288 139q-63 73 -63 149q0 9 1 19zM577 607q0 -145 84 -145h2 q93 0 184 111q119 143 119 295q0 56 -21 91q-35 22 -76 22h-4q-103 0 -189 -104q-73 -91 -92 -201q-7 -35 -7 -69z" />
<glyph unicode="Q" horiz-adv-x="1054" d="M58 526q31 206 174 365q156 172 353 172h2h2q182 0 291 -151q89 -122 89 -297q0 -47 -7 -96q-35 -225 -193 -385l162 -129l47 58q14 19 31 5q10 -8 10 -17q0 -8 -6 -16l-147 -187q-8 -9 -16 -9q-7 0 -15 6q-17 14 -4 31l72 93l-167 136q-143 -124 -305 -124 q-181 0 -292 151q-88 123 -88 293q0 53 7 101zM274 535q0 -225 97 -371q72 -109 159 -109q15 0 31 3q66 14 121 88l-182 147l-83 -59q-20 -12 -32 5q-14 19 5 31l187 133q19 12 31 -7q14 -17 -5 -32l-64 -45l167 -134q75 138 75 333q0 225 -96 371q-74 109 -161 109 q-15 0 -31 -3q-138 -30 -197 -266q-22 -88 -22 -186v-8z" />
<glyph unicode="R" horiz-adv-x="1246" d="M51 89q0 44 30 77t79 33q68 0 136 -60q35 -30 60 -68l235 990v2q0 23 23 23q354 -3 508 -143q84 -77 84 -179q0 -28 -7 -56q-52 -227 -676 -312l514 -382l101 152q14 19 32 7q19 -14 7 -32l-203 -303q-8 -10 -17 -10q-7 0 -14 5q-19 12 -7 31l75 112l-537 400 q-35 -166 -96 -418q-30 -97 -102 -97h-1q-51 0 -109 43q-52 38 -83.5 88t-31.5 97zM488 437q286 37 439 93q71 26 72 94q0 50 -40 99q-94 112 -370 133z" />
<glyph unicode="S" horiz-adv-x="813" d="M51 -258v8q0 65 31 112q37 58 101 61q23 2 44 -5q12 0 15 -7q51 -26 51 -100q0 -26 -23 -25q-23 0 -22 22v6q0 40 -27 55q-28 -10 -31 -61q-1 -8 0 -15q0 -62 37 -96q17 -16 38 -16q16 0 35 10q3 2 7 4q26 47 36 117l25 143q-94 23 -152 90q-63 70 -63 164q0 42 13 86 q21 71 68 115q40 38 89 39q16 0 33 -5q54 -14 83 -64l25 146q-85 122 -107 162q-46 87 -46 162q0 13 1 25q23 197 190 247q35 10 68 10q12 0 24 -1q75 -7 121 -61q14 -17 -4 -33q-17 -14 -31 4q-10 12 -25 22h-1q-26 10 -53 9l-57 -342q230 -225 230 -416q0 -101 -54 -204 q-80 -153 -249 -166q-30 -2 -58 2l-24 -141q-16 -92 -60 -155q-52 -77 -130 -77h-6q-64 2 -102.5 52.5t-39.5 116.5zM218 199q0 -64 48 -116.5t114 -61.5l35 214q-14 70 -72 84q-15 4 -28 4q-44 0 -71 -42q-26 -38 -26 -82zM425 21q84 19 115 139q12 47 13 100 q0 113 -53 209zM467 905v-10q0 -70 38 -123l49 288q-80 -42 -87 -155z" />
<glyph unicode="T" horiz-adv-x="1214" d="M51 1051q-2 23 20 23h6l1199 78q5 2 12 2h4q12 0 18 -8q3 -4 3 -10q0 -5 -2 -10q0 -10 -6 -14l-61 -153q-9 -21 -29 -13q-21 9 -12 30l52 129l-394 -24q-99 -112 -183 -488q-68 -303 -82 -529q12 1 23 1q49 0 89 -11q23 -5 15 -28q-5 -21 -28 -16q-33 10 -73 11 q-132 0 -310 -87q-7 -3 -13 -3q-12 0 -18 13q-10 19 10 30q35 17 160 63v1q33 234 34 511q0 415 -81 502l-308 -21l5 -118q0 -23 -23 -25q-23 0 -22 23z" />
<glyph unicode="U" horiz-adv-x="1096" d="M51 1117q0 23 22 23q206 0 368 -26q5 0 15.5 -2.5t14.5 -9.5q3 -7 -0.5 -17t-6.5 -15q-146 -338 -155 -627v-27q0 -249 122 -397q150 17 278.5 136t146.5 265l-7 650l-161 -28q-23 -5 -26 18t20 26l306 54h5q18 0 21 -19q3 -21 -17 -26l-103 -18l7 -643v-14v-2l4 -439 l120 63q19 10 30 -9q3 -7 3 -12q0 -11 -12 -18l-310 -167q-7 -3 -13 -3q-11 0 -19 12q-10 21 11 31l146 79q-2 2 -2 8l-1 314q-70 -134 -199 -219q-134 -87 -281 -88q-21 0 -42 2q-256 23 -256 378q0 113 26 250q23 119 23 227q0 46 -4 90q-12 132 -59 178q-16 2 -15 22z " />
<glyph unicode="V" horiz-adv-x="1265" d="M51 821q-8 8 -8 15.5t8 15.5l324 321q8 8 16 8q9 0 17 -10q16 -16 -2 -31l-61 -61l324 -777q188 448 464 725l-148 92q-19 12 -7 31t31 7l279 -174q12 -7 12 -17q0 -6 -5 -14q-10 -19 -30 -7l-92 57q-195 -193 -333 -484q-117 -267 -233 -532q-2 -9 -16 -14q-6 -3 -12 -3 q-12 0 -18 15l-373 942l-106 -105q-16 -16 -31 0z" />
<glyph unicode="W" horiz-adv-x="1615" d="M44 765q-1 9 8 18l326 292q7 7 16 7q23 0 23 -22q0 -10 -9 -19l-23 -20q181 -427 453 -770q35 153 68 275q-3 9 4 16q45 167 78 253q-3 17 18 22q21 7 26 -10q5 -5 3 -12q120 -394 232 -541q82 566 246 855l-113 69q-19 12 -7 32q7 12 17 12q6 0 14 -5l254 -161 q12 -8 12 -19q0 -6 -3 -12q-12 -19 -31 -7l-106 66q-103 -181 -177 -502q-61 -261 -85 -528q0 -10 -16 -21q-5 -6 -12 -6t-16 6q-157 112 -308 429q-49 -188 -96 -408q-5 -21 -28 -17q-16 3 -17 14q-368 317 -650 754l-63 -56q-7 -7 -16 -6q-23 0 -22 22z" />
<glyph unicode="X" horiz-adv-x="1179" d="M51 277q-8 8 -8 16t9 16q17 16 32 -2l36 -42l324 427l-298 298l-57 -89q-12 -17 -31 -7q-10 7 -10 18q0 7 4 14l136 210q12 19 30 7q19 -12 7 -31l-54 -84l301 -299l269 353l-49 27q-19 10 -9 29q7 14 18 14q5 0 12 -3l293 -154q19 -10 8 -31q-10 -19 -29 -9l-26 12 l-293 -434l345 -355l91 124q14 19 31 5q11 -8 11 -17q0 -7 -6 -15l-183 -251q-14 -19 -31 -5q-19 14 -5 32l66 90l-345 356l-316 -467l39 -46q16 -17 -2 -31q-8 -8 -16 -8q-9 0 -16 10l-47 54q-10 7 -12 14z" />
<glyph unicode="Y" horiz-adv-x="1139" d="M51 800q-5 7 -5 14q0 10 12 17q61 40 116 86q134 110 220 225q14 17 31 5q19 -14 6 -33q-24 -31 -55 -65l454 -371q71 139 179 385q-80 33 -136 66q-19 10 -8 30q8 13 18 13q6 0 13 -4q59 -35 308 -131q16 -5 16 -18q0 -5 -2 -10q-7 -21 -28 -14q-71 23 -139 51 q-113 -256 -190 -405q0 -5 -5 -12q-188 -366 -420 -645q51 -51 104 -97q17 -14 4 -32q-9 -9 -18 -9l-14 6q-143 124 -240 247q-14 17 3 32q19 14 34 -4q16 -23 95 -111q173 209 316 460l-577 361q-35 -27 -61 -44q-19 -12 -31 7z" />
<glyph unicode="Z" horiz-adv-x="1037" d="M50 25q-8 6 -7 14q0 8 8 17q232 268 617 897q-181 -9 -387 -10l7 -99q0 -23 -23 -23q-23 -2 -23 21l-14 223q-2 23 21 24h4q20 0 21 -21l5 -80q471 2 681 37q9 5 18 0q3 -2 5 -3.5t4 -1.5q16 -16 1 -33q-270 -298 -585 -839q260 58 547 103l2 132q0 23 22 23q23 0 23 -23 l-4 -325q0 -23 -22 -23q-23 0 -23 23l2 148q-518 -82 -875 -189q-2 -1 -6 -1q-8 0 -19 9z" />
<glyph unicode="[" horiz-adv-x="726" d="M51 -70q-2 21 19 25l64 5l187 1135q-42 -4 -75 -9q-21 -3 -25 19q-3 23 20 26q63 9 259 23q7 2 16 0q87 3 150 -2q23 -2 21 -24q-2 -23 -25 -21q-56 3 -130 2l-185 -1130l190 19q23 2 24 -21q2 -23 -19 -24l-467 -44q-23 -2 -24 21z" />
<glyph unicode="\" horiz-adv-x="787" d="M51 675q106 -173 273 -391q193 -251 222 -293q17 -24 36 -1l80 94l47 -53q12 -19 32 -5q19 12 5 32q-143 202 -320.5 427.5t-310.5 413.5q-12 17 -31 6q-17 -14 -6 -32l47 -66l-74 -108q-9 -12 0 -24z" />
<glyph unicode="]" horiz-adv-x="726" d="M51 1121q2 -23 24 -21q56 3 131 2l184 -1121l-191 19q-23 2 -25 -21t21 -24l467 -44q23 -2 25 21q2 21 -21 24l-65 6l-184 1126q42 -4 73 -9q23 -3 26 19q2 23 -19 26q-64 9 -262 23q-5 2 -15 0q-85 3 -149 -2q-23 -2 -20 -24z" />
<glyph unicode="^" horiz-adv-x="857" d="M51 701l388 477q19 24 37 -1l340 -530q12 -17 -6 -30q-19 -12 -31 5l-71 110l-103 -94q-19 -17 -35 5l-223 352l-262 -322q-14 -17 -31 -4q-17 14 -3 32z" />
<glyph unicode="_" />
<glyph unicode="`" horiz-adv-x="331" d="M40 995q-10 19 9 30l171 101q19 12 31 -7q10 -21 -9 -31l-64 -39l80 -251q7 -21 -14 -28q-23 -7 -30 14l-76 241l-67 -38q-19 -10 -31 8z" />
<glyph unicode="a" horiz-adv-x="698" d="M51 220q0 101 51 203t132 161q66 47 132 47q106 0 181 -117l11 143q3 21 21 21h3q23 -2 21 -24l-52 -637l78 27q21 9 30 -14q2 -5 2 -10q0 -13 -16 -18l-244 -84q-5 -2 -10 -2q-14 0 -20 16q-7 21 14 30l119 40l21 246q-145 -218 -277 -250q-19 -4 -36 -4q-67 0 -113 64 q-49 68 -48 162zM237 251v-10q0 -113 68 -166l4 2q136 94 217 261q3 9 7 12l7 84q-3 2 -7 10q-30 63 -68 100q-139 0 -205 -178q-19 -58 -23 -115z" />
<glyph unicode="b" horiz-adv-x="632" d="M51 1150v5q0 18 19 22l284 48h5q18 0 21 -19q3 -23 -17 -26l-119 -19q0 -249 -21 -582q92 92 194 92h14q75 -5 115 -59q34 -46 34 -107q0 -11 -1 -22q-12 -143 -175 -317q-5 -7 -8 -9q-105 -112 -227 -197q-5 -9 -20 -9h-3q-23 3 -19 26q28 263 47 530q-3 5 0 12 q24 366 25 633l-122 -21q-23 -3 -26 19zM178 23q110 85 188 169q35 77 35 164q0 169 -94 177h-6q-16 1 -42 -7q-32 -10 -39 -22q-17 -241 -42 -481z" />
<glyph unicode="c" horiz-adv-x="641" d="M51 296q0 136 99 244q94 99 197 100q117 0 125 -121v-13q0 -43 -17 -75q-23 -44 -72 -46h-4q-77 0 -98 84q-85 -47 -86 -178q0 -139 94 -209q52 -39 117 -39q73 0 164 49q21 10 31 -8q4 -8 4 -14q0 -11 -12 -18q-127 -68 -246 -68q-173 0 -255 150q-42 78 -41 162z" />
<glyph unicode="d" horiz-adv-x="833" d="M51 204q14 103 96.5 188.5t183.5 107.5q28 6 53 6q16 0 31 -2q64 -7 103 -51q4 161 14 459q-3 12 0 17l8 232q0 21 19 21h4q10 0 16 -4q289 -169 289 -352q0 -78 -56 -157q-5 -9 -8 -10q-23 -42 -65 -75q-17 -16 -31 2q-16 17 1 31q73 63 77 136v7q0 79 -64 118 q-45 28 -95 28q-24 0 -50 -7q-2 -16 -2 -299q0 -185 -16 -298q-14 -103 -96.5 -188.5t-183.5 -108.5q-30 -7 -58 -7q-14 0 -28 2q-77 12 -115 70q-29 45 -29 100q0 17 2 34zM169 241q9 -82 70 -124q36 -25 78 -26q4 0 9 1q56 8 92 58q31 42 31 98q0 11 -1 22q-9 80 -70 124 q-35 24 -75 24h-12q-45 -5 -78 -42q-45 -47 -45 -114q0 -10 1 -21z" />
<glyph unicode="e" horiz-adv-x="636" d="M51 312q0 129 61 225q66 108 186 131q20 4 41 4q18 0 36 -3q221 -23 221 -324q0 -20 -21 -21l-357 -35q3 -77 36 -130q58 -98 166 -98q82 0 136 66q14 17 31 4q10 -8 10 -17q0 -7 -6 -15q-111 -137 -254 -137h-2q-132 0 -213 113q-71 101 -71 237zM218 335l329 33 q-12 84 -45 151q-47 96 -113 96q-75 0 -126 -108q-40 -83 -45 -172z" />
<glyph unicode="f" horiz-adv-x="831" d="M51 -312q27 47 87 47h12q58 -5 102 -45t48 -96q82 77 82 346q0 40 -2 84q-3 92 -24 220q-28 173 -34 213l-132 -32q-23 -5 -28 16q-5 23 18 28l139 33q-2 30 -2 60q0 167 58 320q44 115 127 200q99 103 206 103q94 0 150 -64q33 -37 33 -80q0 -35 -25 -63 q-35 -40 -92 -40q-66 0 -121 47t-55 111q-101 -94 -101 -387q0 -76 7 -165l101 24q23 5 28 -17q5 -21 -18 -26l-108 -27q21 -209 21 -284q0 -434 -174 -627q-79 -90 -164 -90q-8 0 -16 1q-77 9 -116 77q-19 34 -19 65q0 25 12 48z" />
<glyph unicode="g" horiz-adv-x="937" d="M51 -492q0 80 115 224q125 155 127 252q0 23 22 23h4q16 2 21 -17q10 -40 10 -81q0 -70 -54 -198q-43 -102 -43 -161q0 -10 1 -19q10 -78 154 -78q61 0 125 12l143 817q-139 -216 -306 -238q-14 -2 -28 -2q-89 0 -150 80q-44 56 -56 134q-5 31 -5 62q0 53 15 104 q26 89 91 137v2q58 37 146 49q35 5 70 5q55 0 110 -12q112 -21 157 -78l14 83l-112 47q-21 9 -12 28q6 15 18 15q6 0 12 -3l244 -101q15 -5 15 -17q0 -5 -3 -11q-9 -21 -30 -12l-89 37l-224 -1279q-3 -16 -18 -18q-71 -12 -146 -12q-232 0 -305 118q-33 54 -33 108zM338 272 v-8q0 -85 38 -173q94 19 196 129q96 105 122 202q4 17 4 29q0 8 -1 14q-7 58 -110 88h-3h-4q-116 0 -191 -117q-47 -73 -51 -164z" />
<glyph unicode="h" horiz-adv-x="974" d="M-19 -12q5 97 108 97h2q71 0 148 -62l29 503v4l32 531l-117 -20q-23 -3 -26 19q-3 21 19 26l335 57q4 1 7 1q15 0 19 -18q3 -23 -19 -26l-173 -32l-28 -470q52 56 114 77q31 10 62 10q41 0 81 -18q70 -31 131.5 -127t68.5 -176q29 -121 29 -275q0 -31 -1 -63 q47 -3 117 -24q15 -5 15 -17q0 -5 -2 -11q-5 -21 -27 -16q-68 21 -114 25h-19q-61 0 -146 -16q-23 -5 -26 17q-5 23 17 26q82 17 139 18q2 44 2 83q0 158 -29 248q-46 141 -176 141h-7q-96 -2 -156 -68q-21 -23 -90 -143l-19 -310q36 -46 36 -92q0 -48 -34 -76 q-32 -27 -77 -27q-68 0 -131 45q-94 70 -94 152v7z" />
<glyph unicode="i" horiz-adv-x="500" d="M51 -12q-2 6 -2 10q0 14 17 18q52 14 96 22q0 73 5.5 205t5.5 158q-5 115 -48 141q-14 -3 -33 -7q-21 -3 -26 19q-3 21 18 26q122 24 219 34q49 4 84 4.5t56 -4.5q18 -4 18 -19q0 -4 -1 -9q-5 -21 -28 -16q-8 1 -22 3q-78 -347 -92 -526q26 -2 48.5 -6t18.5 -27 q-5 -21 -28 -17q-37 8 -78 8q-24 0 -51 -3q-64 -7 -150 -30q-4 -1 -8 -1q-16 0 -19 17zM73 915q0 75 56 108q28 16 63 16q61 0 119.5 -43.5t64.5 -103.5q1 -9 1 -17q-1 -47 -43 -85q-50 -44 -113 -44q-64 0 -106 51.5t-42 117.5z" />
<glyph unicode="j" horiz-adv-x="979" d="M51 -385q0 103 77.5 205t94.5 145q5 9 7 11q42 82 42 143q0 26 -7 47q-7 23 14 29q21 7 28 -15q10 -28 10 -61q0 -78 -56 -182q-31 -78 -31 -167q0 -169 122 -221q45 -20 103 -20q25 0 52 4l108 1081q-116 -9 -214 -53q-21 -9 -30 11q-9 21 11 31q120 52 263 56 q15 1 30 1q133 0 251 -40q15 -7 15 -19q0 -4 -2 -10q-7 -21 -29 -14q-110 38 -236 38h-13l-124 -1248q-2 -16 -18 -19q-61 -19 -123 -19q-188 0 -290 127q-55 68 -55 150v9zM518 943q0 68 59 101q31 17 66 17q61 0 116 -44t64 -104q2 -10 2 -19q0 -47 -37 -82 q-45 -42 -108 -42q-59 0 -104 42t-55 101q-3 16 -3 30z" />
<glyph unicode="k" horiz-adv-x="1038" d="M-23 -40q0 40 27 65.5t67 25.5q58 0 128 -49q23 -16 40 -33l24 1098l-138 -23q-23 -3 -26 17q-3 23 20 27l366 62q4 1 8 1q16 0 18 -18q3 -23 -19 -26l-183 -32l-9 -406l239 269q9 10 22 7l185 -47q12 -2 16 -16q3 -12 -6 -21l-355 -369q190 -234 465 -426l107 119 q16 16 31 0q9 -7 9 -16q0 -8 -7 -16l-220 -238q-14 -17 -31 -2q-16 14 -2 31l82 89q-342 239 -539 521l-14 -639q21 -35 23 -67v-5q0 -87 -96 -87q-66 0 -129 45q-103 75 -103 159z" />
<glyph unicode="l" horiz-adv-x="573" d="M51 -9q-1 4 -1 8q0 16 18 20q47 9 120 18q-2 668 -56 1079q-3 21 18 24l357 77q3 1 5 1q9 0 16 -8q6 -7 6 -15q0 -4 -2 -8q-66 -181 -103 -380q-26 -145 -86 -601l-21 -159q45 3 81 4q23 2 22 -21q0 -23 -22 -25q-199 -3 -326 -31h-6q-17 0 -20 17z" />
<glyph unicode="m" horiz-adv-x="1200" d="M51 516q9 64 59 108q47 43 106 42h5q105 -2 147 -126q42 56 109 80q41 15 81 15q26 0 52 -6q78 -17 117 -82q70 89 185 89q89 0 143 -56q50 -52 51 -132q0 -6 -1 -12q-7 -204 -49 -331v-6q0 -3 -1 -5h2q14 0 72 25q10 5 20 -3t10 -18q0 -7 -2 -11q-30 -49 -94 -89 q-59 -37 -106 -37q-8 0 -16 1q-65 8 -65 77q0 20 6 46q50 225 50 335q0 37 -6 61q-6 35 -46 59q-29 17 -54 16q-10 0 -19 -2q-7 -3 -23 -10q-21 -19 -38 -47q7 -28 7 -61q-9 -195 -54 -372q3 -26 -14 -27q-5 -2 -16 0l-137 14q-5 -3 -18 0q-5 2 -10 3q-10 3 -9 23q2 12 7 17 q3 14 14 51q59 234 59 306q0 40 -19 65q-36 45 -79 45q-10 0 -20 -2q-3 0 -7 -1q-35 -24 -56 -61q-7 -10 -11 -12q10 -66 11 -161q0 -195 -59 -319q0 -2 -2 -3q-5 -14 -24 -11l-150 26q-19 3 -20 16q-3 7 2 19q89 227 89 392q0 112 -47 171q-73 -28 -87 -106q-5 -22 -28 -19 q-18 4 -18 20q0 3 1 6z" />
<glyph unicode="n" horiz-adv-x="824" d="M51 551q21 66 68 106q45 41 99 41q8 0 16 -1q103 -12 139 -143q12 10 22.5 20t35.5 19q52 26 106 26q23 0 47 -5q124 -29 124 -166v-11q-7 -174 -25 -306q0 -5 -1 -12v-7q-2 -16 15 -16q19 0 54 17q5 2 11 2q22 0 22 -21q0 -9 -3 -12q-30 -49 -93 -89q-60 -38 -108 -38 q-8 0 -15 1q-64 8 -64 76q0 21 6 48q49 227 49 339q0 35 -5 59q-7 30 -40 54q-27 19 -54 20q-6 0 -11 -1q-21 -10 -61 -54q5 -45 5 -89q0 -178 -61 -387q-2 -10 -5 -12q-3 -14 -22 -12l-129 5q-17 2 -21 14q-5 5 -2 19q108 396 108 547q0 51 -14 66q-9 2 -16 4q-7 1 -14 1 q-83 0 -120 -116q-7 -21 -30 -14q-15 5 -15 17q0 5 2 11z" />
<glyph unicode="o" horiz-adv-x="658" d="M51 354q0 169 132 240q52 28 113 28q52 0 103 -21q98 -38 159 -132t61 -199q0 -171 -134 -242q-52 -28 -114 -28q-52 0 -103 21q-96 38 -156.5 132.5t-60.5 200.5zM230 211q0 -49 16 -82q13 -34 38 -34q11 0 23 6q45 23 87 108q54 108 54 222q0 49 -14 81q-15 34 -40 34 q-11 0 -23 -6q-45 -23 -87 -108q-54 -108 -54 -221z" />
<glyph unicode="p" horiz-adv-x="876" d="M-152 -396q-3 6 -3 11q0 12 16 17q70 26 95 53t44 99q59 167 167 504q44 156 44 220q0 71 -59 79h-16q-12 1 -17 4q-10 3 -11 21q0 22 21 22h2q14 0 28 -1q54 -3 78 -9q124 -33 134 -162q124 152 265 152q132 0 173 -129q14 -44 14 -95q0 -124 -74 -256 q-82 -152 -195 -165q-13 -2 -25 -2q-100 0 -166 125q-24 47 -41 108l-10 -41q-45 -185 -77 -291q-28 -98 -28 -150q0 -19 4 -32q12 -45 92 -54q7 0 18 -5q5 -5 5 -19q-2 -14 -6.5 -17.5t-16.5 -3.5l-427 2h-3q-17 -5 -25 15zM349 302q2 -3 1 -11q14 -105 51 -176 q40 -37 52 -37q44 0 89 95q30 64 45 132q23 85 23 153q0 98 -41 98h-6q-101 -38 -197 -178q-3 -21 -9 -42z" />
<glyph unicode="q" horiz-adv-x="796" d="M51 221v19q0 161 116 286q89 96 194 100h10q123 0 173 -126l33 187l-94 -11q-23 -2 -25 21q-2 21 21 25l241 24h5q18 0 21 -19q2 -23 -21 -25l-101 -10l-59 -336q-3 -38 -14 -77l-117 -669q80 -20 129 -20q20 0 35 4q35 9 59 56q9 17 9 38q0 31 -33 117.5t-33 142.5 q0 47 15 92q3 45 26 94q10 21 32 11q19 -10 9 -30q-17 -38 -21 -71q2 -5 0 -11q-3 -89 102 -173.5t115 -199.5q1 -15 1 -30q0 -142 -142 -223q-89 -52 -212 -52q-75 0 -157 21q-21 5 -18 24l129 731q-98 -132 -225 -136h-7q-87 0 -141 68q-52 64 -55 158zM164 352 q0 -35 12 -71q47 -160 133 -187q14 -4 27 -4q46 0 79 51q31 47 31 119q0 68 -31 139q-42 98 -112 110q-9 2 -18 2q-47 0 -83 -44q-38 -45 -38 -115z" />
<glyph unicode="r" horiz-adv-x="901" d="M51 537q-8 8 -8 15.5t8 15.5q9 9 17 9l260 98q5 5 15 5q4 1 8 1q5 0 11 -3q8 -5 8 -19q2 -9 -2 -14l-4 -44q99 78 199 79q38 0 77 -12q122 -35 191 -157q28 -41 28 -81v-8q-5 -82 -87 -82q-42 0 -103 40q-72 61 -72 130q0 8 1 15q9 75 82 76q-26 16 -53 25q-31 9 -62 9 q-104 0 -206 -100l-40 -481l131 31q23 5 28 -15q5 -23 -18 -28l-345 -82q-4 -1 -7 -1q-14 0 -19 17q-5 23 16 27l130 32q2 30 2 57q0 146 -42 244t-144 201z" />
<glyph unicode="s" horiz-adv-x="665" d="M-105 -228q16 94 96 115q21 5 39 5q77 0 94 -75q3 -21 0 -45q-12 -70 -79 -84q-21 -5 -26 17q-3 23 18 27q35 9 43 48q2 14 -2 28q-8 39 -46 39q-13 0 -29 -4q-52 -14 -62 -80q-2 -14 -2 -27q0 -41 24 -71q32 -40 91 -40q85 0 141 82q42 61 75 176q-84 16 -144 81.5 t-60 148.5q0 59 33 110q51 78 128 87q10 1 19 1q69 0 113 -60l17 75q-119 87 -132 237q-2 21 -2 41q0 148 105 234q63 51 141 51q40 0 56.5 -6t13.5 -25q0 -10 -5 -16q-45 -145 -100 -380q37 -42 75 -84q42 -47 65 -90q33 -64 33 -129q0 -207 -239 -271q-32 -8 -63 -8h-7 q-77 -270 -221 -297q-23 -3 -44 -3q-127 0 -155 122q-4 20 -4 41q0 14 2 29zM115 73q33 -124 167 -146q23 82 51 207q0 3 2 12q4 15 4 29q1 33 -23 59q-30 33 -72 34q-6 0 -12 -1q-56 -7 -95 -67q-27 -41 -27 -86q0 -20 5 -41zM329 -73h2q119 31 133 171q2 20 2 38 q0 94 -51 157l-7 -28q-53 -240 -79 -338zM389 600q9 -47 29 -88q45 189 82 316q-89 -33 -111 -126q-5 -24 -5 -49t5 -53z" />
<glyph unicode="t" horiz-adv-x="756" d="M51 719q0 19 20 20l236 23q-12 193 -69 193h-4q-16 -2 -21 7q-12 0 -16 19q-3 23 19 26l326 51q4 1 7 1q13 0 16 -11q5 -5 3 -16q0 -7 -3 -11l-54 -247l306 23q23 2 25 -21v-4q0 -20 -21 -21l-321 -22l-150 -670l107 23q23 5 28 -18q3 -21 -18 -26l-132 -28q-3 -2 -9 -1 l-192 -40q-4 -1 -7 -1q-15 0 -19 18q-3 21 17 26l119 25q65 387 65 638v41l-234 -22q-24 -2 -24 25z" />
<glyph unicode="u" horiz-adv-x="810" d="M51 620q2 23 24 21l63 -7q5 2 15 -1l211 -19q23 -2 21 -25t-24 -21l-42 4q-68 -125 -77 -286q-1 -15 -1 -29q0 -183 111 -189q92 58 146 232h2l-7 284l-12 -4q-21 -5 -26 18q-5 21 17 26l171 40q4 1 8 1q16 0 20 -18q5 -21 -17 -27l-115 -26l5 -294v-2l7 -284l190 75 q21 9 28 -12q3 -6 3 -11q0 -12 -16 -19l-336 -132q-6 -3 -12 -3q-12 0 -18 15q-9 21 13 29l102 41l-3 188q-92 -187 -223 -187q-28 0 -58 9q-153 44 -153 298q0 152 47 288l-45 3q-20 2 -20 18q0 3 1 6z" />
<glyph unicode="v" horiz-adv-x="998" d="M51 593q-4 7 -4 12q0 10 12 17l103 54q5 5 18 9l108 56q19 10 29 -9q10 -21 -8 -31l-98 -51q59 -200 190 -448q64 131 153 269q113 176 192 238q-35 24 -58.5 33t-16.5 30q6 17 19 17q5 0 11 -3q42 -17 83 -47q98 -71 173 -190q5 -8 5 -15q0 -9 -10 -16q-19 -12 -33 9.5 t-30 42.5q-112 -110 -208.5 -280.5t-131.5 -319.5q-4 -18 -18 -18q-4 0 -8 1q-9 2 -18 10q-82 82 -193 318q-96 199 -141 348l-91 -47q-19 -10 -29 11z" />
<glyph unicode="w" horiz-adv-x="1347" d="M51 483q-6 8 -6 15q0 9 9 16l216 164q8 6 15 6q9 0 17 -9q14 -17 -4 -32l-132 -101q115 -152 188 -307q75 200 209 410q7 12 21 10t19 -15q85 -242 209 -466q143 180 272 427l-47 42q-16 16 -2 33q9 9 17 9t16 -7l237 -216q9 -9 9 -17t-7 -16q-16 -16 -33 -2l-57 54 q-119 -246 -312 -476q-7 -10 -14 -10q-3 0 -7 2q-4 -2 -7 -2q-8 0 -16 12q-134 211 -228 430q-99 -160 -202 -420q-9 -19 -30 -12q-7 0 -11.5 6t-4.5 13q-75 254 -254 492l-49 -38q-17 -14 -31 5z" />
<glyph unicode="x" horiz-adv-x="845" d="M51 446l285 323q8 9 17 9q7 0 15 -6q17 -16 2 -33l-37 -40v-4q0 -10 37 -76q47 -85 109 -175l276 286q16 16 31 0q16 -14 0 -31l-281 -291q2 0 2 -2q103 -136 222 -239l40 51q16 17 33 3q9 -8 9 -16q0 -7 -6 -15l-50 -61q-5 -9 -12 -16l-55 -66l-6 -9q-56 -68 -60 -73 q-7 -12 -17 -12q-5 0 -12 3q-21 12 -9 32q3 5 52 66q-167 160 -249 228l-265 -277q-16 -17 -31 -2q-16 16 0 34l259 273q-150 119 -249 126l-17 -19q-16 -17 -32 -2q-9 7 -9 15t8 16z" />
<glyph unicode="y" horiz-adv-x="969" d="M78 -255.5q27 25.5 67 25.5q58 0 127 -49q103 -73 106 -153q112 108 241 420q-2 0 -5 2q-117 56 -232 195q-105 124 -161 259l-41 -27q-19 -10 -32 7q-12 19 7 31l309 195q19 12 31 -7t-7 -31l-31 -19q66 -450 179 -562q132 331 187 603l-108 6q-23 2 -21 24q2 21 21 21 h3l282 -17q21 0 21 -19v-4q-2 -23 -24 -21l-129 7q-78 -392 -263 -790q-159 -333 -295 -366q-6 -1 -10 -1t-7 1q-8 -1 -16 -1q-60 0 -124 47q-102 74 -102 156q0 42 27 67.5z" />
<glyph unicode="z" horiz-adv-x="881" d="M52 -56q-3 5 -3 11q0 8 7 15l535 605l-347 -12q-12 -61 -31 -141q-5 -21 -27 -18q-23 5 -17 28q51 216 51 232q0 23 22 23q23 0 23 -23q0 -7 -11 -56l563 19q14 2 21 -12q3 -7 3 -12q0 -6 -4 -12l-485 -581l406 48l-26 135q-5 23 17 27q23 5 27 -18l64 -327q1 -4 1 -8 q0 -16 -18 -19q-4 -1 -7 -1q-15 0 -19 19l-30 146l-692 -80q-16 -2 -23 12z" />
<glyph unicode="{" horiz-adv-x="447" d="M51 458q0 12 4 17.5t18 5.5q70 0 115 73q33 51 33 121q0 58 -36.5 162t-36.5 163q0 145 110 192q16 7 55 5.5t57 6.5q21 10 29 -10q9 -16 0 -23q-3 -16 -21 -14q-68 -40 -68 -132q0 -73 53 -221q3 -7 10 -28q17 -51 17 -126q0 -220 -88 -275q108 -108 104 -222 q-2 -73 -50.5 -120t-121.5 -47q-61 0 -124 35q-17 9 -11 26v2q5 21 28 17q108 -24 110 110q3 82 -38 162q-51 94 -128 98q-21 0 -20 22z" />
<glyph unicode="|" horiz-adv-x="303" d="M51 23q-3 248 8 535t7 516q0 23 23 22q23 0 23 -22l1 -81l124 -43q14 -5 14 -19q10 -138 10 -293q0 -103 -7 -305q-5 -173 -3 -246q2 -12 -7.5 -19t-20.5 -5l-120 29l-7 -69q0 -23 -21 -23q-23 0 -24 23z" />
<glyph unicode="}" horiz-adv-x="468" d="M51 221q-16 146 130 194q-38 54 -45 162q-9 169 45 249l14 21q84 124 84 208q0 71 -49 137q-16 9 -14 19q-3 12 11 23q17 14 33 -5q169 -87 169 -265q0 -64 -25 -115q-9 -17 -61 -96q-42 -61 -41 -138q0 -66 31 -132q33 -71 84 -107q19 -12 7 -29v-2q-7 -9 -14 -12 q-7 -2 -20 7q-26 17 -52 17q-66 0 -106 -83q-19 -40 -23 -84q-7 -120 94 -164q19 -9 14 -24v-4q-3 -23 -26 -19q-91 9 -161.5 79.5t-78.5 162.5z" />
<glyph unicode="~" />
<glyph unicode="&#xa0;" />
<glyph unicode="&#xa1;" />
<glyph unicode="&#xa2;" />
<glyph unicode="&#xa3;" />
<glyph unicode="&#xa4;" />
<glyph unicode="&#xa5;" />
<glyph unicode="&#xa6;" />
<glyph unicode="&#xa7;" />
<glyph unicode="&#xa8;" />
<glyph unicode="&#xa9;" />
<glyph unicode="&#xaa;" />
<glyph unicode="&#xab;" />
<glyph unicode="&#xac;" />
<glyph unicode="&#xad;" horiz-adv-x="824" d="M51 493q-5 21 17 26l690 133q21 3 26 -18q3 -23 -17 -27l-80 -14l-21 -131q-2 -14 -18 -18l-482 -111q-10 -2 -19 5t-8 18l9 132l-71 -14q-23 -3 -26 19z" />
<glyph unicode="&#xae;" />
<glyph unicode="&#xaf;" />
<glyph unicode="&#xb0;" />
<glyph unicode="&#xb1;" />
<glyph unicode="&#xb2;" />
<glyph unicode="&#xb3;" />
<glyph unicode="&#xb4;" />
<glyph unicode="&#xb5;" />
<glyph unicode="&#xb6;" />
<glyph unicode="&#xb7;" />
<glyph unicode="&#xb8;" />
<glyph unicode="&#xb9;" />
<glyph unicode="&#xba;" />
<glyph unicode="&#xbb;" />
<glyph unicode="&#xbc;" />
<glyph unicode="&#xbd;" />
<glyph unicode="&#xbe;" />
<glyph unicode="&#xbf;" />
<glyph unicode="&#xc0;" />
<glyph unicode="&#xc1;" />
<glyph unicode="&#xc2;" />
<glyph unicode="&#xc3;" />
<glyph unicode="&#xc4;" />
<glyph unicode="&#xc5;" />
<glyph unicode="&#xc6;" />
<glyph unicode="&#xc7;" />
<glyph unicode="&#xc8;" />
<glyph unicode="&#xc9;" />
<glyph unicode="&#xca;" />
<glyph unicode="&#xcb;" />
<glyph unicode="&#xcc;" />
<glyph unicode="&#xcd;" />
<glyph unicode="&#xce;" />
<glyph unicode="&#xcf;" />
<glyph unicode="&#xd0;" />
<glyph unicode="&#xd1;" />
<glyph unicode="&#xd2;" />
<glyph unicode="&#xd3;" />
<glyph unicode="&#xd4;" />
<glyph unicode="&#xd5;" />
<glyph unicode="&#xd6;" />
<glyph unicode="&#xd7;" />
<glyph unicode="&#xd9;" />
<glyph unicode="&#xda;" />
<glyph unicode="&#xdb;" />
<glyph unicode="&#xdc;" />
<glyph unicode="&#xdd;" />
<glyph unicode="&#xde;" />
<glyph unicode="&#xdf;" />
<glyph unicode="&#xe0;" />
<glyph unicode="&#xe1;" />
<glyph unicode="&#xe2;" />
<glyph unicode="&#xe3;" />
<glyph unicode="&#xe4;" />
<glyph unicode="&#xe5;" />
<glyph unicode="&#xe7;" />
<glyph unicode="&#xe8;" />
<glyph unicode="&#xe9;" />
<glyph unicode="&#xea;" />
<glyph unicode="&#xeb;" />
<glyph unicode="&#xec;" />
<glyph unicode="&#xed;" />
<glyph unicode="&#xee;" />
<glyph unicode="&#xef;" />
<glyph unicode="&#xf0;" />
<glyph unicode="&#xf1;" />
<glyph unicode="&#xf2;" />
<glyph unicode="&#xf3;" />
<glyph unicode="&#xf4;" />
<glyph unicode="&#xf5;" />
<glyph unicode="&#xf6;" />
<glyph unicode="&#xf7;" />
<glyph unicode="&#xf8;" />
<glyph unicode="&#xf9;" />
<glyph unicode="&#xfa;" />
<glyph unicode="&#xfb;" />
<glyph unicode="&#xfc;" />
<glyph unicode="&#xfd;" />
<glyph unicode="&#xfe;" />
<glyph unicode="&#xff;" />
<glyph unicode="&#x178;" />
<glyph unicode="&#x2000;" horiz-adv-x="682" />
<glyph unicode="&#x2001;" horiz-adv-x="1365" />
<glyph unicode="&#x2002;" horiz-adv-x="682" />
<glyph unicode="&#x2003;" horiz-adv-x="1365" />
<glyph unicode="&#x2004;" horiz-adv-x="455" />
<glyph unicode="&#x2005;" horiz-adv-x="341" />
<glyph unicode="&#x2006;" horiz-adv-x="227" />
<glyph unicode="&#x2007;" horiz-adv-x="227" />
<glyph unicode="&#x2008;" horiz-adv-x="170" />
<glyph unicode="&#x2009;" horiz-adv-x="273" />
<glyph unicode="&#x200a;" horiz-adv-x="75" />
<glyph unicode="&#x2010;" horiz-adv-x="824" d="M51 493q-5 21 17 26l690 133q21 3 26 -18q3 -23 -17 -27l-80 -14l-21 -131q-2 -14 -18 -18l-482 -111q-10 -2 -19 5t-8 18l9 132l-71 -14q-23 -3 -26 19z" />
<glyph unicode="&#x2011;" horiz-adv-x="824" d="M51 493q-5 21 17 26l690 133q21 3 26 -18q3 -23 -17 -27l-80 -14l-21 -131q-2 -14 -18 -18l-482 -111q-10 -2 -19 5t-8 18l9 132l-71 -14q-23 -3 -26 19z" />
<glyph unicode="&#x2012;" horiz-adv-x="824" d="M51 493q-5 21 17 26l690 133q21 3 26 -18q3 -23 -17 -27l-80 -14l-21 -131q-2 -14 -18 -18l-482 -111q-10 -2 -19 5t-8 18l9 132l-71 -14q-23 -3 -26 19z" />
<glyph unicode="&#x2013;" horiz-adv-x="1160" d="M68 495q-3 23 17 26q244 47 529 86.5t510 80.5q23 5 26 -17q5 -23 -17 -26l-78 -16l-23 -129q-2 -16 -16 -19q-197 -49 -469 -89q-314 -47 -362 -57q-10 -2 -20 6t-8 18l10 133l-73 -14q-23 -5 -26 17z" />
<glyph unicode="&#x2014;" horiz-adv-x="1417" d="M68 512q-3 23 17 27q244 47 616.5 103.5t597.5 98.5q23 5 26 -18q5 -23 -18 -26l-78 -15l-23 -129q-2 -16 -16 -20q-199 -51 -556 -106q-408 -64 -449 -75q-10 -2 -20 6t-8 18l10 133l-73 -14q-23 -5 -26 17z" />
<glyph unicode="&#x2018;" horiz-adv-x="332" d="M51 953q-14 17 3 32l155 122q17 14 32 -4q14 -17 -4 -31l-59 -47l115 -235q9 -21 -11 -32q-21 -9 -31 11l-110 228l-59 -49q-17 -14 -31 5z" />
<glyph unicode="&#x2019;" horiz-adv-x="385" d="M51 830l151 202l-70 31q-19 9 -10 30q10 19 30 10l181 -82q19 -9 10 -29q-10 -21 -29 -11l-70 32l-159 -211q-12 -17 -31 -4q-17 14 -3 32z" />
<glyph unicode="&#x201c;" horiz-adv-x="486" d="M51 945q-16 17 1 31l129 112q17 14 33 -2q14 -17 -3 -33l-47 -40l89 -229q9 -21 -12 -29q-21 -9 -30 12l-84 214l-45 -38q-17 -16 -31 2zM248 990q-14 17 5 30l129 87q19 12 31 -7t-5 -32l-58 -38l94 -216q9 -21 -10 -30q-21 -9 -30 13l-92 209l-35 -23q-17 -12 -29 7z " />
<glyph unicode="&#x201d;" horiz-adv-x="585" d="M51 847l122 194l-58 14q-21 5 -16 27q5 21 26 16l168 -38q21 -5 16 -28q-5 -21 -27 -16l-62 14l-131 -207q-12 -19 -31 -7t-7 31zM302 816l104 204l-38 12q-21 7 -14 28q5 21 28 15l148 -47q21 -7 14 -28q-7 -23 -28 -15l-66 21l-108 -209q-10 -21 -30 -11q-21 10 -10 30 z" />
<glyph unicode="&#x202f;" horiz-adv-x="273" />
<glyph unicode="&#x205f;" horiz-adv-x="341" />
<glyph unicode="&#xe000;" horiz-adv-x="775" d="M0 0v776h776v-776h-776z" />
</font>
</defs>
</svg>
